<svg xmlns="http://www.w3.org/2000/svg" viewBox="0 0 200 107.5" height="107.5mm" width="200mm"><path fill="#1588ee" d="M0 2.5h30v15H0z"/><path fill="#a55693" d="M0 37.5h30v15H0z"/><path fill="#cfaf99" d="M0 20h30v15H0z"/><path fill="#fae562" d="M0 55h30v15H0z"/><path fill="#ff3e37" d="M0 72.5h30v15H0z"/><path fill="#98d764" d="M0 90h30v15H0z"/><path fill="#0b46dd" d="M30 2.5h112v15H30z"/><path fill="#950f61" d="M30 37.5h112v15H30z"/><path fill="#af8862" d="M30 20h112v15H30z"/><path fill="#f89d0e" d="M30 55h112v15H30z"/><path fill="#de0a0a" d="M30 72.5h112v15H30z"/><path fill="#69a820" d="M30 90h112v15H30z"/><path fill="#082ca2" d="M142 2.5h58v15h-58z"/><path fill="#65194f" d="M142 37.5h58v15h-58z"/><path fill="#8c603a" d="M142 20h58v15h-58z"/><path fill="#f8760e" d="M142 55h58v15h-58z"/><path fill="#b10a0a" d="M142 72.5h58v15h-58z"/><path fill="#347616" d="M142 90h58v15h-58z"/><path d="M142 0v107.5" fill="#fff" stroke="#fff" stroke-width=".568" stroke-dasharray="2.27156334,2.27156334"/><path d="M30 0v107.5" fill="#fff" stroke="#fff" stroke-width=".568" stroke-dasharray="2.27156337,2.27156337"/><text y="361.159" x="-348.439" style="line-height:1.25;-inkscape-font-specification:Bitter" font-weight="400" font-size="5.941" font-family="Bitter" letter-spacing="0" word-spacing="0" fill="#fff" stroke-width=".248" transform="translate(398.41 -261.585)"><tspan dx="0 0 0 0 0 0 0 0" style="-inkscape-font-specification:Bitter" y="361.159" x="-348.439">Environmental Responsibility</tspan></text><text y="343.6" x="-348.439" style="line-height:1.25;-inkscape-font-specification:Bitter" font-weight="400" font-size="5.941" font-family="Bitter" letter-spacing="0" word-spacing="0" fill="#fff" stroke-width=".248" transform="translate(398.41 -261.585)"><tspan style="-inkscape-font-specification:Bitter" y="343.6" x="-348.439">Working Conditions</tspan></text><text y="326.099" x="-348.439" style="line-height:1.25;-inkscape-font-specification:Bitter" font-weight="400" font-size="5.941" font-family="Bitter" letter-spacing="0" word-spacing="0" fill="#fff" stroke-width=".248" transform="translate(398.41 -261.585)"><tspan style="-inkscape-font-specification:Bitter" y="326.099" x="-348.439">Community Wellbeing</tspan></text><text y="308.599" x="-348.35" style="line-height:1.25;-inkscape-font-specification:Bitter" font-weight="400" font-size="5.941" font-family="Bitter" letter-spacing="0" word-spacing="0" fill="#fff" stroke-width=".248" transform="translate(398.41 -261.585)"><tspan style="-inkscape-font-specification:Bitter" y="308.599" x="-348.35">Lifecycle Management</tspan></text><text y="291.225" x="-348.439" style="line-height:1.25;-inkscape-font-specification:Bitter" font-weight="400" font-size="5.941" font-family="Bitter" letter-spacing="0" word-spacing="0" fill="#fff" stroke-width=".248" transform="translate(398.41 -261.585)"><tspan style="-inkscape-font-specification:Bitter" y="291.225" x="-348.439">Business Conduct</tspan></text><text y="273.718" x="-348.439" style="line-height:1.25;-inkscape-font-specification:Bitter" font-weight="400" font-size="5.941" font-family="Bitter" letter-spacing="0" word-spacing="0" fill="#fff" stroke-width=".248" transform="translate(398.41 -261.585)"><tspan dx="0" style="-inkscape-font-specification:Bitter" y="273.718" x="-348.439">Economic Development</tspan></text><path d="M34.126 2.683V17.5h14.817V2.683H34.126" fill="#0b46dd"/><path d="M33.38 15.804l6.728-7.175 1.918 3.251 4.877-5.409" fill="none" stroke="#fff" stroke-width="1.0440121900000001" stroke-linejoin="round" stroke-miterlimit="10"/><path d="M47.928 5.305l-2.01.33L47.81 7.34z" fill="#fff"/><path d="M33.228 20.183V35h14.817V20.183H33.228" fill="#af8862"/><path d="M35.268 24.049c-.149.004-.294.148-.293.293l-1.908 3.375a.302.302 0 0 0 .202.275c.303.101 2.529 1.176 2.779 1.38-.055.08-.106.163-.156.253a.304.304 0 0 0 .087.385l2.495 1.761c.321.227.626.349 1.05.349.29 0 .552-.087.78-.234.272.145.688.38 1.127.38.292 0 .604-.065.879-.18.217-.09.368-.203.564-.34l2.34-1.641c.236-.161.486-.345.715-.471.538-.293 1.174-.498 1.785-.77a.3.3 0 0 0 .174-.266v-4.256a.287.287 0 0 0-.293-.293.362.362 0 0 0-.182.053l-1.465.8c-.983-.296-2.036-.705-3.05-.707-.508 0-.987.185-1.425.574-.348-.39-.87-.574-1.362-.574-1.127 0-1.933.341-3.192.707l-1.48-.805a.358.358 0 0 0-.171-.048zm4.843.733c.342 0 .723.158.94.404l-1.587 1.587a.302.302 0 0 0-.055.344c.138.261.294.507.5.701.206.194.479.34.789.34.83 0 1.56-.59 2.04-1.046l2.215 2.458-2.343 1.643c-.14.112-.304.217-.453.293-.21.095-.513.173-.726.173-.131 0-.414-.112-.67-.229a2.25 2.25 0 0 0 .363-.715.302.302 0 0 0-.11-.326l-2.935-2.054a.296.296 0 0 0-.17-.05c-.516 0-1.04.198-1.48.618-.25-.2-2.275-1.173-2.59-1.306l1.723-2.78 1.178.642a.297.297 0 0 0 .22.023c1.371-.389 2.109-.72 3.15-.72zm2.788 0c.878.002 1.946.412 2.999.72a.297.297 0 0 0 .225-.023l1.178-.642v3.564c-.594.25-1.255.464-1.857.839L43 26.52c-.083-.086-.167-.125-.248-.123-.08.001-.159.044-.243.119-.434.426-1.225 1.055-1.811 1.055-.142 0-.255-.056-.386-.18-.09-.084-.174-.235-.261-.375l1.74-1.75c.37-.366.697-.484 1.108-.484zM37.832 28.9l2.645 1.853c-.193.427-.568.78-.953.78-.341 0-.43-.045-.711-.243l-2.256-1.592c.379-.553.816-.776 1.275-.798" fill="#fff"/><path d="M35.268 24.049c-.149.004-.294.148-.293.293l-1.908 3.375a.302.302 0 0 0 .202.275c.303.101 2.529 1.176 2.779 1.38-.055.08-.106.163-.156.253a.304.304 0 0 0 .087.385l2.495 1.761c.321.227.626.349 1.05.349.29 0 .552-.087.78-.234.272.145.688.38 1.127.38.292 0 .604-.065.879-.18.217-.09.368-.203.564-.34l2.34-1.641c.236-.161.486-.345.715-.471.538-.293 1.174-.498 1.785-.77a.3.3 0 0 0 .174-.266v-4.256a.287.287 0 0 0-.293-.293.362.362 0 0 0-.182.053l-1.465.8c-.983-.296-2.036-.705-3.05-.707-.508 0-.987.185-1.425.574-.348-.39-.87-.574-1.362-.574-1.127 0-1.933.341-3.192.707l-1.48-.805a.358.358 0 0 0-.171-.048zm4.843.733c.342 0 .723.158.94.404l-1.587 1.587a.302.302 0 0 0-.055.344c.138.261.294.507.5.701.206.194.479.34.789.34.83 0 1.56-.59 2.04-1.046l2.215 2.458-2.343 1.643c-.14.112-.304.217-.453.293-.21.095-.513.173-.726.173-.131 0-.414-.112-.67-.229a2.25 2.25 0 0 0 .363-.715.302.302 0 0 0-.11-.326l-2.935-2.054a.296.296 0 0 0-.17-.05c-.516 0-1.04.198-1.48.618-.25-.2-2.275-1.173-2.59-1.306l1.723-2.78 1.178.642a.297.297 0 0 0 .22.023c1.371-.389 2.109-.72 3.15-.72zm2.788 0c.878.002 1.946.412 2.999.72a.297.297 0 0 0 .225-.023l1.178-.642v3.564c-.594.25-1.255.464-1.857.839L43 26.52c-.083-.086-.167-.125-.248-.123-.08.001-.159.044-.243.119-.434.426-1.225 1.055-1.811 1.055-.142 0-.255-.056-.386-.18-.09-.084-.174-.235-.261-.375l1.74-1.75c.37-.366.697-.484 1.108-.484zM37.832 28.9l2.645 1.853c-.193.427-.568.78-.953.78-.341 0-.43-.045-.711-.243l-2.256-1.592c.379-.553.816-.776 1.275-.798z" fill="none" stroke="#fff" stroke-width=".13332566" stroke-miterlimit="10"/><g><path d="M33 37.683V52.5h14.817V37.683H33" fill="#950f61"/><path d="M36.2 46.3a4.249 4.249 0 0 0 8.35.051" fill="none" stroke="#fff" stroke-width="1.04896701" stroke-linejoin="round" stroke-miterlimit="10"/><path d="M36.056 45.268l-.917 1.61 2.288-.363z" fill="#fff"/><path d="M44.485 43.816a4.248 4.248 0 0 0-8.34.113" fill="none" stroke="#fff" stroke-width="1.04896701" stroke-linejoin="round" stroke-miterlimit="10"/><path d="M44.445 44.868l1-1.56-2.303.243z" fill="#fff"/></g><g><path d="M33 54.998v14.817h14.817V54.998H33" fill="#f89d0e"/><path d="M45.102 65.863v-2.489c0-.913-.614-1.68-1.437-1.889.58-.335.972-.974.972-1.709 0-1.082-.85-1.96-1.9-1.96-1.049 0-1.9.878-1.9 1.96 0 .735.393 1.374.974 1.71-.825.208-1.44.975-1.44 1.888v.685a1.36 1.36 0 0 0-.587.083 1.68 1.68 0 0 0-1.171-1.173c.472-.29.789-.82.789-1.427 0-.917-.721-1.66-1.61-1.66-.89 0-1.611.743-1.611 1.66 0 .608.317 1.138.79 1.427a1.7 1.7 0 0 0-1.24 1.652V68.098c0 .209.164.377.366.377a.371.371 0 0 0 .365-.377V64.62c0-.525.414-.953.923-.953h.812c.469 0 .863.362.918.84.004.038.007.075.007.113v.042a1.47 1.47 0 0 0-.26.838c0 .313.096.602.26.838v.303c-.329.25-.533.633-.559 1.057-.002.03-.006.06-.006.091v1.721c0 .208.164.377.365.377a.371.371 0 0 0 .366-.377V67.79a.676.676 0 0 1 .594-.673.567.567 0 0 1 .062-.004h.641c.022 0 .042.002.062.004h.012a.673.673 0 0 1 .583.672v1.835c0 .208.163.377.365.377a.371.371 0 0 0 .365-.377V67.79c0-.533-.292-1.01-.727-1.256.26-.263.422-.629.422-1.034a1.46 1.46 0 0 0-.564-1.159v-.967c0-.658.519-1.193 1.157-1.193h.956c.637 0 1.155.535 1.155 1.193v4.941c0 .208.164.377.365.377a.371.371 0 0 0 .366-.377v-1.349zm-7.31-3.414c-.486 0-.88-.407-.88-.907s.394-.907.88-.907c.484 0 .879.407.879.907s-.395.907-.88.907zm2.472 3.744a.684.684 0 0 1-.672-.693c0-.382.302-.693.672-.693.371 0 .673.31.673.693a.684.684 0 0 1-.673.693zm2.474-5.212c-.645 0-1.17-.54-1.17-1.205s.525-1.205 1.17-1.205c.644 0 1.168.54 1.168 1.205 0 .664-.524 1.205-1.168 1.205" fill="#fff"/></g><g><path d="M33 72.683V87.5h14.817V72.683H33" fill="#de0a0a"/><path d="M35.66 81.255v.623c0 .004-.465.008-.465.008a.465.465 0 0 0-.465.465v1.395c0 .257.124.399.465.465 5.588 1.083 10.229 0 10.229 0a.465.465 0 0 0 .465-.465V82.35a.465.465 0 0 0-.465-.465h-.457c-.005 0-.008-.731-.008-.731 0-2.142-1.052-3.991-2.792-4.71a1.134 1.134 0 0 0-1.131-1.068h-1.453c-.603 0-1.097.472-1.132 1.066-1.726.707-2.791 2.647-2.791 4.812zm9.299 2.026s-4.55.844-9.3 0c-.037-.007 0-.465 0-.465a.938.938 0 0 0 .93-.938v-.623c0-1.922.978-3.587 2.461-4.039.196-.06.33-.24.33-.444v-.262c0-.112.09-.203.203-.203h1.453c.112 0 .203.09.203.203v.262c0 .202.131.381.324.443 1.512.48 2.466 2.047 2.466 3.94v.723c0 .515.415.933.93.938v.465" fill="#fff"/><path d="M38.45 76.772v.93a.465.465 0 1 0 .93 0v-.93a.465.465 0 1 0-.93 0M41.24 77.016v1.419a.465.465 0 1 0 .93 0v-1.419a.465.465 0 1 0-.93 0" fill="#fff"/><path d="M40.506 82.985a1.638 1.638 0 1 0-.228-3.27 1.638 1.638 0 0 0 .228 3.27z" fill="none" stroke="#fff" stroke-width=".85967609" stroke-linejoin="round" stroke-miterlimit="10"/></g><g><path d="M33 90.102v14.817h14.817V90.102H33" fill="#69a820"/><path d="M41.239 102.219s-4.647 2.034-5.41-2.525c-.4-2.395 2.382-3.972 5.21-5.369a256.966 256.966 0 0 0 4.287-2.17s-.774 4.049-1.884 7.22c-.56 1.601-1.202 2.285-2.203 2.844z" fill="none" stroke="#fff" stroke-width=".9496161999999999" stroke-linejoin="round" stroke-miterlimit="10"/><path d="M36.008 104.64s1.735-3.271 5.412-7.33" fill="none" stroke="#fff" stroke-width=".8683062699999999" stroke-linecap="round" stroke-linejoin="round" stroke-miterlimit="10"/></g></svg>