<svg xmlns="http://www.w3.org/2000/svg" viewBox="0 0 600.88831 358.06116" height="358.061" width="600.888"><defs><clipPath id="a"><path d="M388.066 81.281H4578.76V2151.33H388.066z"/></clipPath><clipPath id="b"><path d="M388.066 81.281H4578.76V2151.33H388.066z"/></clipPath><clipPath id="c"><path d="M1457.5 192.16h1729.94v139.27H1457.5z"/></clipPath><clipPath id="d"><path d="M1457.5 530.281h1161.98v139.27H1457.5z"/></clipPath><clipPath id="e"><path d="M1457.5 867.27h1300.52v139.26H1457.5z"/></clipPath><clipPath id="f"><path d="M1459.22 1204.25h1298.8v139.27h-1298.8z"/></clipPath><clipPath id="g"><path d="M1457.5 1538.8h1012.26v139.27H1457.5z"/></clipPath><clipPath id="h"><path d="M1457.5 1875.93h1353.04v139.28H1457.5z"/></clipPath><clipPath id="i"><path d="M388.066 81.281H4578.76V2151.33H388.066z"/></clipPath></defs><path d="M5.467 6.605c1.264 0 1.998-.608 1.998-1.68 0-.912-.607-1.568-1.599-1.568h-1.31v3.248zm-4.59 4.748l1.2-.478V3.357l-1.2-.478v-1.36l3.678-.079h1.216c2.623 0 4.158 1.087 4.158 3.261 0 1.504-.72 2.479-1.808 3.023.176.208.415.51.672 1.04l1.072 2.19 1.087.4v1.36H7.994L6.65 9.753c-.543-1.214-.688-1.47-1.535-1.47h-.56v2.59l1.152.48v1.36H.877v-1.36M11.678 11.353l1.199-.478V3.357l-1.2-.478v-1.36l4.127-.079 2.398 5.324 2.51-5.245 3.838-.079v1.439l-1.151.478v7.518l1.199.478v1.36h-4.764v-1.36l1.246-.478V4.86l-.431 1.055-1.808 3.759-1.726.08-1.84-3.791-.27-.83v5.74l1.23.48v1.36h-4.557v-1.36M25.805 11.353l1.2-.478V3.357l-1.2-.478v-1.36l4.878-.079v1.439l-1.2.478v7.518l1.2.478v1.36h-4.878v-1.36M39.418 9.083c-1.247 0-1.744.321-1.744 1.04 0 .606.337.958.945.958.848 0 1.71-.926 1.71-.926V9.083zm1.024 2.592s-1.232 1.198-2.591 1.198c-1.551 0-2.495-.912-2.495-2.51 0-1.888 1.424-2.639 3.854-2.639h1.12v-.88c0-.816-.433-1.167-1.232-1.167-.815 0-1.406.239-1.406.239l-.241 1.008h-1.439L35.9 4.559s1.935-.642 3.47-.642c2.431 0 3.358.848 3.358 3.167v3.95l1.2.289V12.6l-3.199.112-.287-1.038M48.395 5.181s1.518-1.23 2.94-1.23c1.554 0 2.432 1.102 2.432 2.845v4.237l1.12.4v1.28H50.49v-1.28l.879-.4V7.23c0-.736-.416-1.281-1.087-1.281-.992 0-1.711.912-1.711.912v4.173l.879.4v1.28h-4.558v-1.28l1.28-.4V5.837l-1.28-.4V4.16l3.39-.082.113 1.104M59.994 9.083c-1.248 0-1.742.321-1.742 1.04 0 .606.336.958.942.958.848 0 1.711-.926 1.711-.926V9.083zm1.023 2.592s-1.23 1.198-2.59 1.198c-1.55 0-2.494-.912-2.494-2.51 0-1.888 1.423-2.639 3.853-2.639h1.12v-.88c0-.816-.432-1.167-1.232-1.167-.816 0-1.407.239-1.407.239l-.24 1.008H56.59l-.112-2.365s1.935-.642 3.47-.642c2.43 0 3.358.848 3.358 3.167v3.95l1.2.289V12.6l-3.2.112-.288-1.038M70.362 11.433v1.28h-5.134v-1.28l1.28-.4V2.047l-1.28-.32V.448L68.922.32v10.713l1.44.4M70.525 4.159l4.27-.082v1.36l-.896.16 1.423 4.478 1.36-4.43-.928-.208V4.16l4.301-.082v1.36l-.991.208-2.352 6.556c-.767 2.111-1.806 4.35-4.348 4.35-.545 0-1.552-.128-1.552-.128l.224-1.711h1.04c1.279 0 1.87-1.36 2.143-1.983l-2.846-7.036-.848-.256V4.16M86.873 11.881c-.784.575-1.679.992-2.719.992-1.838 0-2.366-1.28-2.366-3.118V6.076H80.3v-1.55l1.488-.209V2.112l2.398-.432v2.637h2.238v1.759h-2.238v3.519c0 1.022.176 1.438.848 1.438.431 0 1.055-.254 1.263-.366l.576 1.214M89.962 0c.833 0 1.344.432 1.344 1.44 0 .943-.687 1.453-1.344 1.453-.862 0-1.374-.51-1.374-1.453 0-.912.656-1.44 1.374-1.44zm2.432 11.433v1.28h-4.798v-1.28l1.279-.4V5.837l-1.279-.4V4.16l3.677-.082v6.956l1.12.4M101.032 11.513c-.4.352-1.648 1.36-3.438 1.36-2.64 0-4.158-1.632-4.158-4.35 0-2.846 1.6-4.606 4.398-4.606 1.374 0 2.798.56 2.798.56l-.08 2.623h-1.44l-.223-1.136s-.465-.127-1.104-.127c-1.15 0-1.871.768-1.871 2.367 0 1.743.672 2.75 1.999 2.75 1.12 0 1.823-.56 2.32-.847l.799 1.406M105.978 9.083c-1.247 0-1.744.321-1.744 1.04 0 .606.337.958.945.958.848 0 1.71-.926 1.71-.926V9.083zm1.024 2.592s-1.232 1.198-2.592 1.198c-1.55 0-2.494-.912-2.494-2.51 0-1.888 1.424-2.639 3.854-2.639h1.12v-.88c0-.816-.433-1.167-1.232-1.167-.815 0-1.406.239-1.406.239l-.241 1.008h-1.44l-.111-2.365s1.935-.642 3.47-.642c2.431 0 3.358.848 3.358 3.167v3.95l1.2.289V12.6l-3.198.112-.288-1.038M116.345 11.433v1.28h-5.133v-1.28l1.28-.4V2.047l-1.28-.32V.448l3.694-.128v10.713l1.44.4M121.899 3.517c0-2.029 1.167-3.389 3.437-3.389 1.728 0 2.831.592 2.831.592l-.048 2.35h-1.439l-.24-1.12s-.384-.062-.912-.062c-.88 0-1.23.527-1.23 1.357v.992h2.078l-.048 1.6h-2.03v5.196l1.598.4v1.28h-5.277v-1.28l1.28-.4V5.837h-1.44v-1.36l1.44-.24v-.72" fill="#e1e1e1"/><path d="M131.274 5.181s1.15-1.264 2.222-1.264c.879 0 1.487.288 1.487.288l-.127 3.071h-1.441l-.239-1.36c-.928 0-1.726.896-1.726.896v4.221l1.598.4v1.28h-5.277v-1.28l1.28-.4V5.837l-1.28-.4V4.16l3.359-.082.144 1.104M139.768 9.083c-1.246 0-1.742.321-1.742 1.04 0 .606.336.958.944.958.846 0 1.71-.926 1.71-.926V9.083zm1.024 2.592s-1.23 1.198-2.59 1.198c-1.551 0-2.495-.912-2.495-2.51 0-1.888 1.424-2.639 3.855-2.639h1.118v-.88c0-.816-.432-1.167-1.23-1.167-.816 0-1.408.239-1.408.239l-.239 1.008h-1.44l-.112-2.365s1.936-.642 3.47-.642c2.43 0 3.36.848 3.36 3.167v3.95l1.198.289V12.6l-3.199.112-.288-1.038M160.163 12.713h-4.333v-1.28l.848-.4V7.23c0-.881-.258-1.313-.93-1.313-1.038 0-1.774.832-1.774.832v4.285l.832.4v1.28h-4.062v-1.28l.832-.4V7.23c0-.881-.224-1.313-.912-1.313-1.038 0-1.792.832-1.792.832v4.285l.848.4v1.28h-4.476v-1.28l1.23-.4V5.837l-1.215-.4V4.16l3.343-.082.112 1.136s1.39-1.296 2.798-1.296c1.135 0 1.839.53 2.207 1.375.27-.27 1.472-1.375 2.895-1.375 1.678 0 2.462 1.088 2.462 2.879v4.237l1.087.4v1.28M166.552 7.436c0-.912-.384-1.599-1.31-1.599-.896 0-1.456.656-1.584 1.599zm-2.926 1.487c.096 1.28.832 2.03 1.934 2.03 1.328 0 2.688-.75 2.688-.75l.687 1.326s-1.599 1.344-3.645 1.344c-2.752 0-4.158-1.598-4.158-4.317 0-2.799 1.582-4.639 4.27-4.639 2.382 0 3.629 1.472 3.629 3.758 0 .609-.096 1.201-.096 1.248h-5.31M179.43 5.437V4.16l4.094-.082v1.36l-.848.191-2.126 7.085h-2.447l-1.263-4.078-.288-1.247-.4 1.743-1.168 3.582h-2.43l-2.175-7.052-.703-.224V4.16l4.188-.082v1.36l-1.005.191 1.055 4.495 1.694-5.774L177.72 4l1.744 6.124.943-4.446-.976-.24M186.346 8.396c0 1.759.512 2.557 1.68 2.557 1.15 0 1.71-.718 1.71-2.637 0-1.632-.481-2.479-1.632-2.479-1.166 0-1.758.639-1.758 2.559zm5.868-.161c0 2.88-1.679 4.638-4.27 4.638-2.606 0-4.077-1.36-4.077-4.398 0-2.878 1.712-4.558 4.319-4.558 2.589 0 4.028 1.568 4.028 4.318M196.842 5.181s1.15-1.264 2.222-1.264c.879 0 1.487.288 1.487.288l-.128 3.071h-1.44l-.239-1.36c-.928 0-1.726.896-1.726.896v4.221l1.598.4v1.28h-5.277v-1.28l1.28-.4V5.837l-1.28-.4V4.16l3.357-.082.146 1.104M205.69 7.292l1.086-1.63-.704-.225V4.16l4.126-.082v1.36l-1.119.208-1.488 2.095 1.792 3.31 1.215.383v1.28h-2.959l-1.983-3.902h-1.022v2.222l.88.4v1.28h-4.559v-1.28l1.28-.4V2.047l-1.28-.32V.448l3.679-.128v6.972h1.056M255.807 35.499v-8.112h2.452l1.473 5.533 1.455-5.533h2.456v8.112h-1.52v-6.386l-1.61 6.386h-1.578l-1.605-6.386V35.5h-1.523M268.751 32.056c-.01-.45-.125-.792-.347-1.027a1.07 1.07 0 0 0-.809-.352c-.34 0-.62.124-.841.372-.222.247-.331.583-.327 1.007zm-.088 1.572l1.55.26c-.2.568-.514 1.001-.943 1.297-.43.298-.967.446-1.614.446-1.021 0-1.778-.334-2.269-1.002-.387-.534-.581-1.21-.581-2.025 0-.975.256-1.737.765-2.288.51-.552 1.152-.828 1.93-.828.874 0 1.565.29 2.07.867.505.577.747 1.461.725 2.653H266.4c.012.461.136.82.376 1.076.24.257.539.385.898.385a.955.955 0 0 0 .613-.2c.167-.133.292-.346.376-.641M274.804 32.675a9.07 9.07 0 0 1-.945.238c-.432.092-.715.184-.847.272-.202.144-.304.326-.304.547 0 .219.082.407.244.565a.847.847 0 0 0 .62.238c.28 0 .547-.091.802-.276a.983.983 0 0 0 .372-.515c.04-.132.058-.385.058-.759zm-2.08-1.26l-1.41-.255c.158-.568.432-.988.82-1.261.386-.274.961-.411 1.725-.411.693 0 1.21.083 1.55.247.34.164.578.373.717.625.137.253.206.716.206 1.392l-.016 1.816c0 .515.026.896.075 1.141.05.247.143.51.28.79h-1.539a5.694 5.694 0 0 1-.15-.46 2.367 2.367 0 0 0-.055-.183c-.265.259-.55.452-.852.581a2.46 2.46 0 0 1-.968.194c-.605 0-1.081-.164-1.43-.492-.35-.328-.525-.743-.525-1.246 0-.333.08-.628.239-.888.159-.26.381-.458.667-.598.286-.138.698-.259 1.237-.362.727-.137 1.23-.264 1.51-.381v-.156c0-.299-.073-.51-.222-.639-.147-.128-.425-.192-.835-.192-.277 0-.493.055-.648.164-.154.11-.28.3-.376.574M277.318 33.821l1.561-.237c.067.303.201.53.404.69.203.155.487.234.852.234.401 0 .705-.073.907-.221a.495.495 0 0 0 .206-.416.42.42 0 0 0-.11-.294c-.079-.072-.252-.141-.522-.204-1.254-.276-2.049-.529-2.385-.758-.465-.318-.697-.758-.697-1.323 0-.508.201-.937.604-1.284.401-.345 1.025-.52 1.87-.52.803 0 1.402.132 1.794.393.39.262.66.65.806 1.163l-1.466.27a.898.898 0 0 0-.356-.525c-.176-.121-.427-.182-.751-.182-.41 0-.703.057-.88.172a.367.367 0 0 0-.177.314c0 .111.052.204.156.283.14.103.624.25 1.452.437.829.188 1.406.419 1.734.692.326.276.487.662.487 1.156 0 .539-.225 1.002-.673 1.39-.451.386-1.116.58-1.999.58-.8 0-1.435-.163-1.9-.487a2.244 2.244 0 0 1-.917-1.323M288.038 35.499v-.882a2.262 2.262 0 0 1-.844.743c-.348.181-.718.27-1.104.27-.395 0-.748-.086-1.063-.26a1.536 1.536 0 0 1-.68-.73c-.141-.313-.21-.747-.21-1.301V29.62h1.555v2.701c0 .827.028 1.334.086 1.52a.837.837 0 0 0 .312.443c.152.11.342.163.576.163.265 0 .502-.072.713-.218.21-.146.355-.328.43-.544.08-.216.118-.744.118-1.585v-2.48h1.555v5.879h-1.444M292.582 35.499h-1.556V29.62h1.445v.836c.247-.393.468-.655.667-.779.196-.125.421-.189.67-.189.355 0 .696.099 1.026.293l-.482 1.356c-.262-.169-.505-.253-.73-.253a.869.869 0 0 0-.554.179c-.152.12-.27.336-.357.65-.087.314-.13.97-.13 1.97v1.816M298.995 32.056c-.012-.45-.128-.792-.35-1.027a1.069 1.069 0 0 0-.807-.352c-.339 0-.62.124-.842.372-.221.247-.329.583-.325 1.007zm-.088 1.572l1.55.26c-.2.568-.515 1.001-.945 1.297-.43.298-.968.446-1.613.446-1.023 0-1.777-.334-2.268-1.002-.388-.534-.583-1.21-.583-2.025 0-.975.256-1.737.764-2.288.51-.552 1.154-.828 1.932-.828.875 0 1.564.29 2.07.867.505.577.746 1.461.724 2.653h-3.896c.012.461.137.82.377 1.076.24.257.539.385.896.385a.959.959 0 0 0 .615-.2c.165-.133.292-.346.377-.641M301.69 29.62h1.433v.804c.513-.624 1.124-.936 1.832-.936.376 0 .703.077.979.233.277.155.504.39.681.703.257-.313.536-.548.836-.703.297-.156.617-.233.957-.233.431 0 .796.088 1.095.263.3.176.523.433.67.772.107.252.16.657.16 1.217v3.759h-1.554v-3.36c0-.582-.055-.959-.161-1.128-.144-.222-.366-.334-.664-.334-.218 0-.423.067-.614.2-.193.134-.33.328-.416.584-.084.258-.126.662-.126 1.214v2.824h-1.555v-3.222c0-.572-.028-.94-.084-1.106a.7.7 0 0 0-.257-.371c-.116-.081-.274-.123-.474-.123a1.13 1.13 0 0 0-.646.195 1.06 1.06 0 0 0-.414.559c-.082.244-.122.648-.122 1.212v2.856h-1.556V29.62M315.375 32.056c-.012-.45-.127-.792-.35-1.027a1.069 1.069 0 0 0-.807-.352c-.339 0-.62.124-.842.372-.221.247-.329.583-.325 1.007zm-.088 1.572l1.55.26c-.2.568-.515 1.001-.945 1.297-.429.298-.968.446-1.613.446-1.023 0-1.777-.334-2.268-1.002-.388-.534-.583-1.21-.583-2.025 0-.975.256-1.737.764-2.288.51-.552 1.154-.828 1.932-.828.875 0 1.566.29 2.07.867.505.577.746 1.461.724 2.653h-3.895c.01.461.136.82.376 1.076.24.257.539.385.897.385a.961.961 0 0 0 .615-.2c.165-.133.29-.346.376-.641M323.531 35.499h-1.555v-3c0-.635-.033-1.046-.1-1.231a.874.874 0 0 0-.322-.435.921.921 0 0 0-.54-.156c-.27 0-.511.075-.724.222-.215.149-.362.344-.44.588-.08.242-.12.693-.12 1.35V35.5h-1.555V29.62h1.444v.865c.513-.664 1.159-.997 1.937-.997.343 0 .656.063.94.187.284.122.499.281.644.472.147.192.248.41.306.653.057.244.085.592.085 1.047v3.652M327.804 29.62v1.24h-1.062v2.37c0 .48.009.758.029.838a.345.345 0 0 0 .139.196c.072.052.16.077.262.077.144 0 .354-.049.626-.149l.132 1.207c-.36.154-.771.232-1.228.232a1.96 1.96 0 0 1-.758-.14c-.225-.095-.39-.216-.496-.366a1.478 1.478 0 0 1-.218-.606c-.034-.18-.05-.547-.05-1.096V30.86h-.713v-1.24h.713v-1.167l1.562-.906v2.073h1.062M335.618 32.29l-1.119-3.011-1.095 3.01zm3.016 3.209h-1.783l-.71-1.843h-3.24l-.67 1.843h-1.739l3.16-8.112h1.732l3.25 8.112M340.979 35.499h-1.555V29.62h1.444v.836c.248-.393.47-.655.667-.779a1.23 1.23 0 0 1 .672-.189c.355 0 .696.099 1.025.293l-.482 1.356c-.262-.169-.504-.253-.73-.253a.869.869 0 0 0-.553.179c-.152.12-.272.336-.357.65-.087.314-.131.97-.131 1.97v1.816M347.394 32.056c-.012-.45-.128-.792-.35-1.027a1.069 1.069 0 0 0-.808-.352c-.338 0-.62.124-.841.372-.221.247-.33.583-.325 1.007zm-.09 1.572l1.551.26c-.2.568-.515 1.001-.944 1.297-.43.298-.968.446-1.613.446-1.023 0-1.778-.334-2.27-1.002-.388-.534-.581-1.21-.581-2.025 0-.975.255-1.737.764-2.288.51-.552 1.152-.828 1.93-.828.877 0 1.566.29 2.071.867.506.577.747 1.461.724 2.653h-3.896c.012.461.138.82.376 1.076.242.257.54.385.898.385a.959.959 0 0 0 .614-.2c.166-.133.292-.346.376-.641M353.447 32.675a9.116 9.116 0 0 1-.947.238c-.43.092-.713.184-.846.272-.203.144-.304.326-.304.547 0 .219.081.407.242.565.163.159.371.238.62.238.282 0 .548-.091.804-.276a.977.977 0 0 0 .37-.515c.04-.132.061-.385.061-.759zm-2.081-1.26l-1.411-.255c.159-.568.432-.988.819-1.261.388-.274.964-.411 1.726-.411.694 0 1.211.083 1.55.247.34.164.578.373.717.625.139.253.207.716.207 1.392l-.016 1.816c0 .515.024.896.074 1.141.05.247.143.51.279.79h-1.537a5.798 5.798 0 0 1-.15-.46c-.026-.092-.044-.152-.054-.183a2.8 2.8 0 0 1-.854.581 2.456 2.456 0 0 1-.968.194c-.605 0-1.082-.164-1.43-.492-.348-.328-.523-.743-.523-1.246 0-.333.079-.628.237-.888.16-.26.382-.458.667-.598.285-.138.699-.259 1.237-.362.727-.137 1.231-.264 1.511-.381v-.156c0-.299-.075-.51-.221-.639-.147-.128-.426-.192-.836-.192-.276 0-.492.055-.647.164-.156.11-.28.3-.377.574M355.96 33.821l1.56-.237c.066.303.202.53.404.69.203.155.488.234.852.234.403 0 .704-.073.908-.221a.496.496 0 0 0 .204-.416.408.408 0 0 0-.11-.294c-.078-.072-.251-.141-.52-.204-1.255-.276-2.05-.529-2.386-.758-.464-.318-.696-.758-.696-1.323 0-.508.2-.937.603-1.284.403-.345 1.025-.52 1.87-.52.805 0 1.402.132 1.793.393.392.262.66.65.808 1.163l-1.466.27a.907.907 0 0 0-.358-.525c-.175-.121-.424-.182-.748-.182-.411 0-.704.057-.88.172a.364.364 0 0 0-.178.314c0 .111.051.204.155.283.14.103.624.25 1.452.437.828.188 1.408.419 1.736.692.324.276.487.662.487 1.156 0 .539-.226 1.002-.676 1.39-.45.386-1.116.58-1.998.58-.801 0-1.433-.163-1.901-.487a2.24 2.24 0 0 1-.915-1.323M8.112 259.242h-6.74v2.407H0v-6.445h1.373v2.4h6.739v1.638M0 252.607h2.982c-.586-.502-.88-1.102-.88-1.798 0-.358.067-.681.2-.97.133-.287.303-.503.508-.648a1.86 1.86 0 0 1 .688-.3c.25-.052.639-.079 1.166-.079h3.448v1.555H5.008c-.616 0-1.007.029-1.173.088a.761.761 0 0 0-.396.312c-.097.15-.147.337-.147.56 0 .26.063.49.189.694.125.203.314.351.566.446.253.093.626.14 1.121.14h2.944v1.554H0v-1.554M4.67 243.742c-.45.011-.792.127-1.027.349a1.07 1.07 0 0 0-.351.808c0 .338.124.62.371.84.247.222.583.332 1.006.326zm1.572.088l.26-1.549c.569.199 1 .514 1.298.943.296.43.445.968.445 1.613 0 1.023-.333 1.778-1.001 2.27-.536.386-1.211.58-2.026.58-.974 0-1.737-.255-2.288-.763-.552-.51-.828-1.153-.828-1.932 0-.875.29-1.565.867-2.07.577-.505 1.46-.746 2.654-.723v3.894c.46-.01.819-.136 1.075-.376a1.18 1.18 0 0 0 .386-.897.957.957 0 0 0-.2-.615c-.133-.165-.348-.29-.642-.375M2.234 241.047v-1.434h.804c-.623-.513-.936-1.124-.936-1.832 0-.376.078-.702.233-.978.155-.278.39-.504.703-.681a2.72 2.72 0 0 1-.703-.837 2.056 2.056 0 0 1-.233-.957c0-.432.089-.796.263-1.096.176-.299.433-.521.772-.67.252-.106.658-.16 1.218-.16h3.757v1.555h-3.36c-.581 0-.957.054-1.128.16-.221.144-.332.366-.332.664 0 .219.066.423.2.615.132.193.327.33.584.416.256.084.662.127 1.214.127h2.822v1.554H4.891c-.572 0-.94.028-1.107.084a.697.697 0 0 0-.37.257c-.082.117-.122.274-.122.474 0 .239.065.455.194.647.13.192.315.33.559.413.243.083.648.123 1.212.123h2.855v1.556H2.234M5.29 227.61c.067.2.145.515.238.947.092.431.184.714.272.847.143.203.325.304.546.304a.766.766 0 0 0 .566-.244.848.848 0 0 0 .237-.62c0-.28-.092-.547-.276-.803a.978.978 0 0 0-.515-.369c-.132-.041-.385-.061-.758-.061zm-1.261 2.082l-.256 1.41c-.567-.16-.988-.431-1.261-.818-.273-.388-.41-.964-.41-1.727 0-.693.083-1.21.247-1.549.165-.34.373-.579.625-.717.253-.139.717-.207 1.392-.207l1.815.015c.516 0 .898-.023 1.142-.074.246-.049.51-.142.789-.28v1.539c-.103.04-.256.09-.46.15-.092.025-.151.045-.182.054.258.267.452.55.581.853.129.303.194.626.194.97 0 .604-.164 1.08-.492 1.429-.329.35-.744.523-1.245.523-.334 0-.629-.079-.89-.238a1.57 1.57 0 0 1-.597-.666c-.138-.286-.259-.7-.362-1.238-.137-.726-.264-1.23-.381-1.51h-.155c-.3 0-.512.074-.64.221-.127.148-.191.427-.191.835 0 .277.055.493.164.649.108.155.3.279.573.376M2.234 221.855h1.24v1.062h2.37c.479 0 .758-.01.837-.03a.336.336 0 0 0 .197-.138.443.443 0 0 0 .078-.264c0-.144-.05-.352-.15-.624l1.207-.133a3.1 3.1 0 0 1 .232 1.228c0 .281-.047.533-.14.757-.096.227-.216.391-.366.496-.15.107-.352.179-.606.219-.181.033-.547.05-1.097.05H3.474v.714h-1.24v-.713H1.068l-.908-1.562h2.074v-1.062M8.112 220.776H2.234v-1.555h5.878zm-6.674 0H0v-1.555h1.438v1.555M3.973 212.503l.278 1.534c-.308.051-.539.167-.693.351-.155.183-.232.42-.232.71 0 .387.132.697.401.929.267.229.715.344 1.34.344.7 0 1.19-.116 1.479-.351.288-.235.432-.548.432-.944 0-.295-.084-.537-.252-.724-.169-.188-.456-.32-.866-.399l.26-1.528c.7.159 1.23.463 1.588.914.359.45.537 1.053.537 1.81 0 .859-.271 1.544-.814 2.055-.541.51-1.292.768-2.251.768-.972 0-1.727-.259-2.267-.77-.54-.514-.811-1.207-.811-2.082 0-.715.155-1.284.462-1.705.309-.424.778-.727 1.409-.912M4.903 204.59l-3.01 1.118 3.01 1.096zm3.209-3.017v1.784l-1.842.708v3.243l1.842.67v1.735L0 206.555v-1.732l8.112-3.25M8.112 199.228v1.555H2.234v-1.444h.837c-.395-.247-.655-.468-.78-.667A1.23 1.23 0 0 1 2.1 198c0-.353.1-.695.295-1.024l1.356.481c-.17.262-.254.506-.254.731 0 .217.06.403.18.553.119.151.335.27.65.356.313.088.969.131 1.969.131h1.815M4.67 192.815c-.45.01-.792.125-1.027.346a1.073 1.073 0 0 0-.351.811c0 .339.124.62.371.841.247.222.583.33 1.006.326zm1.572.088l.26-1.55c.569.199 1 .515 1.298.944.296.43.445.966.445 1.612 0 1.023-.333 1.779-1.001 2.27-.536.386-1.211.581-2.026.581-.974 0-1.737-.255-2.288-.765-.552-.508-.828-1.151-.828-1.93 0-.874.29-1.565.867-2.07.577-.506 1.46-.747 2.654-.724v3.896c.46-.014.819-.138 1.075-.378.257-.24.386-.538.386-.896a.954.954 0 0 0-.2-.614c-.133-.167-.348-.292-.642-.376M5.29 186.76c.067.2.145.515.238.947.092.432.184.714.272.846.143.203.325.304.546.304a.77.77 0 0 0 .566-.242.85.85 0 0 0 .237-.62c0-.282-.092-.548-.276-.803a.973.973 0 0 0-.515-.37c-.132-.04-.385-.062-.758-.062zm-1.261 2.081l-.256 1.412c-.567-.16-.988-.433-1.261-.82-.273-.388-.41-.962-.41-1.726 0-.694.083-1.211.247-1.55.165-.34.373-.578.625-.717.253-.137.717-.207 1.392-.207l1.815.016c.516 0 .898-.024 1.142-.074.246-.05.51-.143.789-.279v1.537c-.103.042-.256.091-.46.151a3.038 3.038 0 0 0-.182.055c.258.265.452.549.581.852.129.302.194.625.194.968 0 .605-.164 1.082-.492 1.43-.329.35-.744.524-1.245.524-.334 0-.629-.08-.89-.238a1.562 1.562 0 0 1-.597-.667c-.138-.285-.259-.699-.362-1.237-.137-.727-.264-1.231-.381-1.511h-.155c-.3 0-.512.075-.64.223-.127.146-.191.425-.191.834 0 .276.055.494.164.648.108.155.3.28.573.376M6.435 184.248l-.237-1.561c.303-.066.531-.202.689-.404.156-.203.234-.487.234-.852 0-.402-.073-.704-.221-.907a.492.492 0 0 0-.416-.205.412.412 0 0 0-.292.11c-.073.078-.142.251-.204.52-.276 1.255-.53 2.05-.759 2.386-.317.465-.757.697-1.323.697-.509 0-.937-.201-1.283-.604-.347-.401-.521-1.025-.521-1.87 0-.803.131-1.402.393-1.793.262-.392.65-.66 1.163-.808l.27 1.467a.905.905 0 0 0-.525.357c-.121.175-.183.424-.183.75 0 .409.058.702.172.88a.37.37 0 0 0 .315.177c.11 0 .205-.052.283-.156.103-.14.249-.624.438-1.452.187-.828.417-1.407.69-1.735.277-.325.662-.486 1.157-.486.539 0 1.002.224 1.389.674.387.45.581 1.116.581 1.998 0 .801-.163 1.434-.487 1.901a2.242 2.242 0 0 1-1.323.916" fill="#e1e1e1"/><path d="M87.389 88.475h77.025v38.512H87.389V88.475" fill="#1588ee"/><path d="M87.389 178.337h77.025v38.514H87.389v-38.514" fill="#a55693"/><path d="M87.389 133.405h77.025v38.514H87.389v-38.514" fill="#cfaf99"/><path d="M87.389 223.267h77.025v38.514H87.389v-38.514" fill="#fae562"/><path d="M87.389 268.2h77.025v38.512H87.389V268.2" fill="#ff3e37"/><path d="M87.389 313.13h77.025v38.514H87.389V313.13" fill="#98d764"/><path d="M164.412 88.475h287.559v38.512H164.412V88.475" fill="#0b46dd"/><path d="M164.412 178.337h287.559v38.514H164.412v-38.514" fill="#950f61"/><path d="M164.412 133.405h287.559v38.514H164.412v-38.514" fill="#af8862"/><path d="M164.412 223.267h287.559v38.514H164.412v-38.514" fill="#f89d0e"/><path d="M164.412 268.2h287.559v38.512H164.412V268.2" fill="#de0a0a"/><path d="M164.412 313.13h287.559v38.512H164.412V313.13" fill="#69a820"/><path d="M451.972 126.985h148.916v-38.51H451.972v38.51" fill="#082ca2"/><path d="M451.972 216.85h148.916v-38.513H451.972v38.512" fill="#65194f"/><path d="M451.972 171.919h148.916v-38.514H451.972v38.514" fill="#8c603a"/><path d="M451.972 261.779h148.916v-38.514H451.972v38.514" fill="#f8760e"/><path d="M451.972 306.71h148.916V268.2H451.972v38.512" fill="#b10a0a"/><path d="M451.972 351.642h148.916V313.13H451.972v38.513" fill="#347616"/><path d="M451.971 82.055V358.06 82.055" fill="#fff"/><g clip-path="url(#a)" transform="matrix(.13333 0 0 -.13333 -9.613 368.899)"><path d="M3461.89 2151.33V81.29" fill="none" stroke="#fff" stroke-width="3.86" stroke-dasharray="15.43,15.43"/></g><path d="M164.412 82.055V358.06 82.055" fill="#fff"/><g clip-path="url(#b)" transform="matrix(.13333 0 0 -.13333 -9.613 368.899)"><path d="M1305.2 2151.33V81.29" fill="none" stroke="#fff" stroke-width="3.86" stroke-dasharray="15.43,15.43"/></g><g clip-path="url(#c)" fill="#fff" transform="matrix(.13333 0 0 -.13333 -9.613 368.899)"><path d="M1512.08 269.371h-23.12v-21.742h20.49l2.63 9.383h10.3v-23.114h-59.73v9.723l8.57 3.438v53.781l-8.57 3.441V314l26.31.582h32.05v-22.094h-10.31l-2.86 8.352h-18.88v-18.879h23.12v-12.59M1557.71 287.801s10.87 8.808 21.06 8.808c11.1 0 17.39-7.898 17.39-20.371V245.91l8.02-2.851v-9.161h-31.47v9.161l6.28 2.851v27.238c0 5.274-2.96 9.153-7.77 9.153-7.1 0-12.25-6.52-12.25-6.52V245.91l6.29-2.851v-9.161h-32.61v9.161l9.16 2.851v37.199l-9.16 2.86v9.16l24.26.562.8-7.89M1645 295.129l29.98.562v-9.722l-6.52-1.489-18.43-50.582h-18.88l-18.08 50.243-5.49 1.828v9.16l29.98.562v-9.722l-6.41-1.149 10.41-33.761 10.08 33.421-6.64 1.489v9.16M1696.46 324.871c5.96 0 9.62-3.082 9.62-10.289 0-6.762-4.92-10.422-9.62-10.422-6.18 0-9.84 3.66-9.84 10.422 0 6.52 4.7 10.289 9.84 10.289zm17.41-81.812v-9.161h-34.34v9.161l9.15 2.851v37.199l-9.15 2.86v9.16l26.32.562V245.91l8.02-2.851M1746.35 287.801s8.24 9.039 15.91 9.039c6.28 0 10.64-2.059 10.64-2.059l-.92-21.98h-10.3l-1.72 9.73c-6.63 0-12.35-6.41-12.35-6.41V245.91l11.44-2.851v-9.161h-37.77v9.161l9.16 2.851v37.199l-9.16 2.86v9.16l24.03.562 1.04-7.89M1795.19 264.789c0-12.578 3.66-18.309 12.02-18.309 8.24 0 12.24 5.149 12.24 18.891 0 11.668-3.43 17.738-11.68 17.738-8.35 0-12.58-4.578-12.58-18.32zm42 1.152c0-20.601-12.01-33.191-30.56-33.191-18.65 0-29.18 9.73-29.18 31.469 0 20.601 12.25 32.621 30.9 32.621 18.53 0 28.84-11.219 28.84-30.899M1870.23 287.801s10.87 8.808 21.06 8.808c11.1 0 17.39-7.898 17.39-20.371V245.91l8.02-2.851v-9.161h-31.48v9.161l6.29 2.851v27.238c0 5.274-2.97 9.153-7.77 9.153-7.1 0-12.25-6.52-12.25-6.52V245.91l6.29-2.851v-9.161h-32.61v9.161l9.16 2.851v37.199l-9.16 2.86v9.16l24.26.562.8-7.89M2030.3 233.898h-31.01v9.161l6.06 2.851v27.238c0 6.293-1.82 9.383-6.63 9.383-7.44 0-12.7-5.953-12.7-5.953V245.91l5.94-2.851v-9.161h-29.06v9.161l5.95 2.851v27.238c0 6.293-1.6 9.383-6.53 9.383-7.44 0-12.81-5.953-12.81-5.953V245.91l6.07-2.851v-9.161h-32.05v9.161l8.81 2.851v37.199l-8.7 2.86v9.16l23.92.562.8-8.121s9.96 9.27 20.03 9.27c8.12 0 13.16-3.77 15.79-9.84 1.95 1.949 10.53 9.84 20.71 9.84 12.02 0 17.63-7.789 17.63-20.602V245.91l7.78-2.851v-9.161M2075.92 271.66c0 6.52-2.75 11.449-9.39 11.449-6.4 0-10.41-4.687-11.32-11.449zm-20.94-10.64c.68-9.149 5.95-14.54 13.84-14.54 9.5 0 19.23 5.391 19.23 5.391l4.92-9.512s-11.45-9.609-26.09-9.609c-19.68 0-29.76 11.449-29.76 30.898 0 20.032 11.34 33.192 30.56 33.192 17.05 0 25.97-10.531 25.97-26.899 0-4.339-.68-8.582-.68-8.921h-37.99M2126.71 287.801s10.87 8.808 21.05 8.808c11.11 0 17.4-7.898 17.4-20.371V245.91l8.01-2.851v-9.161h-31.47v9.161l6.29 2.851v27.238c0 5.274-2.97 9.153-7.78 9.153-7.09 0-12.24-6.52-12.24-6.52V245.91l6.29-2.851v-9.161h-32.62v9.161l9.16 2.851v37.199l-9.16 2.86v9.16l24.27.562.8-7.89M2224.75 239.84c-5.61-4.11-12.02-7.09-19.46-7.09-13.15 0-16.93 9.148-16.93 22.32v26.321h-10.65v11.097l10.65 1.481v15.812l17.17 3.078v-18.89h16.01v-12.578h-16.01v-25.18c0-7.32 1.26-10.301 6.06-10.301 3.09 0 7.55 1.828 9.04 2.629l4.12-8.699M2259.52 259.871c-8.93 0-12.48-2.281-12.48-7.441 0-4.34 2.4-6.86 6.76-6.86 6.06 0 12.24 6.641 12.24 6.641v7.66zm7.33-18.531s-8.82-8.59-18.55-8.59c-11.1 0-17.85 6.531-17.85 17.969 0 13.5 10.18 18.883 27.58 18.883h8.01v6.296c0 5.832-3.09 8.352-8.81 8.352-5.83 0-10.07-1.719-10.07-1.719l-1.72-7.211h-10.3l-.8 16.95s13.84 4.57 24.83 4.57c17.4 0 24.03-6.07 24.03-22.66v-28.27l8.59-2.051v-9.16l-22.89-.801-2.05 7.442M2333.64 243.059v-9.161h-36.73v9.161l9.15 2.851v64.309l-9.15 2.301v9.152l26.44.918v-76.68l10.29-2.851M2397.93 277.621c9.04 0 14.31 4.34 14.31 12.008 0 6.519-4.35 11.211-11.45 11.211h-9.38v-23.219zm-32.84-34l8.58 3.438v53.781l-8.58 3.441V314l26.32.582h8.7c18.77 0 29.75-7.781 29.75-23.352 0-10.75-5.15-17.73-12.94-21.628 1.26-1.481 2.98-3.661 4.82-7.43l7.66-15.692 7.79-2.859v-9.723h-21.17l-9.62 21.172c-3.89 8.7-4.93 10.532-10.99 10.532h-4v-18.543l8.24-3.438v-9.723h-34.56v9.723M2481.1 271.66c0 6.52-2.75 11.449-9.38 11.449-6.42 0-10.42-4.687-11.34-11.449zm-20.94-10.64c.68-9.149 5.94-14.54 13.84-14.54 9.51 0 19.23 5.391 19.23 5.391l4.92-9.512s-11.44-9.609-26.09-9.609c-19.69 0-29.76 11.449-29.76 30.898 0 20.032 11.33 33.192 30.56 33.192 17.05 0 25.98-10.531 25.98-26.899 0-4.339-.69-8.582-.69-8.921h-37.99M2518.38 246.48s4-1.14 9.61-1.14c6.3 0 9.38 1.949 9.38 5.609 0 9.379-30.55 5.942-30.55 26.321 0 14.3 11.44 19.57 23.57 19.57 10.3 0 21.29-3.43 21.29-3.43l-.46-17.172h-9.73l-1.71 6.871s-3.32 1.141-7.9 1.141c-4.92 0-7.9-2.059-7.9-5.828 0-9.281 30.56-5.274 30.56-25.07 0-13.153-10.64-20.602-26.32-20.602-10.87 0-21.05 2.52-21.05 2.52v18.66h10.29l.92-7.45M2587.13 247.629c1.83-.797 4.58-1.719 8.92-1.719 9.85 0 13.17 6.871 13.17 18.539 0 11.563-3.09 18.66-11.45 18.66-7.43 0-10.64-6.289-10.64-6.289zm-1.94 48.062l1.03-6.402s7.78 7.551 16.93 7.551c15.91 0 23.81-11.789 23.81-30.328 0-21.172-10.08-33.762-30.09-33.762-3.33 0-6.76.461-9.74 1.148v-14.527l10.88-2.641v-9.148h-36.97v9.148l8.93 2.641v63.738l-9.16 2.86v9.16l24.38.562M2653.25 264.789c0-12.578 3.66-18.309 12.01-18.309 8.25 0 12.25 5.149 12.25 18.891 0 11.668-3.43 17.738-11.67 17.738-8.36 0-12.59-4.578-12.59-18.32zm42 1.152c0-20.601-12.02-33.191-30.55-33.191-18.66 0-29.19 9.73-29.19 31.469 0 20.601 12.24 32.621 30.9 32.621 18.54 0 28.84-11.219 28.84-30.899M2728.29 287.801s10.88 8.808 21.07 8.808c11.09 0 17.39-7.898 17.39-20.371V245.91l8.01-2.851v-9.161h-31.48v9.161l6.3 2.851v27.238c0 5.274-2.98 9.153-7.78 9.153-7.09 0-12.25-6.52-12.25-6.52V245.91l6.3-2.851v-9.161h-32.62v9.161l9.15 2.851v37.199l-9.15 2.86v9.16l24.26.562.8-7.89M2793.14 246.48s4.02-1.14 9.62-1.14c6.29 0 9.39 1.949 9.39 5.609 0 9.379-30.56 5.942-30.56 26.321 0 14.3 11.45 19.57 23.58 19.57 10.3 0 21.29-3.43 21.29-3.43l-.46-17.172h-9.73l-1.72 6.871s-3.32 1.141-7.9 1.141c-4.92 0-7.89-2.059-7.89-5.828 0-9.281 30.56-5.274 30.56-25.07 0-13.153-10.65-20.602-26.33-20.602-10.87 0-21.06 2.52-21.06 2.52v18.66h10.31l.9-7.45M2854.24 324.871c5.95 0 9.61-3.082 9.61-10.289 0-6.762-4.92-10.422-9.61-10.422-6.18 0-9.85 3.66-9.85 10.422 0 6.52 4.69 10.289 9.85 10.289zm17.39-81.812v-9.161h-34.34v9.161l9.17 2.851v37.199l-9.17 2.86v9.16l26.33.562V245.91l8.01-2.851M2901.37 247.172s2.63-.91 8.46-.91c9.96 0 13.63 7.547 13.63 19.109 0 11.449-3.21 17.738-11.22 17.738-6.87 0-10.87-5.148-10.87-5.148zm0 43.598c1.94 1.5 7.66 6.07 16.36 6.07 15.34 0 23.46-11.102 23.46-30.328 0-21.512-11.21-33.992-33.18-33.992-12.59 0-23.81 2.519-23.81 2.519v75.18l-8.58 2.301v9.152l25.75.918v-31.82M2966.69 324.871c5.95 0 9.61-3.082 9.61-10.289 0-6.762-4.92-10.422-9.61-10.422-6.18 0-9.84 3.66-9.84 10.422 0 6.52 4.68 10.289 9.84 10.289zm17.39-81.812v-9.161h-34.33v9.161l9.16 2.851v37.199l-9.16 2.86v9.16l26.31.562V245.91l8.02-2.851M3026.51 243.059v-9.161h-36.73v9.161l9.16 2.851v64.309l-9.16 2.301v9.152l26.43.918v-76.68l10.3-2.851M3048.02 324.871c5.94 0 9.61-3.082 9.61-10.289 0-6.762-4.92-10.422-9.61-10.422-6.18 0-9.85 3.66-9.85 10.422 0 6.52 4.69 10.289 9.85 10.289zm17.39-81.812v-9.161h-34.34v9.161l9.16 2.851v37.199l-9.16 2.86v9.16l26.32.562V245.91l8.02-2.851M3117.58 239.84c-5.61-4.11-12.01-7.09-19.45-7.09-13.17 0-16.94 9.148-16.94 22.32v26.321h-10.64v11.097l10.64 1.481v15.812l17.16 3.078v-18.89h16.03v-12.578h-16.03v-25.18c0-7.32 1.26-10.301 6.07-10.301 3.09 0 7.55 1.828 9.04 2.629l4.12-8.699M3119.28 295.129l30.54.562v-9.722l-6.4-1.149 10.18-32.039 9.73 31.699-6.63 1.489v9.16l30.78.562v-9.722l-7.1-1.489-16.82-46.921c-5.49-15.11-12.93-31.118-31.13-31.118-3.89 0-11.09.899-11.09.899l1.6 12.25h7.43c9.16 0 13.39 9.73 15.34 14.191l-20.37 50.36-6.06 1.828v9.16"/></g><g clip-path="url(#d)" fill="#fff" transform="matrix(.13333 0 0 -.13333 -9.613 368.899)"><path d="M1458.07 652.141l33.98.57V642.41l-8.35-3.441 9.84-41.188 16.02 54.02 15.45.91 15.34-54.82 10.99 41.078-8.59 3.441v9.731l32.62.57V642.41l-8.24-3.441-19.57-66.938h-16.25l-14.99 54.36-2.76-10.871-13.15-43.489h-15.79l-18.55 67.059-8 3.32v9.731M1597.64 602.93c0-12.59 3.66-18.309 12.01-18.309 8.24 0 12.24 5.149 12.24 18.891 0 11.668-3.42 17.726-11.67 17.726-8.35 0-12.58-4.578-12.58-18.308zm42 1.14c0-20.59-12.02-33.179-30.56-33.179-18.65 0-29.19 9.73-29.19 31.461 0 20.609 12.25 32.617 30.9 32.617 18.55 0 28.85-11.207 28.85-30.899M1672.68 625.941s8.24 9.028 15.9 9.028c6.3 0 10.65-2.059 10.65-2.059l-.92-21.969h-10.29l-1.72 9.719c-6.64 0-12.36-6.398-12.36-6.398v-30.223l11.44-2.859v-9.149h-37.76v9.149l9.15 2.859v37.199l-9.15 2.864v9.16l24.03.57 1.03-7.891M1735.94 610.828l7.78 11.672-5.03 1.602v9.16l29.52.57v-9.73l-8-1.481-10.65-14.992 12.81-23.688 8.7-2.761v-9.149h-21.17l-14.19 27.918h-7.32v-15.91l6.29-2.859v-9.149h-32.61v9.149l9.15 2.859v64.32l-9.15 2.289v9.153l26.32.918v-49.891h7.55M1793.13 663.012c5.95 0 9.61-3.09 9.61-10.301 0-6.75-4.92-10.422-9.61-10.422-6.18 0-9.84 3.672-9.84 10.422 0 6.527 4.69 10.301 9.84 10.301zm17.4-81.832v-9.149h-34.34v9.149l9.16 2.859v37.199l-9.16 2.864v9.16l26.33.57v-49.793l8.01-2.859M1843.01 625.941s10.87 8.809 21.05 8.809c11.11 0 17.4-7.898 17.4-20.379v-30.332l8.01-2.859v-9.149H1858v9.149l6.29 2.859v27.25c0 5.262-2.97 9.152-7.78 9.152-7.1 0-12.24-6.519-12.24-6.519v-29.883l6.29-2.859v-9.149h-32.62v9.149l9.16 2.859v37.199l-9.16 2.864v9.16l24.27.57.8-7.891M1916.34 612.309c0-6.86 2.62-11.438 9.15-11.438 7.21 0 9.72 3.777 9.72 11.438 0 7.211-2.86 10.871-9.15 10.871-6.86 0-9.72-3.66-9.72-10.871zm2.62-42.559s-5.48-2.52-5.48-7.449c0-5.719 4.92-6.86 14.3-6.86 10.3 0 14.65 2.278 14.65 7.778 0 5.152-3.78 6.531-11.44 6.531zm16.6 12.582c14.54 0 22.89-6.293 22.89-17.742 0-12.59-10.07-21.738-32.04-21.738-17.97 0-29.53 4.007-29.53 16.589 0 9.848 12.02 13.731 12.02 13.731s-6.87 1.039-6.87 7.558c0 3.309 4.58 10.75 5.95 12.93-2.75 1.828-8.81 6.75-8.81 17.852 0 15.679 11.79 23.457 27.46 23.457 6.64 0 11.34-1.707 13.51-2.739l19.68.461v-9.16l-9.38-1.609c.22-1.024 1.94-4.121 1.94-9.031 0-16.602-11.67-23.469-27.46-23.469-3.09 0-5.38.578-5.84.578l-.46-7.668h16.94M2046.06 637.949s-5.38 1.832-12.82 1.832c-12.01 0-18.87-8.929-18.87-28.043 0-18.539 7.44-26.316 19.45-26.316 11.44 0 21.75 8.008 21.75 8.008l6.29-10.301s-12.02-12.481-29.98-12.481c-23.24 0-36.63 13.973-36.63 40.524 0 26.898 15.11 42.91 38.57 42.91 13.85 0 26.66-5.371 26.66-5.371l-.57-21.75h-11.22l-2.63 10.988M2087 602.93c0-12.59 3.66-18.309 12.02-18.309 8.25 0 12.25 5.149 12.25 18.891 0 11.668-3.44 17.726-11.68 17.726-8.35 0-12.59-4.578-12.59-18.308zm42 1.14c0-20.59-12.01-33.179-30.55-33.179-18.66 0-29.18 9.73-29.18 31.461 0 20.609 12.24 32.617 30.9 32.617 18.53 0 28.83-11.207 28.83-30.899M2162.05 625.941s10.87 8.809 21.06 8.809c11.1 0 17.39-7.898 17.39-20.379v-30.332l8.02-2.859v-9.149h-31.48v9.149l6.29 2.859v27.25c0 5.262-2.97 9.152-7.77 9.152-7.1 0-12.25-6.519-12.25-6.519v-29.883l6.29-2.859v-9.149h-32.62v9.149l9.16 2.859v37.199l-9.16 2.864v9.16l24.27.57.8-7.891M2255.74 619.52c-2.18 1.039-5.6 1.718-8.92 1.718-9.73 0-13.17-7.437-13.17-18.886 0-11.551 3.22-17.731 10.99-17.731 7.32 0 11.1 6.52 11.1 6.52zm.92-41.418c-1.6-1.614-7.44-7.211-17.28-7.211-16.02 0-23.46 11.668-23.46 30.558 0 21.512 10.3 33.52 31.24 33.52 2.74 0 6.06-.571 8.58-1.137v14.527l-9.15 2.289v9.153l26.32.918v-76.438l9.15-2.293v-9.156l-24.37-.801-1.03 6.071M2305.26 663.012c5.95 0 9.61-3.09 9.61-10.301 0-6.75-4.92-10.422-9.61-10.422-6.18 0-9.84 3.672-9.84 10.422 0 6.527 4.69 10.301 9.84 10.301zm17.4-81.832v-9.149h-34.34v9.149l9.16 2.859v37.199l-9.16 2.864v9.16l26.33.57v-49.793l8.01-2.859M2374.82 577.98c-5.6-4.121-12.02-7.089-19.45-7.089-13.16 0-16.94 9.148-16.94 22.308v26.321h-10.64v11.101l10.64 1.488v15.801l17.17 3.09v-18.891h16.02V619.52h-16.02v-25.168c0-7.332 1.26-10.313 6.06-10.313 3.1 0 7.56 1.84 9.04 2.641l4.12-8.7M2396.89 663.012c5.95 0 9.61-3.09 9.61-10.301 0-6.75-4.92-10.422-9.61-10.422-6.18 0-9.84 3.672-9.84 10.422 0 6.527 4.69 10.301 9.84 10.301zm17.4-81.832v-9.149h-34.34v9.149l9.16 2.859v37.199l-9.16 2.864v9.16l26.33.57v-49.793l8.01-2.859M2439.44 602.93c0-12.59 3.67-18.309 12.02-18.309 8.25 0 12.25 5.149 12.25 18.891 0 11.668-3.44 17.726-11.68 17.726-8.35 0-12.59-4.578-12.59-18.308zm42.01 1.14c0-20.59-12.02-33.179-30.56-33.179-18.65 0-29.18 9.73-29.18 31.461 0 20.609 12.25 32.617 30.9 32.617 18.53 0 28.84-11.207 28.84-30.899M2514.49 625.941s10.87 8.809 21.06 8.809c11.1 0 17.39-7.898 17.39-20.379v-30.332l8.02-2.859v-9.149h-31.48v9.149l6.29 2.859v27.25c0 5.262-2.97 9.152-7.77 9.152-7.1 0-12.25-6.519-12.25-6.519v-29.883l6.29-2.859v-9.149h-32.62v9.149l9.16 2.859v37.199l-9.16 2.864v9.16l24.27.57.8-7.891M2579.35 584.621s4-1.141 9.61-1.141c6.29 0 9.38 1.942 9.38 5.602 0 9.387-30.56 5.949-30.56 26.316 0 14.313 11.45 19.571 23.58 19.571 10.3 0 21.29-3.43 21.29-3.43l-.46-17.168h-9.73l-1.72 6.867s-3.31 1.141-7.89 1.141c-4.92 0-7.9-2.059-7.9-5.828 0-9.27 30.56-5.262 30.56-25.071 0-13.152-10.65-20.589-26.32-20.589-10.87 0-21.06 2.519-21.06 2.519v18.649h10.3l.92-7.438"/></g><g clip-path="url(#e)" fill="#fff" transform="matrix(.13333 0 0 -.13333 -9.613 368.899)"><path d="M1514.6 974.93s-5.38 1.84-12.82 1.84c-12.01 0-18.88-8.938-18.88-28.051 0-18.528 7.44-26.321 19.45-26.321 11.45 0 21.75 8.012 21.75 8.012l6.29-10.289s-12.01-12.48-29.98-12.48c-23.23 0-36.62 13.961-36.62 40.507 0 26.903 15.11 42.911 38.56 42.911 13.85 0 26.66-5.368 26.66-5.368l-.56-21.742h-11.22l-2.63 10.981M1555.54 939.91c0-12.59 3.66-18.308 12.01-18.308 8.24 0 12.24 5.148 12.24 18.886 0 11.672-3.42 17.731-11.66 17.731-8.36 0-12.59-4.578-12.59-18.309zm42 1.141c0-20.59-12.02-33.18-30.56-33.18-18.65 0-29.19 9.731-29.19 31.469 0 20.601 12.25 32.609 30.9 32.609 18.55 0 28.85-11.211 28.85-30.898M1712.29 909.012h-31.01v9.16l6.06 2.859v27.239c0 6.289-1.83 9.378-6.64 9.378-7.44 0-12.7-5.949-12.7-5.949v-30.668l5.96-2.859v-9.16h-29.08v9.16l5.96 2.859v27.239c0 6.289-1.61 9.378-6.52 9.378-7.44 0-12.83-5.949-12.83-5.949v-30.668l6.07-2.859v-9.16h-32.04v9.16l8.81 2.859v37.188l-8.7 2.863v9.156l23.92.571.8-8.118s9.95 9.258 20.03 9.258c8.13 0 13.16-3.769 15.79-9.828 1.95 1.938 10.53 9.828 20.71 9.828 12.02 0 17.63-7.777 17.63-20.59v-30.328l7.78-2.859v-9.16M1825.88 909.012h-31.01v9.16l6.07 2.859v27.239c0 6.289-1.84 9.378-6.64 9.378-7.44 0-12.71-5.949-12.71-5.949v-30.668l5.96-2.859v-9.16h-29.07v9.16l5.95 2.859v27.239c0 6.289-1.61 9.378-6.52 9.378-7.44 0-12.82-5.949-12.82-5.949v-30.668l6.06-2.859v-9.16h-32.04v9.16l8.81 2.859v37.188l-8.69 2.863v9.156l23.91.571.81-8.118s9.95 9.258 20.02 9.258c8.13 0 13.16-3.769 15.8-9.828 1.94 1.938 10.52 9.828 20.71 9.828 12.01 0 17.63-7.777 17.63-20.59v-30.328l7.77-2.859v-9.16M1830.42 970.238l26.32.571v-39.481c0-6.289 1.82-9.148 6.98-9.148 7.43 0 12.93 6.172 12.93 6.172v29.867l-9.16 2.863v9.156l26.33.571v-49.778l9.15-2.293v-8.929l-24.14-.797-1.15 8.008s-9.15-9.149-20.02-9.149c-11.45 0-18.09 7.668-18.09 20.481v29.867l-9.15 2.863v9.156M1934.3 962.922s10.87 8.808 21.05 8.808c11.11 0 17.39-7.902 17.39-20.371v-30.328l8.02-2.859v-9.16h-31.47v9.16l6.29 2.859v27.239c0 5.269-2.97 9.152-7.78 9.152-7.1 0-12.24-6.524-12.24-6.524v-29.867l6.29-2.859v-9.16h-32.62v9.16l9.16 2.859v37.188l-9.16 2.863v9.156l24.27.571.8-7.887M2004.53 999.988c5.95 0 9.61-3.09 9.61-10.289 0-6.758-4.92-10.418-9.61-10.418-6.18 0-9.84 3.66-9.84 10.418 0 6.52 4.69 10.289 9.84 10.289zm17.39-81.816v-9.16h-34.33v9.16l9.16 2.859v37.188l-9.16 2.863v9.156l26.33.571v-49.778l8-2.859M2074.09 914.961c-5.6-4.109-12.02-7.09-19.45-7.09-13.17 0-16.94 9.149-16.94 22.32V956.5h-10.64v11.109l10.64 1.481v15.801l17.16 3.089v-18.89h16.03V956.5h-16.03v-25.172c0-7.328 1.26-10.297 6.07-10.297 3.09 0 7.56 1.828 9.04 2.629l4.12-8.699M2075.78 970.238l30.56.571v-9.727l-6.41-1.141 10.19-32.043 9.72 31.704-6.64 1.48v9.156l30.79.571v-9.727l-7.1-1.48-16.82-46.922c-5.49-15.11-12.93-31.129-31.12-31.129-3.89 0-11.11.91-11.11.91l1.6 12.25h7.44c9.16 0 13.39 9.719 15.34 14.187l-20.37 50.364-6.07 1.82v9.156M2171.42 989.121l33.99.578v-10.308l-8.36-3.43 9.84-41.191 16.03 54.011 15.45.918 15.33-54.828 10.99 41.09-8.59 3.43v9.73l32.62.578v-10.308l-8.24-3.43-19.57-66.949h-16.25l-14.99 54.359-2.75-10.871-13.16-43.488h-15.79l-18.54 67.058-8.01 3.321v9.73M2332.04 946.781c0 6.52-2.74 11.438-9.38 11.438-6.41 0-10.41-4.68-11.33-11.438zm-20.94-10.652c.69-9.149 5.95-14.527 13.84-14.527 9.5 0 19.23 5.378 19.23 5.378l4.92-9.5s-11.44-9.609-26.09-9.609c-19.68 0-29.76 11.449-29.76 30.899 0 20.031 11.34 33.179 30.56 33.179 17.05 0 25.98-10.519 25.98-26.89 0-4.348-.69-8.59-.69-8.93h-37.99M2392.78 918.172v-9.16h-36.74v9.16l9.17 2.859v64.309l-9.17 2.301v9.148l26.44.922v-76.68l10.3-2.859M2432.36 918.172v-9.16h-36.73v9.16l9.16 2.859v64.309l-9.16 2.301v9.148l26.43.922v-76.68l10.3-2.859M2459.24 922.289s2.64-.91 8.47-.91c9.96 0 13.62 7.551 13.62 19.109 0 11.442-3.2 17.731-11.22 17.731-6.87 0-10.87-5.141-10.87-5.141zm0 43.602c1.94 1.488 7.66 6.058 16.37 6.058 15.33 0 23.45-11.09 23.45-30.32 0-21.508-11.21-33.988-33.18-33.988-12.59 0-23.81 2.519-23.81 2.519v75.18l-8.58 2.301v9.148l25.75.922v-31.82M2546.42 946.781c0 6.52-2.75 11.438-9.39 11.438-6.4 0-10.41-4.68-11.33-11.438zm-20.94-10.652c.68-9.149 5.95-14.527 13.84-14.527 9.5 0 19.22 5.378 19.22 5.378l4.93-9.5s-11.45-9.609-26.1-9.609c-19.67 0-29.75 11.449-29.75 30.899 0 20.031 11.34 33.179 30.55 33.179 17.05 0 25.98-10.519 25.98-26.89 0-4.348-.68-8.59-.68-8.93h-37.99M2589.07 999.988c5.96 0 9.62-3.09 9.62-10.289 0-6.758-4.92-10.418-9.62-10.418-6.18 0-9.84 3.66-9.84 10.418 0 6.52 4.7 10.289 9.84 10.289zm17.4-81.816v-9.16h-34.33v9.16l9.15 2.859v37.188l-9.15 2.863v9.156l26.32.571v-49.778l8.01-2.859M2638.96 962.922s10.86 8.808 21.05 8.808c11.1 0 17.39-7.902 17.39-20.371v-30.328l8.02-2.859v-9.16h-31.47v9.16l6.28 2.859v27.239c0 5.269-2.96 9.152-7.77 9.152-7.1 0-12.25-6.524-12.25-6.524v-29.867l6.29-2.859v-9.16h-32.61v9.16l9.16 2.859v37.188l-9.16 2.863v9.156l24.26.571.81-7.887M2712.28 949.301c0-6.871 2.63-11.449 9.16-11.449 7.2 0 9.72 3.777 9.72 11.449 0 7.199-2.86 10.871-9.16 10.871-6.86 0-9.72-3.672-9.72-10.871zm2.63-42.571s-5.5-2.519-5.5-7.441c0-5.73 4.93-6.867 14.31-6.867 10.3 0 14.65 2.289 14.65 7.789 0 5.141-3.78 6.519-11.45 6.519zm16.59 12.59c14.54 0 22.89-6.3 22.89-17.75 0-12.59-10.07-21.738-32.05-21.738-17.96 0-29.52 4.008-29.52 16.598 0 9.84 12.01 13.73 12.01 13.73s-6.86 1.031-6.86 7.551c0 3.32 4.58 10.758 5.96 12.93-2.76 1.828-8.82 6.75-8.82 17.859 0 15.672 11.78 23.449 27.47 23.449 6.64 0 11.33-1.711 13.5-2.738l19.68.461v-9.16l-9.38-1.602c.23-1.031 1.95-4.121 1.95-9.039 0-16.601-11.68-23.461-27.47-23.461-3.09 0-5.38.57-5.84.57l-.45-7.66h16.93"/></g><g clip-path="url(#f)" fill="#fff" transform="matrix(.13333 0 0 -.13333 -9.613 368.899)"><path d="M1508.99 1272.3h10.87v-26.31h-57.21v9.72l8.58 3.44v53.78l-8.58 3.44v9.72l34.9.58v-10.3l-8.59-3.44v-53.21h17.51l2.52 12.58M1541.92 1336.96c5.96 0 9.62-3.08 9.62-10.29 0-6.76-4.92-10.42-9.62-10.42-6.18 0-9.84 3.66-9.84 10.42 0 6.52 4.7 10.29 9.84 10.29zm17.41-81.81v-9.16h-34.34v9.16l9.15 2.85v37.2l-9.15 2.86v9.16l26.32.56V1258l8.02-2.85M1577.62 1311.79c0 14.54 8.35 24.26 24.6 24.26 12.36 0 20.25-4.23 20.25-4.23l-.34-16.83h-10.29l-1.72 8.02s-2.75.46-6.53.46c-6.3 0-8.81-3.78-8.81-9.73v-7.1h14.88l-.34-11.44h-14.54V1258l11.44-2.85v-9.16h-37.76v9.16l9.16 2.85v37.2h-10.31v9.72l10.31 1.72v5.15M1658.39 1283.75c0 6.52-2.76 11.45-9.39 11.45-6.41 0-10.42-4.69-11.33-11.45zm-20.95-10.64c.69-9.15 5.95-14.54 13.85-14.54 9.5 0 19.23 5.39 19.23 5.39l4.92-9.51s-11.45-9.61-26.09-9.61c-19.69 0-29.76 11.45-29.76 30.9 0 20.03 11.33 33.19 30.56 33.19 17.05 0 25.97-10.53 25.97-26.9 0-4.34-.68-8.58-.68-8.92h-38M1739.49 1254.57c-2.86-2.52-11.78-9.73-24.6-9.73-18.88 0-29.75 11.67-29.75 31.13 0 20.37 11.44 32.96 31.47 32.96 9.84 0 20.02-4.01 20.02-4.01l-.57-18.77h-10.3l-1.6 8.13s-3.32.92-7.9.92c-8.23 0-13.39-5.49-13.39-16.94 0-12.48 4.81-19.69 14.31-19.69 8.01 0 13.04 4.01 16.59 6.07l5.72-10.07M1741.76 1307.22l30.55.56v-9.72l-6.4-1.15 10.18-32.04 9.73 31.7-6.64 1.49v9.16l30.79.56v-9.72l-7.1-1.49-16.83-46.92c-5.48-15.11-12.92-31.12-31.12-31.12-3.88 0-11.1.9-11.1.9l1.6 12.25h7.44c9.16 0 13.39 9.73 15.33 14.19l-20.37 50.36-6.06 1.83v9.16M1868.3 1254.57c-2.86-2.52-11.79-9.73-24.6-9.73-18.89 0-29.75 11.67-29.75 31.13 0 20.37 11.44 32.96 31.47 32.96 9.83 0 20.02-4.01 20.02-4.01l-.57-18.77h-10.3l-1.6 8.13s-3.32.92-7.9.92c-8.23 0-13.39-5.49-13.39-16.94 0-12.48 4.8-19.69 14.31-19.69 8 0 13.04 4.01 16.59 6.07l5.72-10.07M1909.01 1255.15v-9.16h-36.72v9.16l9.15 2.85v64.31l-9.15 2.3v9.15l26.43.92V1258l10.29-2.85M1952.37 1283.75c0 6.52-2.74 11.45-9.38 11.45-6.41 0-10.41-4.69-11.33-11.45zm-20.93-10.64c.68-9.15 5.94-14.54 13.83-14.54 9.51 0 19.23 5.39 19.23 5.39l4.92-9.51s-11.44-9.61-26.09-9.61c-19.68 0-29.76 11.45-29.76 30.9 0 20.03 11.34 33.19 30.56 33.19 17.05 0 25.98-10.53 25.98-26.9 0-4.34-.69-8.58-.69-8.92h-37.98M2004.98 1255.71l8.58 3.44v53.78l-8.58 3.44v9.72l29.52.58 17.17-38.12 17.97 37.54 27.46.58v-10.3l-8.23-3.44v-53.78l8.58-3.44v-9.72h-34.11v9.72l8.94 3.44v43.03l-3.1-7.56-12.93-26.89-12.36-.57-13.16 27.12-1.95 5.95v-41.08l8.82-3.44v-9.72h-32.62v9.72M2135.06 1271.96c-8.94 0-12.48-2.28-12.48-7.44 0-4.34 2.4-6.86 6.76-6.86 6.06 0 12.24 6.64 12.24 6.64v7.66zm7.32-18.53s-8.82-8.59-18.54-8.59c-11.11 0-17.85 6.53-17.85 17.97 0 13.5 10.18 18.88 27.57 18.88h8.02v6.3c0 5.83-3.09 8.35-8.82 8.35-5.83 0-10.06-1.72-10.06-1.72l-1.72-7.21h-10.31l-.8 16.95s13.85 4.57 24.84 4.57c17.4 0 24.03-6.07 24.03-22.66V1258l8.58-2.05v-9.16l-22.89-.8-2.05 7.44M2199.23 1299.89s10.87 8.81 21.05 8.81c11.11 0 17.4-7.9 17.4-20.37V1258l8.01-2.85v-9.16h-31.47v9.16l6.29 2.85v27.24c0 5.27-2.97 9.15-7.78 9.15-7.1 0-12.24-6.52-12.24-6.52V1258l6.29-2.85v-9.16h-32.62v9.16l9.16 2.85v37.2l-9.16 2.86v9.16l24.27.56.8-7.89M2282.17 1271.96c-8.94 0-12.48-2.28-12.48-7.44 0-4.34 2.4-6.86 6.76-6.86 6.06 0 12.24 6.64 12.24 6.64v7.66zm7.32-18.53s-8.82-8.59-18.54-8.59c-11.11 0-17.85 6.53-17.85 17.97 0 13.5 10.18 18.88 27.57 18.88h8.02v6.3c0 5.83-3.09 8.35-8.82 8.35-5.83 0-10.07-1.72-10.07-1.72l-1.71-7.21h-10.31l-.8 16.95s13.85 4.57 24.84 4.57c17.4 0 24.03-6.07 24.03-22.66V1258l8.58-2.05v-9.16l-22.89-.8-2.05 7.44M2341.3 1286.27c0-6.87 2.64-11.45 9.16-11.45 7.21 0 9.73 3.78 9.73 11.45 0 7.21-2.87 10.87-9.16 10.87-6.87 0-9.73-3.66-9.73-10.87zm2.64-42.57s-5.5-2.52-5.5-7.44c0-5.72 4.92-6.87 14.3-6.87 10.31 0 14.65 2.29 14.65 7.79 0 5.14-3.78 6.52-11.44 6.52zm16.59 12.59c14.53 0 22.89-6.3 22.89-17.75 0-12.58-10.08-21.73-32.05-21.73-17.96 0-29.52 4-29.52 16.59 0 9.84 12.01 13.73 12.01 13.73s-6.87 1.03-6.87 7.56c0 3.31 4.58 10.75 5.96 12.93-2.75 1.82-8.82 6.75-8.82 17.85 0 15.67 11.79 23.46 27.47 23.46 6.64 0 11.33-1.71 13.51-2.75l19.68.46v-9.16l-9.39-1.6c.23-1.03 1.95-4.11 1.95-9.03 0-16.61-11.68-23.47-27.47-23.47-3.08 0-5.38.58-5.84.58l-.45-7.67h16.94M2429.85 1283.75c0 6.52-2.75 11.45-9.38 11.45-6.42 0-10.42-4.69-11.34-11.45zm-20.94-10.64c.68-9.15 5.94-14.54 13.84-14.54 9.51 0 19.23 5.39 19.23 5.39l4.92-9.51s-11.44-9.61-26.09-9.61c-19.69 0-29.76 11.45-29.76 30.9 0 20.03 11.33 33.19 30.56 33.19 17.05 0 25.98-10.53 25.98-26.9 0-4.34-.69-8.58-.69-8.92h-37.99M2562.34 1245.99h-31.01v9.16l6.06 2.85v27.24c0 6.29-1.82 9.38-6.63 9.38-7.44 0-12.7-5.95-12.7-5.95V1258l5.94-2.85v-9.16h-29.06v9.16l5.95 2.85v27.24c0 6.29-1.6 9.38-6.52 9.38-7.45 0-12.82-5.95-12.82-5.95V1258l6.07-2.85v-9.16h-32.05v9.16l8.81 2.85v37.2l-8.7 2.86v9.16l23.92.56.8-8.12s9.96 9.27 20.03 9.27c8.12 0 13.16-3.77 15.79-9.84 1.95 1.95 10.53 9.84 20.71 9.84 12.03 0 17.63-7.79 17.63-20.6V1258l7.78-2.85v-9.16M2607.96 1283.75c0 6.52-2.75 11.45-9.39 11.45-6.4 0-10.41-4.69-11.32-11.45zm-20.94-10.64c.69-9.15 5.95-14.54 13.84-14.54 9.5 0 19.23 5.39 19.23 5.39l4.92-9.51s-11.45-9.61-26.09-9.61c-19.68 0-29.76 11.45-29.76 30.9 0 20.03 11.34 33.19 30.56 33.19 17.05 0 25.97-10.53 25.97-26.9 0-4.34-.68-8.58-.68-8.92h-37.99M2658.74 1299.89s10.88 8.81 21.06 8.81c11.1 0 17.4-7.9 17.4-20.37V1258l8.01-2.85v-9.16h-31.48v9.16l6.3 2.85v27.24c0 5.27-2.98 9.15-7.78 9.15-7.09 0-12.25-6.52-12.25-6.52V1258l6.3-2.85v-9.16h-32.62v9.16l9.15 2.85v37.2l-9.15 2.86v9.16l24.26.56.8-7.89M2756.79 1251.93c-5.61-4.11-12.02-7.09-19.46-7.09-13.16 0-16.94 9.15-16.94 22.32v26.32h-10.63v11.1l10.63 1.48v15.81l17.17 3.08v-18.89h16.02v-12.58h-16.02v-25.18c0-7.32 1.26-10.3 6.06-10.3 3.1 0 7.56 1.83 9.05 2.63l4.12-8.7"/></g><g clip-path="url(#g)" fill="#fff" transform="matrix(.13333 0 0 -.13333 -9.613 368.899)"><path d="M1497.31 1594.29c8.02 0 12.25 3.66 12.25 9.96 0 8.35-4.8 12.01-15.11 12.01h-6.63v-21.97zm-2.86 34c8.36 0 12.83 3.54 12.83 10.64 0 5.95-4.24 8.57-9.73 8.57h-9.73v-19.21zm5.38 32.96c14.89 0 25.18-6.3 25.18-19.81 0-9.95-4.69-16.02-13.73-18.88 10.76-3.09 16.37-9.5 16.37-18.31 0-16.82-11.22-23.69-29.76-23.69h-36.4v9.73l8.59 3.44v53.77l-8.59 3.44v9.73l26.33.58h12.01M1534.48 1641.79l26.32.57v-39.48c0-6.29 1.83-9.15 6.98-9.15 7.43 0 12.93 6.17 12.93 6.17v29.87l-9.16 2.86v9.16l26.33.57v-49.79l9.15-2.28v-8.93l-24.14-.8-1.15 8.01s-9.15-9.15-20.02-9.15c-11.45 0-18.09 7.66-18.09 20.48v29.87l-9.15 2.86v9.16M1624.85 1593.15s4.01-1.14 9.61-1.14c6.3 0 9.39 1.94 9.39 5.6 0 9.39-30.56 5.95-30.56 26.32 0 14.31 11.45 19.57 23.58 19.57 10.3 0 21.28-3.43 21.28-3.43l-.45-17.16h-9.73l-1.72 6.86s-3.31 1.14-7.89 1.14c-4.92 0-7.9-2.06-7.9-5.83 0-9.27 30.56-5.26 30.56-25.07 0-13.15-10.65-20.59-26.32-20.59-10.87 0-21.06 2.52-21.06 2.52v18.65h10.3l.91-7.44M1685.95 1671.54c5.94 0 9.61-3.09 9.61-10.29 0-6.76-4.93-10.42-9.61-10.42-6.18 0-9.85 3.66-9.85 10.42 0 6.52 4.69 10.29 9.85 10.29zm17.39-81.82v-9.16H1669v9.16l9.16 2.85v37.2l-9.16 2.86v9.16l26.33.57v-49.79l8.01-2.85M1735.82 1634.47s10.88 8.81 21.06 8.81c11.1 0 17.4-7.9 17.4-20.37v-30.34l8.01-2.85v-9.16h-31.48v9.16l6.3 2.85v27.25c0 5.26-2.98 9.15-7.78 9.15-7.09 0-12.25-6.52-12.25-6.52v-29.88l6.3-2.85v-9.16h-32.62v9.16l9.15 2.85v37.2l-9.15 2.86v9.16l24.26.57.8-7.89M1827.92 1618.33c0 6.52-2.75 11.44-9.38 11.44-6.42 0-10.42-4.69-11.34-11.44zm-20.95-10.65c.69-9.15 5.95-14.53 13.85-14.53 9.5 0 19.23 5.38 19.23 5.38l4.92-9.5s-11.44-9.61-26.09-9.61c-19.69 0-29.76 11.44-29.76 30.9 0 20.03 11.33 33.18 30.56 33.18 17.05 0 25.97-10.53 25.97-26.89 0-4.35-.68-8.59-.68-8.93h-38M1865.2 1593.15s4-1.14 9.6-1.14c6.3 0 9.39 1.94 9.39 5.6 0 9.39-30.56 5.95-30.56 26.32 0 14.31 11.45 19.57 23.58 19.57 10.3 0 21.29-3.43 21.29-3.43l-.46-17.16h-9.73l-1.72 6.86s-3.31 1.14-7.89 1.14c-4.92 0-7.9-2.06-7.9-5.83 0-9.27 30.56-5.26 30.56-25.07 0-13.15-10.65-20.59-26.32-20.59-10.87 0-21.06 2.52-21.06 2.52v18.65h10.3l.92-7.44M1920.9 1593.15s4.01-1.14 9.62-1.14c6.29 0 9.38 1.94 9.38 5.6 0 9.39-30.55 5.95-30.55 26.32 0 14.31 11.44 19.57 23.57 19.57 10.3 0 21.29-3.43 21.29-3.43l-.46-17.16h-9.73l-1.72 6.86s-3.32 1.14-7.9 1.14c-4.92 0-7.89-2.06-7.89-5.83 0-9.27 30.56-5.26 30.56-25.07 0-13.15-10.64-20.59-26.33-20.59-10.87 0-21.05 2.52-21.05 2.52v18.65h10.3l.91-7.44M2045.04 1646.48s-5.38 1.84-12.82 1.84c-12.01 0-18.88-8.94-18.88-28.05 0-18.54 7.44-26.32 19.45-26.32 11.45 0 21.75 8.01 21.75 8.01l6.29-10.29s-12.01-12.49-29.98-12.49c-23.23 0-36.62 13.97-36.62 40.52 0 26.9 15.11 42.91 38.56 42.91 13.85 0 26.66-5.37 26.66-5.37l-.56-21.75h-11.22l-2.63 10.99M2085.98 1611.46c0-12.59 3.66-18.31 12.01-18.31 8.24 0 12.24 5.15 12.24 18.89 0 11.67-3.42 17.73-11.67 17.73-8.35 0-12.58-4.58-12.58-18.31zm42 1.14c0-20.59-12.02-33.18-30.56-33.18-18.65 0-29.19 9.73-29.19 31.46 0 20.61 12.25 32.62 30.9 32.62 18.55 0 28.85-11.21 28.85-30.9M2161.02 1634.47s10.87 8.81 21.06 8.81c11.09 0 17.39-7.9 17.39-20.37v-30.34l8.01-2.85v-9.16h-31.47v9.16l6.29 2.85v27.25c0 5.26-2.97 9.15-7.78 9.15-7.09 0-12.24-6.52-12.24-6.52v-29.88l6.29-2.85v-9.16h-32.61v9.16l9.15 2.85v37.2l-9.15 2.86v9.16l24.25.57.81-7.89M2254.72 1628.05c-2.18 1.04-5.62 1.72-8.93 1.72-9.74 0-13.16-7.44-13.16-18.89 0-11.55 3.2-17.73 10.98-17.73 7.33 0 11.11 6.52 11.11 6.52zm.91-41.42c-1.61-1.61-7.44-7.21-17.28-7.21-16.03 0-23.47 11.67-23.47 30.56 0 21.51 10.31 33.52 31.25 33.52 2.75 0 6.07-.57 8.59-1.14v14.53l-9.16 2.29v9.15l26.32.92v-76.44l9.16-2.29v-9.16l-24.38-.8-1.03 6.07M2285.01 1641.79l26.32.57v-39.48c0-6.29 1.83-9.15 6.98-9.15 7.44 0 12.93 6.17 12.93 6.17v29.87l-9.15 2.86v9.16l26.32.57v-49.79l9.16-2.28v-8.93l-24.15-.8-1.14 8.01s-9.16-9.15-20.03-9.15c-11.45 0-18.08 7.66-18.08 20.48v29.87l-9.16 2.86v9.16M2418.18 1589.15c-2.86-2.52-11.78-9.73-24.6-9.73-18.88 0-29.75 11.67-29.75 31.12 0 20.37 11.44 32.96 31.47 32.96 9.84 0 20.02-4 20.02-4l-.56-18.77h-10.31l-1.6 8.12s-3.32.92-7.9.92c-8.23 0-13.39-5.49-13.39-16.93 0-12.48 4.81-19.69 14.31-19.69 8.01 0 13.05 4 16.59 6.06l5.72-10.06M2468.62 1586.51c-5.6-4.11-12.01-7.09-19.45-7.09-13.15 0-16.93 9.15-16.93 22.31v26.32h-10.65v11.11l10.65 1.48v15.8l17.16 3.09v-18.89h16.02v-12.59h-16.02v-25.17c0-7.33 1.26-10.31 6.07-10.31 3.08 0 7.55 1.84 9.04 2.64l4.11-8.7"/></g><g clip-path="url(#h)" fill="#fff" transform="matrix(.13333 0 0 -.13333 -9.613 368.899)"><path d="M1512.08 1953.16h-23.12v-21.75h20.49l2.63 9.39h10.3v-23.12h-59.73v9.73l8.57 3.43v53.79l-8.57 3.43v9.73l26.31.57h32.05v-22.09h-10.31l-2.86 8.36h-18.88v-18.88h23.12v-12.59M1587.01 1926.26c-2.86-2.51-11.79-9.72-24.61-9.72-18.87 0-29.75 11.67-29.75 31.12 0 20.37 11.44 32.96 31.47 32.96 9.84 0 20.03-4 20.03-4l-.58-18.77h-10.29l-1.61 8.12s-3.31.92-7.89.92c-8.24 0-13.39-5.49-13.39-16.93 0-12.48 4.81-19.69 14.31-19.69 8.01 0 13.04 4 16.59 6.06l5.72-10.07M1610.45 1948.58c0-12.59 3.66-18.31 12.01-18.31 8.24 0 12.25 5.15 12.25 18.89 0 11.66-3.43 17.73-11.67 17.73-8.36 0-12.59-4.58-12.59-18.31zm42 1.14c0-20.59-12.02-33.18-30.56-33.18-18.65 0-29.18 9.72-29.18 31.46 0 20.61 12.24 32.62 30.89 32.62 18.55 0 28.85-11.21 28.85-30.9M1685.49 1971.59s10.88 8.8 21.06 8.8c11.1 0 17.4-7.89 17.4-20.37v-30.33l8-2.86v-9.15h-31.47v9.15l6.3 2.86v27.25c0 5.26-2.98 9.15-7.79 9.15-7.09 0-12.24-6.52-12.24-6.52v-29.88l6.3-2.86v-9.15h-32.62v9.15l9.15 2.86v37.2l-9.15 2.86v9.16l24.26.57.8-7.89M1756.52 1948.58c0-12.59 3.67-18.31 12.02-18.31 8.25 0 12.25 5.15 12.25 18.89 0 11.66-3.44 17.73-11.68 17.73-8.35 0-12.59-4.58-12.59-18.31zm42.01 1.14c0-20.59-12.02-33.18-30.56-33.18-18.65 0-29.18 9.72-29.18 31.46 0 20.61 12.25 32.62 30.9 32.62 18.53 0 28.84-11.21 28.84-30.9M1913.28 1917.68h-31.01v9.15l6.06 2.86v27.25c0 6.29-1.83 9.37-6.63 9.37-7.44 0-12.71-5.94-12.71-5.94v-30.68l5.95-2.86v-9.15h-29.06v9.15l5.95 2.86v27.25c0 6.29-1.61 9.37-6.53 9.37-7.44 0-12.81-5.94-12.81-5.94v-30.68l6.06-2.86v-9.15h-32.05v9.15l8.82 2.86v37.2l-8.7 2.86v9.16l23.92.57.8-8.13s9.96 9.27 20.03 9.27c8.12 0 13.16-3.77 15.79-9.84 1.95 1.95 10.53 9.84 20.71 9.84 12.02 0 17.63-7.78 17.63-20.6v-30.33l7.78-2.86v-9.15M1937.04 2008.66c5.95 0 9.61-3.09 9.61-10.3 0-6.75-4.92-10.41-9.61-10.41-6.18 0-9.84 3.66-9.84 10.41 0 6.53 4.68 10.3 9.84 10.3zm17.39-81.83v-9.15h-34.33v9.15l9.16 2.86v37.2l-9.16 2.86v9.16l26.33.57v-49.79l8-2.86M2016.21 1926.26c-2.86-2.51-11.79-9.72-24.6-9.72-18.89 0-29.75 11.67-29.75 31.12 0 20.37 11.44 32.96 31.47 32.96 9.83 0 20.02-4 20.02-4l-.57-18.77h-10.3l-1.6 8.12s-3.32.92-7.9.92c-8.23 0-13.39-5.49-13.39-16.93 0-12.48 4.8-19.69 14.31-19.69 8 0 13.04 4 16.59 6.06l5.72-10.07M2085.18 1931.41c11.1 0 18.54 6.52 18.54 27.13 0 19.22-6.52 26.09-17.74 26.09h-10.3v-53.22zm-27.24 53.22l-8.58 3.43v9.73l26.32.57h10.87c22.89 0 36.4-13.5 36.4-39.25 0-25.76-14.88-41.43-38.12-41.43h-35.47v9.73l8.58 3.43v53.79M2171.44 1955.45c0 6.52-2.75 11.44-9.39 11.44-6.41 0-10.41-4.69-11.33-11.44zm-20.94-10.65c.68-9.15 5.95-14.53 13.84-14.53 9.5 0 19.22 5.38 19.22 5.38l4.93-9.5s-11.45-9.61-26.1-9.61c-19.68 0-29.75 11.44-29.75 30.9 0 20.02 11.33 33.18 30.55 33.18 17.05 0 25.98-10.53 25.98-26.89 0-4.35-.68-8.58-.68-8.93h-37.99M2231.14 1978.91l29.99.57v-9.73l-6.52-1.48-18.43-50.59h-18.89l-18.07 50.25-5.5 1.82v9.16l29.99.57v-9.73l-6.42-1.14 10.42-33.76 10.07 33.42-6.64 1.48v9.16M2302.3 1955.45c0 6.52-2.75 11.44-9.38 11.44-6.42 0-10.42-4.69-11.34-11.44zm-20.94-10.65c.68-9.15 5.94-14.53 13.85-14.53 9.5 0 19.22 5.38 19.22 5.38l4.93-9.5s-11.45-9.61-26.1-9.61c-19.69 0-29.75 11.44-29.75 30.9 0 20.02 11.32 33.18 30.55 33.18 17.05 0 25.98-10.53 25.98-26.89 0-4.35-.68-8.58-.68-8.93h-38M2363.04 1926.83v-9.15h-36.73v9.15l9.15 2.86v64.32l-9.15 2.29v9.15l26.43.92v-76.68l10.3-2.86M2385.34 1948.58c0-12.59 3.66-18.31 12.01-18.31 8.25 0 12.25 5.15 12.25 18.89 0 11.66-3.43 17.73-11.67 17.73-8.36 0-12.59-4.58-12.59-18.31zm42 1.14c0-20.59-12.02-33.18-30.55-33.18-18.66 0-29.19 9.72-29.19 31.46 0 20.61 12.24 32.62 30.9 32.62 18.54 0 28.84-11.21 28.84-30.9M2459.92 1931.41c1.84-.8 4.58-1.72 8.93-1.72 9.84 0 13.16 6.88 13.16 18.55 0 11.56-3.08 18.65-11.44 18.65-7.44 0-10.65-6.29-10.65-6.29zm-1.94 48.07l1.03-6.41s7.79 7.55 16.94 7.55c15.91 0 23.81-11.79 23.81-30.32 0-21.17-10.08-33.76-30.1-33.76-3.32 0-6.76.46-9.74 1.14v-14.53l10.88-2.64v-9.15h-36.96v9.15l8.92 2.64v63.74l-9.16 2.86v9.16l24.38.57M2615.08 1917.68h-31.02v9.15l6.07 2.86v27.25c0 6.29-1.83 9.37-6.63 9.37-7.45 0-12.71-5.94-12.71-5.94v-30.68l5.95-2.86v-9.15h-29.06v9.15l5.94 2.86v27.25c0 6.29-1.6 9.37-6.52 9.37-7.44 0-12.81-5.94-12.81-5.94v-30.68l6.06-2.86v-9.15h-32.05v9.15l8.82 2.86v37.2l-8.7 2.86v9.16l23.91.57.8-8.13s9.97 9.27 20.03 9.27c8.13 0 13.17-3.77 15.8-9.84 1.95 1.95 10.52 9.84 20.71 9.84 12.02 0 17.62-7.78 17.62-20.6v-30.33l7.79-2.86v-9.15M2660.69 1955.45c0 6.52-2.74 11.44-9.38 11.44-6.41 0-10.41-4.69-11.33-11.44zm-20.93-10.65c.68-9.15 5.94-14.53 13.83-14.53 9.51 0 19.23 5.38 19.23 5.38l4.92-9.5s-11.44-9.61-26.09-9.61c-19.68 0-29.76 11.44-29.76 30.9 0 20.02 11.34 33.18 30.56 33.18 17.05 0 25.98-10.53 25.98-26.89 0-4.35-.69-8.58-.69-8.93h-37.98M2711.47 1971.59s10.88 8.8 21.07 8.8c11.09 0 17.39-7.89 17.39-20.37v-30.33l8.01-2.86v-9.15h-31.48v9.15l6.3 2.86v27.25c0 5.26-2.97 9.15-7.78 9.15-7.09 0-12.25-6.52-12.25-6.52v-29.88l6.3-2.86v-9.15h-32.61v9.15l9.15 2.86v37.2l-9.15 2.86v9.16l24.25.57.8-7.89M2809.52 1923.63c-5.6-4.12-12.02-7.09-19.45-7.09-13.17 0-16.94 9.15-16.94 22.31v26.32h-10.64v11.1l10.64 1.49v15.8l17.16 3.08v-18.88h16.03v-12.59h-16.03V1940c0-7.33 1.26-10.31 6.07-10.31 3.09 0 7.56 1.84 9.04 2.64l4.12-8.7"/></g><path d="M42.13 126.985h38.512v-38.51H42.13v38.51" fill="#0b46dd"/><g clip-path="url(#i)" transform="matrix(.13333 0 0 -.13333 -9.613 368.899)"><path d="M380.117 1841.23l-13.176 12.35 131.145 139.87a9.04 9.04 0 0 0 7.566 2.8 9.022 9.022 0 0 0 6.789-4.39l31.153-52.79 86.855 96.32 13.406-12.09-95.066-105.44a9.043 9.043 0 0 0-7.617-2.94 9.082 9.082 0 0 0-6.875 4.39l-31.277 53.01-122.903-131.09" fill="#fff"/><path d="M657.129 2052.07l-39.199-6.43 36.894-33.24z" fill="#fff"/><path d="M388.066 803.398h288.848v288.852H388.066V803.398" fill="#f89d0e"/><path d="M577.727 983.988c-12.559 0-22.778 10.543-22.778 23.502 0 12.95 10.219 23.51 22.778 23.51 12.554 0 22.781-10.56 22.781-23.51 0-12.959-10.227-23.502-22.781-23.502M529.52 882.379c-7.235 0-13.114 6.07-13.114 13.519 0 7.454 5.879 13.512 13.114 13.512 7.226 0 13.097-6.058 13.097-13.512 0-7.449-5.871-13.519-13.097-13.519m-48.211 73c-9.454 0-17.149 7.922-17.149 17.691 0 9.739 7.695 17.668 17.149 17.668 9.453 0 17.136-7.937 17.136-17.668 0-9.769-7.683-17.691-17.136-17.691m142.531-66.547v48.5c-.024 17.828-11.985 32.77-28.039 36.828 11.308 6.539 18.965 19.012 18.965 33.32 0 21.09-16.59 38.2-37.039 38.2-20.454 0-37.036-17.11-37.036-38.2 0-14.308 7.661-26.781 18.965-33.32-16.07-4.058-28.047-19-28.047-36.828V924c-.691.051-1.382.109-2.089.109-3.29 0-6.434-.621-9.364-1.73-3.183 11.293-11.933 19.941-22.843 22.859 9.203 5.66 15.39 15.973 15.39 27.821 0 17.882-14.07 32.371-31.394 32.371-17.356 0-31.399-14.489-31.399-32.371 0-11.848 6.184-22.188 15.395-27.829-13.867-3.718-24.16-16.71-24.16-32.179V845.25c0-4.059 3.191-7.352 7.125-7.352 3.937 0 7.128 3.293 7.128 7.352v67.809c0 10.23 8.071 18.57 17.993 18.57h15.82c9.129 0 16.824-7.059 17.898-16.391.071-.726.125-1.449.125-2.179v-.821c-3.191-4.609-5.078-10.25-5.078-16.34a28.622 28.622 0 0 1 5.078-16.339v-5.918c-6.394-4.86-10.379-12.309-10.886-20.582-.032-.61-.118-1.18-.118-1.789v-48c0-4.051 3.196-7.329 7.129-7.329 3.926 0 7.121 3.278 7.121 7.329v48c0 4.992 2.704 9.511 7.11 11.8a12.49 12.49 0 0 0 4.219 1.309c.078 0 .164.012.261.019.379.043.789.063 1.2.063h12.511c.41 0 .821-.02 1.192-.063.09-.007.156-.007.234-.019.148-.027.32-.059.469-.078 6.211-.973 10.887-6.563 10.887-13.031v-50.188c0-4.062 3.195-7.352 7.121-7.352 3.945 0 7.129 3.29 7.129 7.352v50.188c0 10.378-5.704 19.691-14.192 24.46 5.09 5.129 8.242 12.27 8.242 20.168 0 9.274-4.336 17.442-11.004 22.59v18.844c0 12.848 10.118 23.277 22.547 23.277h18.645c12.414 0 22.519-10.429 22.519-23.277V841.02c0-4.071 3.184-7.348 7.129-7.348 3.938 0 7.117 3.289 7.117 7.348v26.3l.024 21.512" fill="#fff"/><path d="M577.727 1030.85c-12.493 0-22.637-10.48-22.637-23.35 0-12.891 10.144-23.371 22.637-23.371 12.488 0 22.656 10.48 22.656 23.371 0 12.87-10.168 23.35-22.656 23.35m0-46.991c-12.637 0-22.914 10.61-22.914 23.641 0 13.02 10.277 23.62 22.914 23.62 12.644 0 22.918-10.6 22.918-23.62 0-13.031-10.274-23.641-22.918-23.641m-96.418 6.75c-9.383 0-17.012-7.879-17.012-17.55 0-9.668 7.629-17.547 17.012-17.547 9.375 0 17.011 7.879 17.011 17.547 0 9.671-7.636 17.55-17.011 17.55m0-35.371c-9.532 0-17.286 8-17.286 17.821 0 9.82 7.754 17.82 17.286 17.82 9.519 0 17.277-8 17.277-17.82 0-9.821-7.758-17.821-17.277-17.821m48.211-45.957c-7.157 0-12.977-6-12.977-13.383 0-7.378 5.82-13.386 12.977-13.386 7.152 0 12.968 6.008 12.968 13.386 0 7.383-5.816 13.383-12.968 13.383m0-27.031c-7.301 0-13.243 6.121-13.243 13.648 0 7.524 5.942 13.653 13.243 13.653 7.296 0 13.234-6.129 13.234-13.653 0-7.527-5.938-13.648-13.234-13.648m-6.25-17.648h12.511c.41 0 .821-.024 1.223-.063.047-.008.098-.008.137-.008l.078-.011a4.62 4.62 0 0 1 .476-.09c6.27-.969 11.004-6.621 11.004-13.16v-50.188c0-3.98 3.125-7.223 6.985-7.223 3.859 0 6.992 3.243 6.992 7.223v50.188c0 10.121-5.403 19.449-14.113 24.351l-.145.09.117.129c5.281 5.332 8.203 12.461 8.203 20.058 0 8.903-4.004 17.102-10.968 22.481l-.055.043v18.918c0 12.898 10.183 23.398 22.691 23.398h18.645c12.492 0 22.656-10.5 22.656-23.398V841.02c0-3.969 3.137-7.211 6.992-7.211 3.848 0 6.992 3.242 6.992 7.211v26.3l.008 21.512v48.508c-.008 8.621-2.769 16.742-7.976 23.48-5.047 6.539-12.137 11.231-19.953 13.219l-.321.07.274.172c11.66 6.739 18.906 19.457 18.906 33.209 0 20.98-16.555 38.05-36.902 38.05-20.356 0-36.899-17.07-36.899-38.05 0-13.74 7.238-26.47 18.899-33.209l.293-.172-.332-.07c-7.833-1.988-14.922-6.687-19.969-13.219-5.207-6.738-7.973-14.859-7.973-23.48v-13.481h-.144c-.735.071-1.407.121-2.082.121-3.141 0-6.266-.582-9.305-1.718l-.137-.051-.039.129c-3.152 11.14-11.875 19.859-22.754 22.769l-.312.082.273.168c9.442 5.801 15.32 16.411 15.32 27.692 0 17.789-14.031 32.249-31.257 32.249-17.246 0-31.258-14.46-31.258-32.249 0-11.289 5.867-21.903 15.332-27.699l.262-.161-.301-.082c-14.16-3.808-24.055-16.988-24.055-32.07l-.012-67.789c0-3.98 3.125-7.219 6.993-7.219 3.847 0 6.984 3.239 6.984 7.219v67.801c0 10.328 8.137 18.73 18.137 18.73h15.82c9.207 0 16.961-7.109 18.023-16.531.09-.871.137-1.539.137-2.199v-.86l-.027-.031c-3.313-4.789-5.047-10.41-5.047-16.262 0-5.859 1.734-11.476 5.047-16.269l.027-.027v-6.02l-.047-.043c-6.386-4.84-10.344-12.32-10.84-20.488-.007-.231-.031-.449-.046-.672a9.336 9.336 0 0 1-.071-1.109v-47.989c0-3.98 3.137-7.23 6.992-7.23 3.848 0 6.993 3.25 6.993 7.23v47.989c0 5.062 2.746 9.609 7.175 11.91 1.36.711 2.786 1.16 4.258 1.332.11.019.18.019.266.027.398.039.801.063 1.219.063m32.414-71c-3.996 0-7.254 3.347-7.254 7.48v50.188c0 6.41-4.629 11.941-10.774 12.89-.156.031-.32.051-.488.09h-.051c-.047.012-.097.012-.152.02-.383.039-.781.062-1.184.062H523.27c-.399 0-.797-.023-1.192-.062l-.242-.02a12.039 12.039 0 0 1-4.18-1.309c-4.336-2.25-7.043-6.722-7.043-11.671v-47.989c0-4.121-3.258-7.492-7.254-7.492-4.011 0-7.265 3.371-7.265 7.492v47.989c0 .39.027.769.066 1.128.024.223.051.442.063.661.496 8.242 4.461 15.761 10.886 20.66v5.801c-3.332 4.82-5.078 10.492-5.078 16.378 0 5.891 1.746 11.563 5.078 16.383v.77c0 .648-.039 1.32-.144 2.16-1.059 9.301-8.684 16.301-17.754 16.301h-15.82c-9.856 0-17.864-8.282-17.864-18.461V845.25c0-4.129-3.261-7.48-7.257-7.48-4 0-7.262 3.351-7.262 7.48l.008 67.789c0 15.09 9.836 28.313 23.964 32.242-9.382 5.891-15.207 16.5-15.207 27.77 0 17.937 14.145 32.519 31.536 32.519 17.382 0 31.535-14.582 31.535-32.519 0-11.27-5.813-21.879-15.199-27.762 10.8-3 19.433-11.68 22.609-22.719 3.027 1.11 6.133 1.68 9.266 1.68.648 0 1.281-.051 1.957-.102v13.192c0 8.68 2.769 16.859 8.027 23.648 5.016 6.492 12.039 11.184 19.805 13.231-11.575 6.82-18.75 19.543-18.75 33.271 0 21.13 16.675 38.33 37.168 38.33 20.488 0 37.168-17.2 37.168-38.33 0-13.728-7.168-26.451-18.75-33.271 7.761-2.047 14.773-6.731 19.793-13.231 5.253-6.789 8.015-14.968 8.027-23.648v-48.508l-.012-21.512v-26.3c0-4.141-3.262-7.481-7.254-7.481-3.965 0-7.187 3.281-7.265 7.352h-.008v96.449c0 12.75-10.039 23.129-22.375 23.129h-18.645c-12.359 0-22.422-10.379-22.422-23.129v-18.801c7.004-5.418 11.02-13.668 11.02-22.641 0-7.617-2.895-14.757-8.149-20.128 8.696-4.981 14.094-14.34 14.094-24.5v-50.188c0-4.133-3.261-7.48-7.265-7.48" fill="#fff"/><path d="M388.066 1140.37h288.848v288.85H388.066v-288.85" fill="#950f61"/><path d="M534.402 1184.58c-5.879 0-11.804.56-17.714 1.71-18.512 3.6-35.211 12.64-48.297 26.11-12.793 13.18-21.282 29.64-24.551 47.62l17.769 3.24c2.621-14.46 9.446-27.69 19.731-38.28 10.508-10.82 23.926-18.07 38.797-20.96 19.336-3.76 39.004.23 55.332 11.25 16.34 11.02 27.422 27.74 31.172 47.09l17.722-3.43c-4.683-24.09-18.465-44.91-38.797-58.62-15.351-10.36-33.046-15.73-51.164-15.73" fill="#fff"/><path d="M449.91 1281.77l-17.89-31.41 44.613 7.07zM460.535 1306.24l-17.762 3.22a88.54 88.54 0 0 0 1.27 5.9c5.93 23.81 20.781 43.87 41.797 56.5 21.035 12.64 45.715 16.33 69.519 10.39 17.063-4.25 32.446-13.23 44.477-25.96a92.039 92.039 0 0 0 23.223-44.38l-17.676-3.7a73.981 73.981 0 0 1-18.664 35.68c-9.668 10.21-22.012 17.42-35.723 20.85-19.121 4.76-38.953 1.8-55.851-8.35-16.891-10.15-28.817-26.27-33.59-45.38a73.75 73.75 0 0 1-1.02-4.77" fill="#fff"/><path d="M613.445 1289.55l19.516 30.41-44.926-4.73z" fill="#fff"/><path d="M388.066 1477.36h288.848v288.86H388.066v-288.86" fill="#af8862"/><path d="M486.855 1608.97l45.633-31.95c-3.34-7.36-9.8-13.44-16.453-13.44-5.879 0-7.414.78-12.258 4.19l-38.894 27.44c6.523 9.54 14.062 13.4 21.972 13.76m87.383 71.02c15.137-.03 33.575-7.11 51.719-12.42a5.102 5.102 0 0 1 3.867.39l20.321 11.07v-61.44c-10.235-4.31-21.637-8.02-32.02-14.47l-42.148 46.89c-1.426 1.49-2.872 2.17-4.266 2.14-1.379-.03-2.734-.76-4.191-2.06-7.481-7.34-21.133-18.19-31.243-18.19-2.429 0-4.39.97-6.636 3.09-1.555 1.46-3.008 4.05-4.512 6.49 0 0 29.351 29.52 30.008 30.17 6.367 6.31 12.019 8.34 19.101 8.34m-48.066 0c5.891 0 12.461-2.72 16.199-6.97l-27.359-27.36c-1.535-1.5-1.938-4.02-.949-5.93 2.375-4.51 5.07-8.75 8.613-12.09 3.554-3.36 8.262-5.86 13.601-5.86 14.309 0 26.926 10.17 35.2 18.03l38.191-42.38-40.41-28.34a48.731 48.731 0 0 0-7.813-5.05c-3.632-1.64-8.84-2.99-12.507-2.99-2.266 0-7.141 1.94-11.543 3.95a39.348 39.348 0 0 1 6.25 12.34c.613 2.02-.188 4.39-1.907 5.61l-50.605 35.43c-.867.58-1.895.89-2.918.87-8.93 0-17.949-3.43-25.559-10.67-4.297 3.45-39.211 20.23-44.66 22.53l29.719 47.92 20.32-11.07a5.096 5.096 0 0 1 3.789-.39c23.656 6.71 36.379 12.42 54.348 12.42m-83.516 12.64c-2.566-.08-5.078-2.56-5.058-5.06l-32.903-58.2c.024-2.09 1.496-4.09 3.469-4.74 5.242-1.74 43.621-20.28 47.93-23.8a59.284 59.284 0 0 1-2.688-4.35c-1.226-2.17-.535-5.22 1.504-6.65l43.02-30.36c5.547-3.91 10.8-6.01 18.105-6.01 4.988 0 9.531 1.49 13.445 4.03 4.708-2.5 11.868-6.56 19.458-6.56 5.015 0 10.41 1.13 15.144 3.12 3.738 1.53 6.348 3.49 9.734 5.86l40.364 28.29c4.05 2.77 8.371 5.95 12.312 8.12 9.278 5.06 20.246 8.58 30.774 13.28 1.777.79 2.988 2.66 3.007 4.59v73.38c.032 2.88-2.175 5.06-5.058 5.06-1.211.01-2.156-.38-3.137-.92l-25.254-13.78c-16.953 5.1-35.113 12.14-52.586 12.18-8.777 0-17.043-3.19-24.59-9.89-5.988 6.7-15.007 9.89-23.476 9.89-19.434 0-33.34-5.88-55.039-12.18l-25.528 13.88c-.976.6-2.226.82-2.949.82" fill="#fff"/><path d="M571.809 1653.77c1.851 0 3.652-.88 5.339-2.63l.032-.05 41.25-45.88c7.554 4.52 15.515 7.66 23.211 10.7 2.39.94 4.648 1.84 6.894 2.76v57.63l-17.922-9.77a6.774 6.774 0 0 0-5.125-.52c-3.957 1.16-7.988 2.42-11.875 3.64-14.289 4.47-27.785 8.68-39.383 8.7-7.21 0-12.238-2.2-17.953-7.86-.586-.57-24.16-24.29-29.097-29.26.027-.03.047-.05.054-.08 1.164-1.92 2.375-3.91 3.528-4.98 1.98-1.88 3.586-2.64 5.515-2.64 8.891 0 21.77 9.54 30.11 17.72l.051.05c1.843 1.65 3.511 2.43 5.234 2.47zm46.011-52.76l-43.023 47.89c-1.074 1.1-2.094 1.64-3.051 1.62-.906-.02-1.891-.53-3.113-1.62-3.25-3.18-19.668-18.62-32.356-18.62-2.808 0-5.132 1.05-7.754 3.52-1.46 1.38-2.722 3.46-4.07 5.66-.234.38-.469.77-.703 1.15l-.676 1.1.91.91c1.204 1.2 29.344 29.53 30.008 30.18 6.321 6.25 12.18 8.81 20.246 8.81 12.09-.02 25.813-4.32 40.332-8.86 3.899-1.22 7.903-2.47 11.848-3.63a3.505 3.505 0 0 1 2.637.27l22.73 12.38v-65.26l-1.004-.42c-2.59-1.09-5.183-2.11-7.937-3.2-7.973-3.15-16.211-6.39-23.852-11.16zm-150.679-5.41l37.586-26.5c4.675-3.31 5.937-3.9 11.308-3.9 5.176 0 10.957 4.58 14.387 11.28l-44.035 30.84c-7.5-.52-13.821-4.36-19.246-11.72m48.894-33.65c-6.199 0-8.047.85-13.191 4.49l-40.207 28.37.898 1.32c6.278 9.18 14.11 14.04 23.25 14.46l.551.02 47.184-33.03-.555-1.23c-3.25-7.17-10.047-14.4-17.93-14.4m23.836 3.72c6.152-2.68 8.359-3 9.067-3 3.203 0 8.164 1.19 11.804 2.83a47.914 47.914 0 0 1 7.512 4.86l.066.06 38.914 27.28-35.855 39.79c-12.602-11.66-24.094-17.33-35.102-17.33-5.183 0-10.418 2.23-14.714 6.29-3.235 3.05-5.989 6.91-8.934 12.52-1.32 2.55-.793 5.85 1.25 7.85l26.199 26.22c-3.484 3.22-8.879 5.31-13.918 5.31-13.34 0-23.797-3.22-38.269-7.68-4.61-1.42-9.825-3.03-15.618-4.67a6.7 6.7 0 0 0-5 .53l-18.992 10.34-27.91-45.04c8.113-3.68 35.195-16.73 42.141-21.18 7.449 6.69 16.297 10.22 25.691 10.22a6.613 6.613 0 0 0 3.828-1.15l50.637-35.44c2.281-1.63 3.348-4.75 2.52-7.42a40.184 40.184 0 0 0-5.317-11.19m9.067-6.25c-.801 0-3.235 0-12.227 4.1l-1.84.84 1.234 1.63a37.353 37.353 0 0 1 5.973 11.8c.422 1.38-.137 3.01-1.277 3.84l-50.606 35.42c-.554.38-1.25.59-1.965.57-8.992 0-17.429-3.53-24.453-10.23l-1.023-.98-1.113.89c-4.043 3.25-38.387 19.83-44.27 22.31l-1.746.74 31.516 50.84 21.668-11.8a3.49 3.49 0 0 1 2.578-.26c5.754 1.63 10.957 3.23 15.547 4.65 14.746 4.54 25.402 7.83 39.226 7.83 6.469 0 13.469-3.02 17.434-7.51l1.008-1.15-28.442-28.44c-1.023-1-1.305-2.77-.664-4.03 2.785-5.27 5.332-8.88 8.293-11.67 3.699-3.48 8.137-5.41 12.488-5.41 10.481 0 21.633 5.75 34.075 17.59l1.211 1.15 40.539-44.99-41.868-29.36a49.704 49.704 0 0 0-8.046-5.2l-.071-.03c-4.07-1.85-9.488-3.14-13.179-3.14m-19.536-.05l1.672-.89c4.696-2.5 11.133-5.93 17.864-5.93 4.773 0 9.941 1.06 14.519 3 3.203 1.31 5.52 2.93 8.438 4.99l.988.7 40.371 28.29 2.73 1.9c3.235 2.25 6.582 4.58 9.739 6.31 5.832 3.19 12.168 5.71 18.867 8.37 3.957 1.57 8.047 3.21 12.019 4.97 1.196.53 2.036 1.82 2.043 3.12v73.37c.008.95-.332 1.82-.949 2.44-.633.64-1.519.99-2.488 1h-.012c-.84 0-1.519-.28-2.344-.73l-25.847-14.11-.657.2c-3.171.95-6.453 2-9.625 3.01-14.027 4.46-28.539 9.08-42.5 9.1-8.5 0-16.417-3.19-23.507-9.48l-1.211-1.07-1.082 1.21c-5.215 5.84-13.559 9.34-22.27 9.34-15.144 0-26.972-3.66-41.93-8.28-3.996-1.24-8.136-2.52-12.66-3.84l-.64-.18-26.164 14.24c-.696.43-1.614.58-2.078.59-1.704-.07-3.489-1.83-3.477-3.43l.008-.43-32.871-58.15c.183-1.26 1.132-2.44 2.336-2.83 5.379-1.79 43.945-20.41 48.433-24.09l1.164-.94-.84-1.23a54.564 54.564 0 0 1-2.617-4.23c-.82-1.46-.344-3.56 1.016-4.52l43.015-30.37c5.754-4.05 10.735-5.71 17.18-5.71 4.461 0 8.699 1.27 12.57 3.77zm19.536-10.07c-7.551 0-14.68 3.8-19.387 6.31l-.008.01c-4.172-2.52-8.715-3.79-13.508-3.79-7.082 0-12.781 1.88-19.043 6.31l-43.015 30.37c-2.747 1.91-3.633 5.85-1.985 8.77a69.5 69.5 0 0 0 1.863 3.12c-7.722 4.87-41.433 21.1-46.187 22.69-2.641.86-4.555 3.49-4.594 6.26l-.008.44 32.918 58.24c.254 3.22 3.286 6.13 6.614 6.23h.058c.938 0 2.489-.27 3.77-1.05l24.883-13.54a776.02 776.02 0 0 1 11.953 3.63c15.234 4.71 27.258 8.43 42.898 8.43 9.055 0 17.746-3.44 23.606-9.27 7.39 6.15 15.625 9.27 24.472 9.27 14.461-.03 29.219-4.72 43.489-9.26 2.937-.94 5.964-1.9 8.914-2.8l24.668 13.47c1.027.55 2.277 1.12 3.894 1.12h.024c1.836-.01 3.543-.7 4.785-1.97 1.238-1.24 1.902-2.92 1.89-4.73v-73.37c-.015-2.59-1.621-5.02-3.972-6.08-4.024-1.79-8.145-3.43-12.129-5.02-6.621-2.63-12.863-5.11-18.516-8.2-3-1.64-6.277-3.92-9.441-6.12-.93-.66-1.836-1.29-2.754-1.91l-41.328-28.98c-2.969-2.08-5.532-3.89-9.074-5.34-4.942-2.08-10.555-3.24-15.75-3.24" fill="#fff"/><path d="M571.809 1653.77c1.851 0 3.652-.88 5.339-2.63l.032-.05 41.25-45.88c7.554 4.52 15.515 7.66 23.211 10.7 2.39.94 4.648 1.84 6.894 2.76v57.63l-17.922-9.77a6.774 6.774 0 0 0-5.125-.52c-3.957 1.16-7.988 2.42-11.875 3.64-14.289 4.47-27.785 8.68-39.383 8.7-7.21 0-12.238-2.2-17.953-7.86-.586-.57-24.16-24.29-29.097-29.26.027-.03.047-.05.054-.08 1.164-1.92 2.375-3.91 3.528-4.98 1.98-1.88 3.586-2.64 5.515-2.64 8.891 0 21.77 9.54 30.11 17.72l.051.05c1.843 1.65 3.511 2.43 5.234 2.47zm46.011-52.76l-43.023 47.89c-1.074 1.1-2.094 1.64-3.051 1.62-.906-.02-1.891-.53-3.113-1.62-3.25-3.18-19.668-18.62-32.356-18.62-2.808 0-5.132 1.05-7.754 3.52-1.46 1.38-2.722 3.46-4.07 5.66-.234.38-.469.77-.703 1.15l-.676 1.1.91.91c1.204 1.2 29.344 29.53 30.008 30.18 6.321 6.25 12.18 8.81 20.246 8.81 12.09-.02 25.813-4.32 40.332-8.86 3.899-1.22 7.903-2.47 11.848-3.63a3.505 3.505 0 0 1 2.637.27l22.73 12.38v-65.26l-1.004-.42c-2.59-1.09-5.183-2.11-7.937-3.2-7.973-3.15-16.211-6.39-23.852-11.16zm-150.679-5.41l37.586-26.5c4.675-3.31 5.937-3.9 11.308-3.9 5.176 0 10.957 4.58 14.387 11.28l-44.035 30.84c-7.5-.52-13.821-4.36-19.246-11.72m48.894-33.65c-6.199 0-8.047.85-13.191 4.49l-40.207 28.37.898 1.32c6.278 9.18 14.11 14.04 23.25 14.46l.551.02 47.184-33.03-.555-1.23c-3.25-7.17-10.047-14.4-17.93-14.4m23.836 3.72c6.152-2.68 8.359-3 9.067-3 3.203 0 8.164 1.19 11.804 2.83a47.914 47.914 0 0 1 7.512 4.86l.066.06 38.914 27.28-35.855 39.79c-12.602-11.66-24.094-17.33-35.102-17.33-5.183 0-10.418 2.23-14.714 6.29-3.235 3.05-5.989 6.91-8.934 12.52-1.32 2.55-.793 5.85 1.25 7.85l26.199 26.22c-3.484 3.22-8.879 5.31-13.918 5.31-13.34 0-23.797-3.22-38.269-7.68-4.61-1.42-9.825-3.03-15.618-4.67a6.7 6.7 0 0 0-5 .53l-18.992 10.34-27.91-45.04c8.113-3.68 35.195-16.73 42.141-21.18 7.449 6.69 16.297 10.22 25.691 10.22a6.613 6.613 0 0 0 3.828-1.15l50.637-35.44c2.281-1.63 3.348-4.75 2.52-7.42a40.184 40.184 0 0 0-5.317-11.19m9.067-6.25c-.801 0-3.235 0-12.227 4.1l-1.84.84 1.234 1.63a37.353 37.353 0 0 1 5.973 11.8c.422 1.38-.137 3.01-1.277 3.84l-50.606 35.42c-.554.38-1.25.59-1.965.57-8.992 0-17.429-3.53-24.453-10.23l-1.023-.98-1.113.89c-4.043 3.25-38.387 19.83-44.27 22.31l-1.746.74 31.516 50.84 21.668-11.8a3.49 3.49 0 0 1 2.578-.26c5.754 1.63 10.957 3.23 15.547 4.65 14.746 4.54 25.402 7.83 39.226 7.83 6.469 0 13.469-3.02 17.434-7.51l1.008-1.15-28.442-28.44c-1.023-1-1.305-2.77-.664-4.03 2.785-5.27 5.332-8.88 8.293-11.67 3.699-3.48 8.137-5.41 12.488-5.41 10.481 0 21.633 5.75 34.075 17.59l1.211 1.15 40.539-44.99-41.868-29.36a49.704 49.704 0 0 0-8.046-5.2l-.071-.03c-4.07-1.85-9.488-3.14-13.179-3.14m-19.536-.05l1.672-.89c4.696-2.5 11.133-5.93 17.864-5.93 4.773 0 9.941 1.06 14.519 3 3.203 1.31 5.52 2.93 8.438 4.99l.988.7 40.371 28.29 2.73 1.9c3.235 2.25 6.582 4.58 9.739 6.31 5.832 3.19 12.168 5.71 18.867 8.37 3.957 1.57 8.047 3.21 12.019 4.97 1.196.53 2.036 1.82 2.043 3.12v73.37c.008.95-.332 1.82-.949 2.44-.633.64-1.519.99-2.488 1h-.012c-.84 0-1.519-.28-2.344-.73l-25.847-14.11-.657.2c-3.171.95-6.453 2-9.625 3.01-14.027 4.46-28.539 9.08-42.5 9.1-8.5 0-16.417-3.19-23.507-9.48l-1.211-1.07-1.082 1.21c-5.215 5.84-13.559 9.34-22.27 9.34-15.144 0-26.972-3.66-41.93-8.28-3.996-1.24-8.136-2.52-12.66-3.84l-.64-.18-26.164 14.24c-.696.43-1.614.58-2.078.59-1.704-.07-3.489-1.83-3.477-3.43l.008-.43-32.871-58.15c.183-1.26 1.132-2.44 2.336-2.83 5.379-1.79 43.945-20.41 48.433-24.09l1.164-.94-.84-1.23a54.564 54.564 0 0 1-2.617-4.23c-.82-1.46-.344-3.56 1.016-4.52l43.015-30.37c5.754-4.05 10.735-5.71 17.18-5.71 4.461 0 8.699 1.27 12.57 3.77zm19.536-10.07c-7.551 0-14.68 3.8-19.387 6.31l-.008.01c-4.172-2.52-8.715-3.79-13.508-3.79-7.082 0-12.781 1.88-19.043 6.31l-43.015 30.37c-2.747 1.91-3.633 5.85-1.985 8.77a69.5 69.5 0 0 0 1.863 3.12c-7.722 4.87-41.433 21.1-46.187 22.69-2.641.86-4.555 3.49-4.594 6.26l-.008.44 32.918 58.24c.254 3.22 3.286 6.13 6.614 6.23h.058c.938 0 2.489-.27 3.77-1.05l24.883-13.54a776.02 776.02 0 0 1 11.953 3.63c15.234 4.71 27.258 8.43 42.898 8.43 9.055 0 17.746-3.44 23.606-9.27 7.39 6.15 15.625 9.27 24.472 9.27 14.461-.03 29.219-4.72 43.489-9.26 2.937-.94 5.964-1.9 8.914-2.8l24.668 13.47c1.027.55 2.277 1.12 3.894 1.12h.024c1.836-.01 3.543-.7 4.785-1.97 1.238-1.24 1.902-2.92 1.89-4.73v-73.37c-.015-2.59-1.621-5.02-3.972-6.08-4.024-1.79-8.145-3.43-12.129-5.02-6.621-2.63-12.863-5.11-18.516-8.2-3-1.64-6.277-3.92-9.441-6.12-.93-.66-1.836-1.29-2.754-1.91l-41.328-28.98c-2.969-2.08-5.532-3.89-9.074-5.34-4.942-2.08-10.555-3.24-15.75-3.24" fill="#fff"/><path d="M388.066 129.41h288.848v288.852H388.066V129.41" fill="#69a820"/><path d="M612.781 361.09c-15.445-7.918-39.988-20.41-66.941-33.719-26.602-13.141-53.797-27.551-72.442-43.762-9.519-8.257-16.113-16.308-20.175-24.57-4.258-8.68-5.586-17.43-4.024-26.75 3.672-21.91 12.586-36.84 26.516-44.379 14.031-7.609 31.226-6.719 43.164-4.648 11.961 2.078 21.016 5.668 22.891 6.449 9.402 5.301 16.101 10.75 21.66 17.641 6.425 7.976 11.746 18.347 16.758 32.679 14.941 42.68 26.832 94.18 32.593 121.059M502.805 163.738c-11.75 0-24.258 2.114-35.696 8.301-19.062 10.313-31.074 29.59-35.714 57.281-2.176 12.981-.274 25.66 5.617 37.68 5.144 10.469 13.164 20.359 24.543 30.25 19.07 16.57 44.285 30.488 76.289 46.309 44.89 22.191 83.035 42.023 83.418 42.23a9.072 9.072 0 0 0 9.558-.769 9.029 9.029 0 0 0 3.465-8.95c-.144-.8-15.457-80.289-37.058-142-10.809-30.89-23.567-47.238-47.082-60.371-.243-.14-.504-.258-.77-.379-1.301-.582-22.297-9.582-46.57-9.582" fill="#fff"/><path d="M443.789 97.332a9.078 9.078 0 0 0-3.652.777c-4.563 2.032-6.614 7.36-4.602 11.911.363.8 8.828 19.82 26.262 50.75 16.016 28.429 42.969 72.679 80.293 121.96 3.015 3.981 8.68 4.758 12.644 1.758 3.977-3.019 4.77-8.679 1.75-12.648-36.64-48.379-63.078-91.77-78.808-119.668-17.063-30.231-25.547-49.274-25.645-49.461a9.006 9.006 0 0 0-8.242-5.379" fill="#fff"/><path d="M388.066 466.41h288.848v288.84H388.066V466.41" fill="#de0a0a"/><path d="M623.125 547.539s-88.711-16.457-181.277 0c-.735.141 0 9.07 0 9.07 10.027.09 18.132 8.231 18.132 18.289v12.133c0 37.481 19.043 69.918 47.958 78.731a9.065 9.065 0 0 1 6.417 8.679v5.09a3.983 3.983 0 0 0 3.973 3.981h28.32c2.192 0 3.965-1.793 3.965-3.981v-5.09a9.047 9.047 0 0 1 6.321-8.64c29.461-9.36 48.078-39.91 48.078-76.813v-14.09c0-10.058 8.086-18.199 18.113-18.289v-9.07m-181.277 39.492v-12.133c0-.097-9.067-.168-9.067-.168a9.056 9.056 0 0 1-9.058-9.058V538.48c0-5.011 2.398-7.781 9.058-9.058 108.949-21.113 199.407 0 199.407 0a9.053 9.053 0 0 1 9.062 9.058v27.192c0 5-4.055 9.058-9.062 9.058h-8.895c-.102 0-.168 14.258-.168 14.258 0 41.75-20.508 77.801-54.414 91.793-.652 11.617-10.281 20.848-22.063 20.848h-28.32c-11.765 0-21.387-9.199-22.058-20.789-33.665-13.789-54.422-51.61-54.422-93.809" fill="#fff"/><path d="M496.23 674.43v-18.129c0-5 4.063-9.051 9.063-9.051 5.012 0 9.062 4.051 9.062 9.051v18.129c0 5-4.05 9.07-9.062 9.07-5 0-9.063-4.07-9.063-9.07M550.613 669.672V642c0-5.012 4.067-9.059 9.067-9.059a9.043 9.043 0 0 1 9.05 9.059v27.672a9.044 9.044 0 0 1-9.05 9.058c-5 0-9.067-4.05-9.067-9.058M534.109 608.102c-.535 0-1.062-.02-1.609-.063-12.605-.879-22.148-11.867-21.262-24.469.434-6.101 3.203-11.672 7.825-15.699 4.621-4 10.527-5.992 16.628-5.562 6.118.429 11.692 3.222 15.704 7.839 4.015 4.622 5.988 10.524 5.57 16.633-.852 12.059-10.93 21.321-22.856 21.321m-.066-63.903c-9.883 0-19.297 3.512-26.816 10.063-8.262 7.179-13.235 17.148-13.997 28.047-1.582 22.531 15.469 42.152 38.008 43.73 22.532 1.582 42.16-15.469 43.723-38 .769-10.93-2.766-21.48-9.941-29.738-7.176-8.262-17.149-13.219-28.055-13.992h-.012a48.327 48.327 0 0 0-2.91-.11" fill="#fff"/></g><path d="M295.142 64.37h2.684l-.315-2.037a21.84 21.84 0 0 1-.227-2.02 14.77 14.77 0 0 1-.809 1.654zm-2.954 3.17l4.598-8.112h1.278l1.34 8.112h-1.052l-.393-2.336h-3.281l-1.302 2.336h-1.188M304.406 65.399l1.002.105c-.252.733-.608 1.277-1.072 1.635-.462.356-.989.533-1.58.533-.637 0-1.156-.207-1.552-.619-.397-.413-.594-.99-.594-1.732 0-.641.128-1.273.381-1.893.256-.62.62-1.09 1.093-1.415a2.818 2.818 0 0 1 1.624-.484c.631 0 1.131.179 1.5.536.37.355.554.827.554 1.412l-.986.068c-.004-.373-.11-.664-.322-.874-.212-.212-.492-.316-.839-.316a1.55 1.55 0 0 0-1.047.382c-.294.254-.526.64-.694 1.159a4.841 4.841 0 0 0-.251 1.497c0 .5.11.878.332 1.128.221.252.493.378.819.378.324 0 .636-.124.932-.372.297-.247.53-.623.7-1.128M308.358 66.727l-.167.818c-.24.063-.472.094-.697.094-.399 0-.716-.098-.952-.292-.178-.148-.266-.348-.266-.604 0-.128.048-.426.143-.891l.716-3.413h-.792l.16-.776h.792l.304-1.444 1.145-.692-.448 2.136h.986l-.167.776h-.979l-.681 3.246c-.085.415-.128.662-.128.743 0 .117.035.208.103.27.069.063.18.094.334.094.222 0 .42-.021.594-.065M310.586 60.563l.238-1.135h.996l-.238 1.135zm-1.46 6.977l1.229-5.877h1.001l-1.228 5.877h-1.002M312.86 65.21c0 .554.134.973.399 1.26.267.285.604.429 1.013.429.215 0 .426-.044.638-.131.209-.087.405-.219.585-.396a2.65 2.65 0 0 0 .463-.605c.126-.227.23-.472.306-.734a3.51 3.51 0 0 0 .172-1.052c0-.53-.133-.942-.401-1.237a1.308 1.308 0 0 0-1.01-.439c-.314 0-.6.075-.858.224a2.27 2.27 0 0 0-.699.655 2.91 2.91 0 0 0-.46 1.005 4.19 4.19 0 0 0-.148 1.022zm-1.001.1c0-1.147.337-2.098 1.013-2.851.558-.62 1.288-.93 2.192-.93.708 0 1.279.222 1.712.664.434.443.651 1.042.651 1.795 0 .675-.136 1.301-.41 1.884-.271.581-.66 1.027-1.163 1.336a2.996 2.996 0 0 1-1.592.464c-.458 0-.874-.097-1.248-.292a2.03 2.03 0 0 1-.858-.83 2.527 2.527 0 0 1-.297-1.24M317.986 67.54l1.229-5.877h.908l-.216 1.024c.395-.403.763-.695 1.107-.88a2.2 2.2 0 0 1 1.05-.278c.476 0 .851.131 1.122.388.27.258.405.603.405 1.036 0 .218-.047.56-.143 1.028l-.748 3.559H321.7l.78-3.724c.079-.363.116-.63.116-.803a.612.612 0 0 0-.201-.476c-.135-.122-.33-.182-.584-.182-.512 0-.968.184-1.37.553-.4.37-.693 1.001-.882 1.897l-.571 2.735h-1.001M294.875 84.59a9.34 9.34 0 0 1-.87-3.913c0-.893.118-1.724.353-2.493.233-.768.59-1.53 1.07-2.283.318-.5.824-1.15 1.522-1.948h.781c-.432.462-.888 1.112-1.37 1.948a10.45 10.45 0 0 0-1.05 2.47 9.33 9.33 0 0 0-.325 2.434c0 1.218.212 2.479.636 3.786h-.747M297.615 79.887l1.019-.1c-.008.144-.012.23-.012.26 0 .245.061.489.184.737.124.247.292.436.504.565.213.132.437.198.673.198.31 0 .625-.107.945-.32.322-.216.583-.527.782-.935.2-.41.298-.817.298-1.22 0-.452-.134-.816-.401-1.09-.268-.271-.619-.409-1.055-.409-.292 0-.566.071-.826.211s-.503.35-.728.63l-.874-.06 1.223-4.151h3.961l-.193.92h-3.083l-.609 2.062c.23-.165.465-.289.707-.373a2.28 2.28 0 0 1 .744-.124c.62 0 1.129.205 1.528.613.398.411.597.972.597 1.683a3.68 3.68 0 0 1-.41 1.724 2.94 2.94 0 0 1-1.126 1.212 2.984 2.984 0 0 1-1.547.424c-.464 0-.876-.105-1.233-.316-.359-.21-.627-.5-.807-.868a2.528 2.528 0 0 1-.268-1.107c0-.038.003-.093.007-.166M305.056 79.925c0 .458.143.843.427 1.154.284.313.604.468.963.468.25 0 .517-.096.797-.286.281-.19.517-.477.713-.865.196-.388.294-.773.294-1.157 0-.495-.135-.891-.407-1.187a1.279 1.279 0 0 0-.983-.445c-.442 0-.853.217-1.233.65-.38.434-.57.99-.57 1.668zm.35-2.422c.281-.234.56-.408.838-.524.279-.116.555-.175.827-.175.617 0 1.125.21 1.527.63.402.422.604.987.604 1.7 0 .92-.299 1.707-.898 2.363-.514.566-1.142.847-1.881.847-.67 0-1.23-.247-1.679-.739-.448-.492-.672-1.194-.672-2.105 0-.816.143-1.659.431-2.53.221-.667.496-1.218.823-1.651.325-.434.673-.751 1.04-.955a2.53 2.53 0 0 1 1.242-.304c.554 0 1.006.172 1.356.516.35.345.55.839.598 1.481l-.93.088c-.052-.438-.176-.756-.374-.952a.987.987 0 0 0-.723-.292c-.297 0-.599.115-.9.348-.304.232-.563.576-.781 1.032a5.97 5.97 0 0 0-.448 1.222M316.33 80.988c0 .305.058.525.174.656.116.13.272.197.467.197a.89.89 0 0 0 .63-.27c.19-.178.34-.466.45-.863a3.9 3.9 0 0 0 .165-1.027c0-.25-.062-.442-.188-.574a.645.645 0 0 0-.493-.2c-.213 0-.41.086-.59.258-.182.171-.329.443-.443.816a3.457 3.457 0 0 0-.172 1.007zm-.854-.19c0-.15.036-.382.104-.695.068-.314.168-.595.302-.842.133-.248.28-.444.442-.592.162-.148.339-.257.532-.325.191-.07.408-.107.652-.107.52 0 .914.132 1.183.396.267.263.4.651.4 1.159a3.8 3.8 0 0 1-.268 1.345c-.18.472-.424.819-.737 1.038-.311.218-.684.33-1.119.33-.484 0-.853-.137-1.108-.41-.255-.274-.383-.704-.383-1.296zm-4.094-4.027c0 .309.058.529.174.658.118.13.272.194.468.194.232 0 .444-.09.634-.268.19-.18.34-.467.448-.866.109-.398.164-.74.164-1.024 0-.246-.063-.437-.188-.569a.645.645 0 0 0-.494-.2c-.213 0-.41.085-.592.257-.181.172-.328.443-.442.816a3.445 3.445 0 0 0-.172 1.002zm-.37 5.734l6.7-8.552h.908l-6.673 8.552zm-.482-5.917c0-.15.034-.383.104-.696.066-.315.168-.595.3-.841.133-.248.281-.446.442-.592.163-.148.34-.258.532-.328.192-.071.41-.106.654-.106.52 0 .913.134 1.181.396.268.264.4.651.4 1.16 0 .424-.088.872-.268 1.346-.179.472-.424.817-.736 1.036-.312.22-.684.329-1.12.329-.484 0-.852-.136-1.107-.41-.254-.275-.382-.707-.382-1.294M321.752 73.953c.583 1.271.875 2.572.875 3.908 0 .896-.117 1.728-.352 2.495-.235.77-.59 1.53-1.07 2.287-.322.501-.829 1.15-1.522 1.948h-.78c.428-.466.884-1.116 1.367-1.954.482-.838.832-1.66 1.048-2.465a9.383 9.383 0 0 0 .324-2.437c0-1.219-.212-2.479-.636-3.782h.746M493.41 67.54l1.698-8.112h5.855l-.193.923h-4.771l-.53 2.524h4.647l-.194.924h-4.648l-.586 2.821h5.108l-.194.92h-6.192M500.974 67.54l1.069-5.101h-.897l.16-.776h.897l.17-.835c.09-.417.182-.717.275-.903.095-.185.248-.337.46-.457.212-.12.5-.179.866-.179.254 0 .624.052 1.108.159l-.184.876a3.449 3.449 0 0 0-.852-.133c-.195 0-.344.049-.446.148-.101.097-.188.329-.262.693l-.134.63h1.118l-.16.777h-1.118l-1.069 5.101h-1.001M504.123 67.54l1.07-5.101h-.898l.16-.776h.897l.171-.835c.088-.417.18-.717.275-.903.093-.185.246-.337.458-.457.214-.12.5-.179.867-.179.253 0 .624.052 1.107.159l-.184.876a3.449 3.449 0 0 0-.852-.133c-.195 0-.343.049-.446.148-.101.097-.188.329-.262.693l-.132.63h1.117l-.161.777h-1.118l-1.068 5.101h-1.001M508.538 64.087h3.3l.005-.222c0-.501-.127-.886-.376-1.153-.252-.268-.575-.401-.97-.401-.427 0-.817.148-1.17.442-.352.295-.615.74-.79 1.334zm2.912 1.456l.973.098c-.14.484-.461.943-.965 1.378-.503.437-1.104.653-1.802.653-.434 0-.834-.1-1.197-.301a1.972 1.972 0 0 1-.83-.876 2.915 2.915 0 0 1-.286-1.312c0-.643.15-1.266.447-1.868.296-.603.681-1.051 1.153-1.346a2.86 2.86 0 0 1 1.532-.44c.701 0 1.261.219 1.68.654.419.434.628 1.029.628 1.781 0 .29-.027.584-.077.885h-4.328a2.466 2.466 0 0 0-.022.311c0 .55.126.97.379 1.259.252.29.563.434.927.434.344 0 .681-.112 1.013-.337.332-.224.59-.55.775-.973M517.492 65.399l1.003.105c-.25.733-.608 1.277-1.072 1.635-.461.356-.99.533-1.579.533-.638 0-1.156-.207-1.552-.619-.397-.413-.596-.99-.596-1.732 0-.641.127-1.273.383-1.893.255-.62.617-1.09 1.092-1.415a2.819 2.819 0 0 1 1.625-.484c.63 0 1.13.179 1.499.536.37.355.555.827.555 1.412l-.987.068c-.004-.373-.112-.664-.324-.874-.212-.212-.49-.316-.839-.316-.4 0-.749.128-1.045.382-.295.254-.525.64-.693 1.159a4.847 4.847 0 0 0-.254 1.497c0 .5.112.878.334 1.128.221.252.493.378.817.378.327 0 .637-.124.935-.372.296-.247.529-.623.698-1.128M521.444 66.727l-.166.818a2.75 2.75 0 0 1-.696.094c-.399 0-.718-.098-.952-.292a.744.744 0 0 1-.267-.604c0-.128.05-.426.144-.891l.715-3.413h-.792l.16-.776h.792l.304-1.444 1.145-.692-.448 2.136h.984l-.165.776h-.979l-.681 3.246c-.084.415-.127.662-.127.743 0 .117.033.208.103.27.066.063.178.094.334.094.222 0 .419-.021.592-.065M523.674 60.563l.238-1.135h.996l-.238 1.135zm-1.462 6.977l1.23-5.877h1.001l-1.23 5.877h-1M526.252 67.54l-.962-5.877h.973l.504 3.238c.056.354.124.931.204 1.731.193-.416.439-.895.737-1.433l1.964-3.536h1.058l-3.366 5.877h-1.112M531.842 64.087h3.298c.003-.103.006-.178.006-.222 0-.501-.126-.886-.376-1.153-.251-.268-.575-.401-.968-.401-.43 0-.819.148-1.171.442-.352.295-.615.74-.79 1.334zm2.91 1.456l.975.098c-.141.484-.463.943-.967 1.378-.502.437-1.104.653-1.8.653-.434 0-.834-.1-1.198-.301-.363-.2-.64-.494-.831-.876a2.933 2.933 0 0 1-.285-1.312c0-.643.15-1.266.446-1.868.298-.603.682-1.051 1.155-1.346.47-.292.983-.44 1.532-.44.7 0 1.26.219 1.68.654.417.434.627 1.029.627 1.781 0 .29-.026.584-.076.885h-4.328a2.486 2.486 0 0 0-.023.311c0 .55.127.97.379 1.259.253.29.562.434.928.434.342 0 .68-.112 1.012-.337.332-.224.59-.55.774-.973M536.74 67.54l1.228-5.877h.908l-.216 1.024c.395-.403.763-.695 1.107-.88a2.2 2.2 0 0 1 1.05-.278c.478 0 .851.131 1.122.388.27.258.407.603.407 1.036 0 .218-.048.56-.144 1.028l-.747 3.559h-1.001l.78-3.724c.077-.363.116-.63.116-.803a.608.608 0 0 0-.203-.476c-.133-.122-.33-.182-.583-.182-.513 0-.97.184-1.37.553-.4.37-.695 1.001-.883 1.897l-.57 2.735h-1M544.447 64.087h3.3l.004-.222c0-.501-.125-.886-.376-1.153-.25-.268-.573-.401-.968-.401-.43 0-.819.148-1.17.442-.353.295-.615.74-.79 1.334zm2.912 1.456l.973.098c-.14.484-.462.943-.966 1.378-.503.437-1.104.653-1.8.653-.435 0-.835-.1-1.199-.301-.363-.2-.64-.494-.83-.876a2.933 2.933 0 0 1-.286-1.312c0-.643.15-1.266.447-1.868.297-.603.681-1.051 1.154-1.346.471-.292.983-.44 1.532-.44.7 0 1.26.219 1.68.654.418.434.628 1.029.628 1.781 0 .29-.026.584-.077.885h-4.328a2.486 2.486 0 0 0-.023.311c0 .55.127.97.379 1.259.253.29.563.434.928.434.344 0 .68-.112 1.012-.337.332-.224.59-.55.776-.973M549.439 65.53l1.001-.06c0 .289.044.534.134.737.088.202.252.368.49.497.238.13.516.195.832.195.443 0 .775-.09.996-.267.222-.176.332-.385.332-.624a.76.76 0 0 0-.198-.495c-.138-.153-.47-.344-1-.57-.528-.228-.867-.387-1.015-.48a1.632 1.632 0 0 1-.559-.534 1.323 1.323 0 0 1-.189-.705c0-.465.185-.864.555-1.196.369-.332.885-.499 1.549-.499.737 0 1.3.172 1.685.514.386.341.586.79.6 1.346l-.98.067c-.014-.353-.14-.635-.374-.841-.238-.207-.571-.31-1.003-.31-.347 0-.616.079-.808.238-.192.158-.288.33-.288.516 0 .182.083.345.25.486.11.095.397.242.857.443.768.33 1.25.593 1.449.785.319.306.477.678.477 1.119 0 .29-.09.576-.268.856-.18.281-.452.505-.82.673-.366.168-.8.251-1.297.251-.679 0-1.257-.167-1.732-.503-.477-.336-.701-.882-.676-1.638M555.106 65.53l1.001-.06c0 .289.044.534.133.737.088.202.252.368.491.497.237.13.516.195.832.195.443 0 .775-.09.996-.267.221-.176.332-.385.332-.624a.76.76 0 0 0-.199-.495c-.137-.153-.469-.344-1-.57-.528-.228-.866-.387-1.014-.48a1.632 1.632 0 0 1-.559-.534 1.323 1.323 0 0 1-.19-.705c0-.465.186-.864.555-1.196.37-.332.886-.499 1.55-.499.737 0 1.3.172 1.685.514.385.341.585.79.6 1.346l-.98.067c-.015-.353-.14-.635-.375-.841-.237-.207-.57-.31-1.002-.31-.347 0-.616.079-.808.238-.192.158-.288.33-.288.516 0 .182.082.345.249.486.11.095.397.242.857.443.768.33 1.251.593 1.45.785.318.306.477.678.477 1.119 0 .29-.09.576-.268.856-.18.281-.452.505-.82.673-.367.168-.8.251-1.297.251-.679 0-1.258-.167-1.732-.503-.478-.336-.702-.882-.676-1.638M513.312 84.59a9.359 9.359 0 0 1-.868-3.913c0-.893.118-1.724.352-2.493.234-.768.591-1.53 1.071-2.283.317-.5.825-1.15 1.521-1.948h.782c-.432.462-.89 1.112-1.37 1.948a10.402 10.402 0 0 0-1.05 2.47 9.33 9.33 0 0 0-.326 2.434c0 1.218.212 2.479.636 3.786h-.748M515.926 82.205c.102-.482.246-.888.429-1.214.183-.327.425-.638.727-.931.304-.292.886-.784 1.749-1.475.525-.416.881-.724 1.075-.922a3.1 3.1 0 0 0 .602-.848c.084-.188.128-.392.128-.614a1.29 1.29 0 0 0-.396-.949 1.335 1.335 0 0 0-.972-.39c-.38 0-.712.133-.996.395-.284.264-.486.688-.609 1.271l-.979-.144c.096-.72.376-1.287.839-1.703.463-.414 1.039-.621 1.728-.621.461 0 .88.096 1.255.287.373.192.654.461.844.809.188.347.282.704.282 1.073 0 .539-.193 1.058-.576 1.555-.237.31-.929.92-2.081 1.83-.495.391-.863.714-1.104.963a3.53 3.53 0 0 0-.545.71h3.63l-.194.918h-4.836M523.662 77.136c0 .51.136.916.406 1.217.271.303.594.454.966.454.276 0 .55-.094.825-.282.273-.188.507-.469.703-.844.194-.374.293-.758.293-1.153 0-.31-.065-.599-.195-.864a1.392 1.392 0 0 0-.528-.601 1.31 1.31 0 0 0-.677-.202c-.221 0-.439.06-.653.178a2.035 2.035 0 0 0-.596.521c-.182.227-.319.49-.408.787-.092.297-.136.56-.136.789zm-1.335 3.21l.941-.094c.063.453.192.776.387.97a.97.97 0 0 0 .699.286c.384 0 .738-.167 1.066-.497.484-.488.84-1.187 1.068-2.099-.334.252-.632.43-.893.539-.26.106-.525.16-.799.16-.494 0-.937-.167-1.328-.499-.517-.432-.776-1.052-.776-1.86 0-.913.299-1.697.898-2.35.512-.563 1.141-.842 1.886-.842.671 0 1.228.248 1.671.744.443.496.664 1.199.664 2.105 0 .883-.147 1.754-.443 2.612-.349 1.011-.824 1.756-1.421 2.236a2.558 2.558 0 0 1-1.643.587c-.561 0-1.02-.175-1.376-.523-.356-.349-.557-.841-.601-1.474M534.768 80.988c0 .305.058.525.175.656.116.13.272.197.468.197a.89.89 0 0 0 .63-.27c.189-.178.337-.466.449-.863.109-.396.165-.739.165-1.027 0-.25-.063-.442-.188-.574a.645.645 0 0 0-.493-.2c-.214 0-.411.086-.591.258-.181.171-.33.443-.443.816a3.457 3.457 0 0 0-.172 1.007zm-.853-.19c0-.15.035-.382.104-.695.067-.314.17-.595.301-.842.134-.248.28-.444.443-.592.161-.148.339-.257.532-.325.19-.07.408-.107.652-.107.52 0 .913.132 1.181.396.268.263.4.651.4 1.159 0 .425-.088.873-.268 1.345-.178.472-.422.819-.734 1.038-.312.218-.686.33-1.122.33-.484 0-.852-.137-1.106-.41-.255-.274-.383-.704-.383-1.296zm-4.095-4.027c0 .309.059.529.175.658.116.13.272.194.468.194.232 0 .444-.09.633-.268.191-.18.34-.467.448-.866.11-.398.164-.74.164-1.024 0-.246-.064-.437-.188-.569a.645.645 0 0 0-.493-.2c-.215 0-.41.085-.592.257-.181.172-.328.443-.443.816a3.445 3.445 0 0 0-.172 1.002zm-.369 5.734l6.7-8.552h.908l-6.673 8.552zm-.481-5.917c0-.15.033-.383.101-.696.068-.315.17-.595.301-.841a2.17 2.17 0 0 1 .443-.592c.163-.148.34-.258.532-.328.19-.071.408-.106.653-.106.52 0 .914.134 1.182.396.266.264.4.651.4 1.16 0 .424-.09.872-.268 1.346-.179.472-.424.817-.735 1.036-.313.22-.687.329-1.121.329-.484 0-.854-.136-1.107-.41-.255-.275-.381-.707-.381-1.294M540.192 73.953c.582 1.271.874 2.572.874 3.908 0 .896-.118 1.728-.352 2.495-.235.77-.591 1.53-1.071 2.287-.321.501-.828 1.15-1.521 1.948h-.78c.426-.466.882-1.116 1.365-1.954.485-.838.833-1.66 1.05-2.465a9.383 9.383 0 0 0 .323-2.437c0-1.219-.212-2.479-.636-3.782h.748M100.767 64.684l1.073.15c-.338.937-.833 1.645-1.483 2.125a3.582 3.582 0 0 1-2.185.718c-.986 0-1.767-.3-2.343-.9-.578-.602-.867-1.464-.867-2.585 0-1.46.439-2.67 1.317-3.624.783-.853 1.754-1.279 2.916-1.279.86 0 1.557.23 2.09.691.533.463.842 1.083.927 1.859l-1.014.096c-.107-.588-.327-1.026-.66-1.315-.335-.29-.766-.435-1.293-.435-.992 0-1.794.44-2.407 1.323-.532.76-.797 1.663-.797 2.707 0 .833.205 1.469.614 1.908.41.44.943.658 1.6.658.56 0 1.068-.181 1.522-.546.454-.367.783-.883.99-1.551M103.672 65.21c0 .554.133.973.399 1.26.265.285.603.429 1.013.429.214 0 .425-.044.636-.131.21-.087.407-.219.586-.396.182-.177.336-.379.462-.605.128-.227.231-.472.308-.734a3.53 3.53 0 0 0 .171-1.052c0-.53-.133-.942-.4-1.237a1.307 1.307 0 0 0-1.011-.439c-.314 0-.598.075-.858.224-.258.148-.49.367-.7.655a2.948 2.948 0 0 0-.459 1.005 4.183 4.183 0 0 0-.147 1.022zm-1.001.1c0-1.147.337-2.098 1.013-2.851.557-.62 1.288-.93 2.191-.93.709 0 1.28.222 1.713.664.433.443.65 1.042.65 1.795 0 .675-.136 1.301-.41 1.884-.272.581-.66 1.027-1.164 1.336a2.993 2.993 0 0 1-1.591.464c-.458 0-.873-.097-1.249-.292a2.03 2.03 0 0 1-.856-.83 2.521 2.521 0 0 1-.297-1.24M108.792 67.54l1.228-5.877h1.001l-.204.968c.372-.416.705-.704.999-.863.292-.159.612-.239.954-.239.365 0 .67.098.916.292.245.192.407.463.485.81.298-.368.613-.644.943-.827.33-.181.678-.275 1.042-.275.491 0 .86.118 1.105.35.246.233.368.56.368.978 0 .182-.043.482-.127.898l-.792 3.785h-1.002l.81-3.885c.068-.316.103-.543.103-.68a.58.58 0 0 0-.182-.455c-.121-.11-.293-.165-.515-.165-.299 0-.602.09-.912.27-.31.182-.55.419-.722.712-.172.292-.322.744-.45 1.352l-.599 2.851h-1.002l.83-3.968c.06-.27.089-.46.089-.575a.621.621 0 0 0-.18-.465.636.636 0 0 0-.467-.177c-.285 0-.582.09-.895.27-.31.182-.565.434-.76.756-.196.323-.357.784-.482 1.38l-.58 2.779h-1.002M118.232 67.54l1.228-5.877h1.002l-.205.968c.373-.416.705-.704 1-.863.293-.159.61-.239.955-.239.364 0 .67.098.915.292.246.192.406.463.484.81.299-.368.613-.644.944-.827.33-.181.677-.275 1.043-.275.49 0 .858.118 1.104.35.245.233.368.56.368.978 0 .182-.043.482-.128.898l-.791 3.785h-1.003l.81-3.885c.069-.316.105-.543.105-.68a.58.58 0 0 0-.184-.455c-.121-.11-.293-.165-.515-.165-.297 0-.602.09-.912.27a1.97 1.97 0 0 0-.722.712c-.171.292-.322.744-.451 1.352l-.598 2.851h-1.001l.83-3.968c.06-.27.088-.46.088-.575a.621.621 0 0 0-.18-.465.635.635 0 0 0-.467-.177c-.284 0-.582.09-.894.27a2.138 2.138 0 0 0-.761.756c-.195.323-.356.784-.482 1.38l-.58 2.779h-1.002M129.1 60.563l.239-1.135h.996l-.239 1.135zm-1.461 6.977l1.23-5.877h1l-1.229 5.877h-1.001M132.536 66.727l-.166.818c-.239.063-.471.094-.696.094-.399 0-.716-.098-.952-.292-.178-.148-.266-.348-.266-.604 0-.128.048-.426.143-.891l.715-3.413h-.791l.16-.776h.79l.306-1.444 1.144-.692-.448 2.136h.987l-.167.776h-.98l-.68 3.246c-.085.415-.128.662-.128.743 0 .117.035.208.103.27.069.063.18.094.334.094.222 0 .419-.021.592-.065M133.34 67.54l1.228-5.877h1.002l-.206.968c.374-.416.707-.704.999-.863.293-.159.612-.239.955-.239.366 0 .67.098.917.292.244.192.405.463.484.81.299-.368.613-.644.943-.827.33-.181.678-.275 1.042-.275.491 0 .86.118 1.104.35.247.233.37.56.37.978 0 .182-.043.482-.128.898l-.792 3.785h-1.002l.81-3.885c.069-.316.104-.543.104-.68a.58.58 0 0 0-.183-.455c-.121-.11-.293-.165-.515-.165-.298 0-.602.09-.912.27a1.97 1.97 0 0 0-.722.712c-.172.292-.322.744-.451 1.352l-.597 2.851h-1.003l.83-3.968c.06-.27.089-.46.089-.575a.62.62 0 0 0-.18-.465.633.633 0 0 0-.467-.177c-.285 0-.583.09-.895.27-.31.182-.565.434-.76.756-.196.323-.357.784-.482 1.38l-.58 2.779h-1.002M144.192 64.087h3.298a6.07 6.07 0 0 0 .005-.222c0-.501-.125-.886-.376-1.153-.252-.268-.575-.401-.97-.401-.426 0-.817.148-1.17.442-.35.295-.615.74-.787 1.334zm2.91 1.456l.974.098c-.14.484-.462.943-.965 1.378-.504.437-1.104.653-1.803.653-.434 0-.834-.1-1.197-.301-.363-.2-.64-.494-.83-.876a2.915 2.915 0 0 1-.285-1.312c0-.643.148-1.266.446-1.868.297-.603.681-1.051 1.153-1.346.473-.292.984-.44 1.533-.44.702 0 1.262.219 1.679.654.42.434.628 1.029.628 1.781 0 .29-.024.584-.076.885h-4.33a2.744 2.744 0 0 0-.02.311c0 .55.127.97.38 1.259.251.29.56.434.925.434.344 0 .681-.112 1.013-.337.332-.224.59-.55.775-.973M149.088 67.54l1.23-5.877h.908l-.216 1.024c.394-.403.762-.695 1.106-.88a2.2 2.2 0 0 1 1.051-.278c.476 0 .85.131 1.121.388.271.258.406.603.406 1.036 0 .218-.047.56-.143 1.028l-.747 3.559h-1.001l.779-3.724c.078-.363.116-.63.116-.803a.607.607 0 0 0-.202-.476c-.134-.122-.329-.182-.582-.182-.514 0-.97.184-1.371.553-.4.37-.693 1.001-.883 1.897l-.57 2.735h-1.002M157.734 66.727l-.167.818a2.76 2.76 0 0 1-.697.094c-.399 0-.716-.098-.952-.292a.747.747 0 0 1-.266-.604c0-.128.047-.426.144-.891l.714-3.413h-.791l.16-.776h.792l.303-1.444 1.146-.692-.448 2.136h.984l-.165.776h-.979l-.681 3.246c-.084.415-.128.662-.128.743 0 .117.035.208.103.27.068.063.18.094.334.094.222 0 .419-.021.594-.065M112.76 84.59a9.324 9.324 0 0 1-.87-3.913c0-.893.117-1.724.351-2.493a9.304 9.304 0 0 1 1.071-2.283c.317-.5.825-1.15 1.522-1.948h.781c-.432.462-.888 1.112-1.37 1.948a10.41 10.41 0 0 0-1.05 2.47 9.337 9.337 0 0 0-.325 2.434c0 1.218.212 2.479.636 3.786h-.747M117.435 82.205l1.284-6.126c-.553.436-1.332.784-2.335 1.046l.188-.906a8.28 8.28 0 0 0 1.475-.782c.485-.32.849-.601 1.093-.841.146-.148.288-.325.42-.536h.58l-1.697 8.145h-1.008M121.801 79.887l1.018-.1c-.007.144-.012.23-.012.26 0 .245.063.489.187.737.124.247.291.436.503.565.213.132.437.198.673.198.309 0 .625-.107.946-.32.32-.216.58-.527.78-.935.199-.41.298-.817.298-1.22 0-.452-.132-.816-.4-1.09-.268-.271-.619-.409-1.054-.409-.292 0-.568.071-.828.211s-.503.35-.728.63l-.874-.06 1.223-4.151h3.962l-.193.92h-3.083l-.608 2.062a2.73 2.73 0 0 1 .705-.373 2.28 2.28 0 0 1 .744-.124c.62 0 1.13.205 1.527.613.399.411.599.972.599 1.683 0 .624-.138 1.199-.41 1.724-.273.527-.648.93-1.126 1.212a2.984 2.984 0 0 1-1.547.424 2.39 2.39 0 0 1-1.234-.316c-.358-.21-.626-.5-.805-.868a2.514 2.514 0 0 1-.263-1.273M134.214 80.988c0 .305.058.525.174.656.116.13.272.197.468.197a.89.89 0 0 0 .63-.27c.189-.178.338-.466.449-.863a3.9 3.9 0 0 0 .165-1.027c0-.25-.062-.442-.186-.574a.65.65 0 0 0-.495-.2c-.213 0-.41.086-.59.258-.182.171-.329.443-.443.816a3.457 3.457 0 0 0-.172 1.007zm-.854-.19c0-.15.036-.382.104-.695a3.23 3.23 0 0 1 .302-.842c.133-.248.28-.444.442-.592.162-.148.339-.257.532-.325.191-.07.408-.107.652-.107.522 0 .914.132 1.183.396.267.263.4.651.4 1.159a3.8 3.8 0 0 1-.268 1.345c-.18.472-.424.819-.736 1.038-.312.218-.685.33-1.12.33-.484 0-.853-.137-1.107-.41-.256-.274-.384-.704-.384-1.296zm-4.094-4.027c0 .309.058.529.174.658.118.13.272.194.468.194.232 0 .444-.09.634-.268.19-.18.34-.467.448-.866.109-.398.164-.74.164-1.024 0-.246-.063-.437-.188-.569a.645.645 0 0 0-.494-.2c-.213 0-.41.085-.592.257-.181.172-.328.443-.442.816a3.445 3.445 0 0 0-.172 1.002zm-.37 5.734l6.7-8.552h.908l-6.673 8.552zm-.481-5.917c0-.15.033-.383.103-.696.066-.315.168-.595.3-.841.133-.248.281-.446.442-.592.163-.148.34-.258.532-.328.192-.071.41-.106.654-.106.52 0 .913.134 1.181.396.268.264.4.651.4 1.16 0 .424-.088.872-.268 1.346-.177.472-.424.817-.735 1.036-.313.22-.685.329-1.121.329-.484 0-.852-.136-1.107-.41-.254-.275-.381-.707-.381-1.294M139.638 73.953c.581 1.271.873 2.572.873 3.908 0 .896-.117 1.728-.352 2.495-.235.77-.59 1.53-1.07 2.287-.322.501-.829 1.15-1.522 1.948h-.78c.428-.466.884-1.116 1.367-1.954a10.27 10.27 0 0 0 1.048-2.465 9.383 9.383 0 0 0 .324-2.437c0-1.219-.212-2.479-.636-3.782h.748" fill="#e1e1e1"/><path d="M87.732 82.439V50.473M32.554 351.299H15.452M32.554 88.725H15.452M88.066 50.807h512.488M15.785 351.632V88.392" fill="none" stroke="#e1e1e1" stroke-width=".66665"/><path d="M600.554 50.474V82.44" fill="none" stroke="#e1e1e1" stroke-width=".72438189"/><path d="M451.974 50.473V82.44" fill="none" stroke="#e1e1e1" stroke-width=".66665"/><path d="M164.352 50.474V82.44" fill="none" stroke="#e1e1e1" stroke-width=".6971825700000001"/></svg>