<svg xmlns="http://www.w3.org/2000/svg" width="200mm" height="107.5mm" viewBox="0 0 200 107.5"><path fill="#1588ee" d="M0 2.5h30v15H0z"/><path fill="#a55693" d="M0 37.5h30v15H0z"/><path fill="#cfaf99" d="M0 20h30v15H0z"/><path fill="#fae562" d="M0 55h30v15H0z"/><path fill="#ff3e37" d="M0 72.5h30v15H0z"/><path fill="#98d764" d="M0 90h30v15H0z"/><path fill="#0b46dd" d="M30 2.5h112v15H30z"/><path fill="#950f61" d="M30 37.5h112v15H30z"/><path fill="#af8862" d="M30 20h112v15H30z"/><path fill="#f89d0e" d="M30 55h112v15H30z"/><path fill="#de0a0a" d="M30 72.5h112v15H30z"/><path fill="#69a820" d="M30 90h112v15H30z"/><path fill="#082ca2" d="M142 2.5h58v15h-58z"/><path fill="#65194f" d="M142 37.5h58v15h-58z"/><path fill="#8c603a" d="M142 20h58v15h-58z"/><path fill="#f8760e" d="M142 55h58v15h-58z"/><path fill="#b10a0a" d="M142 72.5h58v15h-58z"/><path fill="#347616" d="M142 90h58v15h-58z"/><path d="M142 0v107.5" fill="#fff" stroke="#fff" stroke-width=".568" stroke-dasharray="2.27156334,2.27156334"/><path d="M30 0v107.5" fill="#fff" stroke="#fff" stroke-width=".568" stroke-dasharray="2.27156337,2.27156337"/><text style="line-height:1.25;-inkscape-font-specification:Bitter" x="-365.439" y="361.159" font-weight="400" font-size="5.941" font-family="Bitter" letter-spacing="0" word-spacing="0" fill="#fff" stroke-width=".248" transform="translate(398.41 -261.585)"><tspan x="-365.439" y="361.159" style="-inkscape-font-specification:Bitter" dx="0 0 0 0 0 0 0 0">Environmental Responsibility</tspan></text><text style="line-height:1.25;-inkscape-font-specification:Bitter" x="-365.439" y="343.6" font-weight="400" font-size="5.941" font-family="Bitter" letter-spacing="0" word-spacing="0" fill="#fff" stroke-width=".248" transform="translate(398.41 -261.585)"><tspan x="-365.439" y="343.6" style="-inkscape-font-specification:Bitter">Working Conditions</tspan></text><text style="line-height:1.25;-inkscape-font-specification:Bitter" x="-365.439" y="326.099" font-weight="400" font-size="5.941" font-family="Bitter" letter-spacing="0" word-spacing="0" fill="#fff" stroke-width=".248" transform="translate(398.41 -261.585)"><tspan x="-365.439" y="326.099" style="-inkscape-font-specification:Bitter">Community Wellbeing</tspan></text><text style="line-height:1.25;-inkscape-font-specification:Bitter" x="-365.35" y="308.599" font-weight="400" font-size="5.941" font-family="Bitter" letter-spacing="0" word-spacing="0" fill="#fff" stroke-width=".248" transform="translate(398.41 -261.585)"><tspan x="-365.35" y="308.599" style="-inkscape-font-specification:Bitter">Lifecycle Management</tspan></text><text style="line-height:1.25;-inkscape-font-specification:Bitter" x="-365.439" y="291.225" font-weight="400" font-size="5.941" font-family="Bitter" letter-spacing="0" word-spacing="0" fill="#fff" stroke-width=".248" transform="translate(398.41 -261.585)"><tspan x="-365.439" y="291.225" style="-inkscape-font-specification:Bitter">Business Conduct</tspan></text><text style="line-height:1.25;-inkscape-font-specification:Bitter" x="-365.439" y="273.718" font-weight="400" font-size="5.941" font-family="Bitter" letter-spacing="0" word-spacing="0" fill="#fff" stroke-width=".248" transform="translate(398.41 -261.585)"><tspan x="-365.439" y="273.718" style="-inkscape-font-specification:Bitter" dx="0">Economic Development</tspan></text></svg>