<svg xmlns="http://www.w3.org/2000/svg" height="47.61" width="258.77" viewBox="0 0 258.76998 47.61" data-name="Layer 1" id="Layer_1"><defs id="defs4"><style id="style2">.cls-1{fill:#fff}</style></defs><title id="title6">RMFArtboard 1</title><path transform="translate(-14 -15.3)" id="polygon8" class="cls-1" fill="#fff" d="M28.29 43.28l30.92-27.84v-.14H14v12.11z"/><path id="path10" d="M0 45.2h45.21V13.81c0-2.65-1.23-1.89-1.86-1.46L19.79 28.7s-4.88 3.38-9.94.27l-6.41-3.93a12.49 12.49 0 0 0-1.64-.8c-.5-.2-1.8-1-1.8 1.27z" class="cls-1" fill="#fff"/><path id="path12" d="M246.48 42.52h5.22v-1.13h-1.91v-6.4a5.91 5.91 0 0 1 3.72-1.79c1.47 0 1.95.94 1.95 2.32v5.87h-1.9v1.13h5.21v-1.13h-1.91v-6c0-2.2-1.16-3.33-3-3.33a6.12 6.12 0 0 0-4.1 1.86v-1.63h-3.29v1.15h1.91v7.95h-1.91zm-7.17-.82c-2.22 0-3.59-1.66-3.59-4.25s1.37-4.22 3.59-4.22c2.22 0 3.6 1.64 3.6 4.22s-1.35 4.25-3.6 4.25m0 1.14c2.95 0 5.05-2 5.05-5.39 0-3.39-2.1-5.38-5.05-5.38-2.95 0-5 2-5 5.38s2.1 5.39 5 5.39m-10.74-14.32a1.13 1.13 0 1 0 1.11-1.11 1.12 1.12 0 0 0-1.11 1.11m-1.33 14h5.22v-1.13h-1.91v-9.1h-3.31v1.15h1.91v7.95h-1.91zm-3.42.27a5.15 5.15 0 0 0 1.9-.32v-1.08a4.59 4.59 0 0 1-1.56.26c-1.28 0-1.86-.55-1.86-1.88v-6.33h3.3v-1.15h-3.3v-2.66h-1.4v2.66h-1.79v1.15h1.79v6.4a2.63 2.63 0 0 0 2.92 3m-12.53-1.14a1.87 1.87 0 0 1-2.12-1.91c0-1.74 1.69-2.1 3.23-2.1h2.27v2.44a5.32 5.32 0 0 1-3.38 1.57m-.29 1.09a5.9 5.9 0 0 0 3.77-1.6v1.33h3.21v-1.13h-1.86v-5.8c0-2.48-1.18-3.57-3.74-3.57a10.6 10.6 0 0 0-3.74.7v1.13a10 10 0 0 1 3.5-.67c1.88 0 2.58.67 2.58 2.51v1h-2.29c-2.06 0-4.64.56-4.64 3.14a2.92 2.92 0 0 0 3.21 3m-11.42-1.13c-2.29 0-3.28-2-3.28-4.25 0-2.39 1.16-4.22 3.48-4.22a4.29 4.29 0 0 1 3.09 1.4v5.43a4.6 4.6 0 0 1-3.29 1.64m-.26 1.14a4.75 4.75 0 0 0 3.62-1.74v1.47h3.23v-1.18h-1.93V25.45h-3.62v1.16h2.25v6.81a4.66 4.66 0 0 0-3.36-1.4c-3 0-4.63 2.39-4.63 5.38 0 2.99 1.56 5.39 4.44 5.39m-18.47-.27h5.22v-1.13h-1.91v-6.4a5.91 5.91 0 0 1 3.72-1.79c1.47 0 2 .94 2 2.32v5.87h-1.91v1.13h5.22v-1.13h-1.91v-6c0-2.2-1.16-3.33-3-3.33a6.16 6.16 0 0 0-4.11 1.86v-1.63h-3.28v1.15h1.91v7.95h-1.91zm-9 .27a6.41 6.41 0 0 0 4.15-1.81v1.54h3.28v-1.13h-1.93v-9.1H174v1.15h2v6.4a6 6 0 0 1-3.74 1.79c-1.45 0-2-.94-2-2.34v-7H167v1.15h1.93v6c0 2.2 1.16 3.31 3 3.31m-11.69-1.05c-2.22 0-3.6-1.66-3.6-4.25s1.38-4.22 3.6-4.22 3.59 1.64 3.59 4.22-1.35 4.25-3.59 4.25m0 1.14c2.94 0 5-2 5-5.39 0-3.39-2.1-5.38-5-5.38s-5 2-5 5.38 2.1 5.39 5 5.39m-17.84-.27h6.49v-1.26h-2.7V36h6.15v-1.2h-6.15v-5.77h6.47v3H154v-4.2h-11.6v1.21h2.34v12.27h-2.34z" class="cls-1" fill="#fff"/><path id="path14" d="M129.27 45.59c-1.55 0-2.75-.39-2.75-1.45a1.79 1.79 0 0 1 .67-1.33c2.08.36 4.83.12 4.83 1.38 0 .29-.14 1.4-2.75 1.4m0-11.86a2.12 2.12 0 0 1 0 4.23 1.88 1.88 0 0 1-2-2.13 1.86 1.86 0 0 1 2-2.1m-.1 13.86c4.42 0 5.53-1.88 5.53-3.57 0-4.32-7.39-2.47-7.39-4a.61.61 0 0 1 .2-.41 5.47 5.47 0 0 0 1.76.24c3 0 4.51-1.81 4.51-4a4.47 4.47 0 0 0-.36-1.71l1.84.1v-2.15h-4.16a6.08 6.08 0 0 0-1.83-.26c-3 0-4.52 1.81-4.52 4a3.82 3.82 0 0 0 1.48 3.14 2.59 2.59 0 0 0-1.28 2 1.49 1.49 0 0 0 .67 1.28 2.67 2.67 0 0 0-1.47 2.36c0 1.6 1.28 3 5 3m-19.05-5.09h5.9V40.4h-1.6v-5.22a5.05 5.05 0 0 1 2.9-1.2c1 0 1.28.48 1.28 1.35v5.07H117v2.12h5.91V40.4h-1.59v-5.34a2.88 2.88 0 0 0-3.12-3.23 6.16 6.16 0 0 0-3.86 1.57v-1.31h-4.24v2.13h1.6v6.18h-1.6zm-6.76-13.82a1.89 1.89 0 1 0 1.89-1.88 1.89 1.89 0 0 0-1.89 1.88m-.94 13.81h5.92V40.4h-1.6v-8.31h-4.32v2.13h1.6v6.18h-1.6zm-14.5 0h5.91V40.4h-1.59v-5.22a5.05 5.05 0 0 1 2.89-1.2c1 0 1.28.48 1.28 1.35v5.07H94.8v2.12h5.91V40.4h-1.59v-5.34A2.88 2.88 0 0 0 96 31.83a6.19 6.19 0 0 0-3.87 1.57v-1.31H87.9v2.13h1.59v6.18H87.9zM81.14 28.7A1.88 1.88 0 1 0 83 26.83a1.89 1.89 0 0 0-1.86 1.87m-.94 13.82h5.91V40.4h-1.59v-8.31H80.2v2.13h1.59v6.18H80.2zm-22.38 0H64V40.3h-1.81l.34-9.85 4.22 10.79h2.32l4.22-10.79.34 9.85h-1.81v2.22H78V40.3h-1.81l-.36-10.26h1.83v-2.22h-6.15l-3.6 9.78-3.6-9.78h-6.15v2.22H60l-.37 10.26h-1.81z" class="cls-1" fill="#fff"/><path id="path16" d="M180.37 8.7c1.59 0 2.08 1.23 2.17 2.46h-4.61c.19-1.3.87-2.46 2.44-2.46m.31 9a7.64 7.64 0 0 0 3.77-.94v-2.1a7 7 0 0 1-3.36 1 2.79 2.79 0 0 1-3.09-2.6h7a5.87 5.87 0 0 0 .1-1.16c0-2.87-1.5-5.19-4.78-5.19-3.28 0-5.12 2.32-5.12 5.48 0 3.16 1.8 5.51 5.48 5.51m-13.08-.26h5.91v-2.16h-1.59V.34h-4.32v2.15h1.59v12.79h-1.59zm-8.18-1.79a9.66 9.66 0 0 1-1-.05V9.32a4.49 4.49 0 0 1 2.13-.58c1.9 0 2.53 1.54 2.53 3.26 0 2.39-1.21 3.62-3.69 3.62m.12 2c4 0 6.35-1.83 6.35-5.7 0-3.25-1.69-5.26-4.64-5.26a5.54 5.54 0 0 0-2.8.73V.29h-4.32v2.12h1.59v14.87a20.82 20.82 0 0 0 3.82.39M148.29 3.6a1.89 1.89 0 1 0 1.88-1.9 1.88 1.88 0 0 0-1.88 1.88m-.94 13.81h5.91v-2.11h-1.59v-8.3h-4.32V9.1h1.59v6.18h-1.59zm-6.35.31c3.5 0 4.32-1.64 4.32-3.19 0-4-5.74-2.82-5.74-4.82 0-.51.39-1 1.62-1a8.86 8.86 0 0 1 1.47.14v1.43h2.2V7.29a13.7 13.7 0 0 0-3.7-.58c-2.85 0-4.2 1.33-4.2 3.24 0 3.91 5.72 2.87 5.72 4.73 0 .53-.48 1-1.71 1a9 9 0 0 1-1.93-.24v-1.3h-2.15v2.94a16 16 0 0 0 4.1.62m-18.68-.26h5.91v-2.16h-1.59v-5.21a5.07 5.07 0 0 1 2.9-1.21c1 0 1.28.48 1.28 1.35v5.07h-1.6v2.13h5.92v-2.13h-1.59V9.95a2.89 2.89 0 0 0-3.1-3.25 6.14 6.14 0 0 0-3.86 1.57v-1.3h-4.25V9.1h1.59v6.18h-1.59zm-7.48-1.79c-1.86 0-2.68-1.52-2.68-3.43 0-1.91.82-3.43 2.68-3.43 1.86 0 2.68 1.52 2.68 3.43 0 1.91-.82 3.43-2.68 3.43m0 2a5.1 5.1 0 0 0 5.5-5.48 5.51 5.51 0 0 0-11 0 5.1 5.1 0 0 0 5.52 5.53M102 8.79c1.88 0 2.63 1.59 2.63 3.43 0 2.05-.92 3.38-2.82 3.38a3.11 3.11 0 0 1-2-.66V9.7a3.21 3.21 0 0 1 2.22-.89m-6.53 13.4h6.23v-2.15h-1.91v-3.21a4.63 4.63 0 0 0 2.75.82c3 0 4.9-2.2 4.9-5.55 0-3.35-1.81-5.42-4.63-5.42a4.15 4.15 0 0 0-3.21 1.4V6.98H95.5V9.1h1.59v11H95.5zm-6-4.54c3.5 0 4.32-1.64 4.32-3.19 0-4-5.75-2.82-5.75-4.82 0-.51.39-1 1.62-1a8.67 8.67 0 0 1 1.47.14v1.43h2.2V7.29a13.62 13.62 0 0 0-3.69-.58c-2.85 0-4.2 1.33-4.2 3.24 0 3.91 5.72 2.87 5.72 4.73 0 .53-.48 1-1.72 1a9.08 9.08 0 0 1-1.93-.24v-1.3h-2.18v2.94a16.08 16.08 0 0 0 4.13.58M78.7 8.7c1.59 0 2.07 1.23 2.17 2.46h-4.61c.19-1.3.87-2.46 2.44-2.46m.3 9a7.64 7.64 0 0 0 3.78-1v-2.1a7 7 0 0 1-3.36 1 2.79 2.79 0 0 1-3.13-2.54h7a5.87 5.87 0 0 0 .1-1.16c0-2.87-1.5-5.19-4.78-5.19-3.28 0-5.12 2.32-5.12 5.48 0 3.16 1.85 5.51 5.51 5.51M62.65 9.85V4.93H65c2.32 0 3.12 1.18 3.12 2.46S67.34 9.85 65 9.85zm-4.78 7.56h6.76v-2.23h-2v-3.16h2.63l3 5.39H72v-2.23h-1.8L68 11.27a4 4 0 0 0 3-3.93c0-2.25-1.69-4.64-6-4.64h-7.13v2.22h2v10.26h-2z" class="cls-1" fill="#fff"/></svg>