<svg xmlns="http://www.w3.org/2000/svg" height="47.61" width="200.26" viewBox="0 0 200.25999 47.61" data-name="Layer 1" id="Layer_1"><defs id="defs4"><style id="style2">.cls-1{fill:#fff}</style></defs><title id="title6">RMI-WhiteArtboard 1</title><path transform="translate(-14.33 -14.96)" id="polygon8" class="cls-1" fill="#fff" d="M28.62 42.95L59.54 15.1v-.14H14.33v12.12z"/><path id="path10" d="M0 45.21h45.21v-31.4c0-2.65-1.23-1.89-1.86-1.45L19.79 28.68s-4.88 3.38-9.94.27l-6.4-3.91a12.48 12.48 0 0 0-1.65-.79c-.5-.2-1.8-1-1.8 1.27z" class="cls-1" fill="#fff"/><path id="path12" d="M188.93 42.53h4.74v-1.06h-1.69l2.58-3.34 2.63 3.34h-1.69v1.06h4.76v-1.11h-1.59l-3.33-4.11 3.16-3.91h1.52v-1.11h-4.75v1.09h1.81l-2.41 3.09-2.43-3.09h1.81v-1.09h-4.9v1.11h1.52l3.11 3.91-3.35 4.11h-1.5zm-6.26-9.39c2.14 0 3 1.78 3.06 3.55h-6.37c.19-2.08 1.35-3.55 3.31-3.55m.33 9.65a7.24 7.24 0 0 0 3.58-1v-1.17a6.67 6.67 0 0 1-3.46 1c-2.34 0-3.69-1.5-3.79-3.91h7.7a3.21 3.21 0 0 0 0-.68c0-2.34-1.23-5-4.41-5-2.9 0-4.74 2.19-4.74 5.43 0 3.24 1.79 5.33 5.07 5.33m-13.44-1.13c-2.29 0-3.28-2-3.28-4.25 0-2.39 1.15-4.22 3.47-4.22a4.25 4.25 0 0 1 3.09 1.4v5.45a4.63 4.63 0 0 1-3.28 1.64m-.27 1.13a4.71 4.71 0 0 0 3.71-1.77v1.47h3.24v-1.12h-1.93V25.46h-3.59v1.16h2.24v6.81a4.61 4.61 0 0 0-3.35-1.4c-3 0-4.64 2.39-4.64 5.38 0 2.99 1.57 5.38 4.44 5.38m-18.46-.26h5.21v-1.14h-1.94v-6.35a5.88 5.88 0 0 1 3.72-1.79c1.47 0 2 .94 2 2.32v5.86h-1.91v1.14h5.21v-1.18h-1.9v-6c0-2.2-1.16-3.33-3-3.33a6.14 6.14 0 0 0-4.1 1.86v-1.6h-3.32v1.16h1.9v7.94h-1.9zm-8.21 0h6.13v-1.21h-2.34V29.04h2.34v-1.2h-6.15v1.2h2.34v12.28h-2.34z" class="cls-1" fill="#fff"/><path id="path14" d="M129.53 45.59c-1.55 0-2.75-.38-2.75-1.45a1.78 1.78 0 0 1 .67-1.32c2.08.36 4.83.12 4.83 1.37 0 .29-.14 1.4-2.75 1.4m0-11.85a2.12 2.12 0 0 1 0 4.23 1.89 1.89 0 0 1-2-2.13 1.86 1.86 0 0 1 2-2.1m-.1 13.86c4.42 0 5.53-1.89 5.53-3.58 0-4.32-7.39-2.46-7.39-4a.6.6 0 0 1 .2-.41 5.47 5.47 0 0 0 1.76.24c3 0 4.51-1.81 4.51-4a4.47 4.47 0 0 0-.36-1.71l1.84.09V32.1h-4.16a6 6 0 0 0-1.83-.27c-3 0-4.51 1.81-4.51 4a3.81 3.81 0 0 0 1.47 3.14 2.59 2.59 0 0 0-1.28 2 1.49 1.49 0 0 0 .67 1.28 2.67 2.67 0 0 0-1.47 2.36c0 1.59 1.28 3 5 3m-19.07-5.07h5.92V40.4h-1.59v-5.21a5.09 5.09 0 0 1 2.9-1.21c1 0 1.28.49 1.28 1.35v5.07h-1.58v2.13h5.91V40.4h-1.59v-5.36a2.89 2.89 0 0 0-3.12-3.24 6.18 6.18 0 0 0-3.86 1.57v-1.3h-4.25v2.12h1.6v6.18h-1.6zm-6.75-13.81a1.88 1.88 0 1 0 1.88-1.88 1.88 1.88 0 0 0-1.88 1.88m-1 13.81h5.92V40.4h-1.6v-8.3h-4.24v2.12h1.6v6.18h-1.6zm-14.5 0H94V40.4h-1.59v-5.21a5.06 5.06 0 0 1 2.89-1.21c1 0 1.28.49 1.28 1.35v5.07h-1.59v2.13h5.91V40.4h-1.59v-5.36c0-2.15-1.21-3.24-3.11-3.24a6.14 6.14 0 0 0-3.86 1.57v-1.3h-4.25v2.12h1.59v6.18h-1.59zM81.4 28.72a1.88 1.88 0 1 0 1.88-1.88 1.88 1.88 0 0 0-1.88 1.88m-.94 13.81h5.91V40.4h-1.59v-8.3h-4.32v2.12h1.59v6.18h-1.59zm-22.38 0h6.18v-2.22h-1.81l.34-9.85 4.22 10.79h2.32l4.22-10.79.34 9.85h-1.81v2.22h6.18v-2.22h-1.81l-.36-10.27h1.83v-2.21h-6.15l-3.6 9.77-3.6-9.77h-6.15v2.21h1.83l-.36 10.26h-1.81z" class="cls-1" fill="#fff"/><path id="path16" d="M180.67 8.7c1.59 0 2.08 1.23 2.17 2.46h-4.61c.2-1.3.87-2.46 2.44-2.46m.31 9a7.64 7.64 0 0 0 3.69-.96v-2.1a7 7 0 0 1-3.36 1 2.78 2.78 0 0 1-3.09-2.6h7a5.87 5.87 0 0 0 .1-1.16c0-2.87-1.5-5.19-4.78-5.19-3.28 0-5.12 2.32-5.12 5.48 0 3.16 1.81 5.48 5.48 5.48m-13.08-.27h5.92v-2.09h-1.6V.35h-4.32v2.14h1.59v12.8h-1.59zm-8.15-1.75c-.34 0-.68 0-1-.05V9.33a4.49 4.49 0 0 1 2.13-.58c1.9 0 2.53 1.54 2.53 3.26 0 2.39-1.21 3.62-3.69 3.62m.12 2.05c4 0 6.35-1.84 6.35-5.7 0-3.26-1.69-5.26-4.64-5.26a5.66 5.66 0 0 0-2.8.72V.35h-4.32v2.12h1.6v14.82a21.61 21.61 0 0 0 3.81.39M148.55 3.61a1.89 1.89 0 1 0 1.88-1.89 1.89 1.89 0 0 0-1.88 1.89m-.94 13.8h5.91v-2.12h-1.59V6.98h-4.32v2.13h1.59v6.18h-1.59zm-6.32.27c3.5 0 4.32-1.64 4.32-3.19 0-4-5.75-2.82-5.75-4.83 0-.5.39-1 1.62-1a8 8 0 0 1 1.47.15v1.43h2.2V7.3a13.7 13.7 0 0 0-3.7-.58c-2.84 0-4.2 1.33-4.2 3.23 0 3.91 5.72 2.88 5.72 4.73 0 .54-.48 1-1.71 1a9 9 0 0 1-1.93-.24v-1.29h-2.17v3a16.46 16.46 0 0 0 4.13.58m-18.69-.27h5.92v-2.17h-1.6v-5.25a5.12 5.12 0 0 1 2.9-1.2c1 0 1.28.48 1.28 1.35v5.07h-1.59v2.12h5.91v-2.09h-1.59V9.95a2.88 2.88 0 0 0-3.16-3.23 6.14 6.14 0 0 0-3.86 1.57V6.98h-4.25v2.13h1.6v6.18h-1.6zm-7.48-1.78c-1.86 0-2.68-1.52-2.68-3.43 0-1.91.82-3.43 2.68-3.43 1.86 0 2.68 1.52 2.68 3.43 0 1.91-.82 3.43-2.68 3.43m0 2.05a5.1 5.1 0 0 0 5.5-5.48 5.5 5.5 0 0 0-11 0 5.1 5.1 0 0 0 5.5 5.48M102.3 8.85c1.88 0 2.63 1.59 2.63 3.42 0 2.05-.91 3.38-2.82 3.38a3.1 3.1 0 0 1-2-.65V9.69a3.21 3.21 0 0 1 2.22-.89m-6.54 13.42h6.23v-2.18h-1.91v-3.18a4.72 4.72 0 0 0 2.75.82c3 0 4.9-2.2 4.9-5.55 0-3.35-1.81-5.41-4.63-5.41a4.15 4.15 0 0 0-3.21 1.4V6.98h-4.13v2.13h1.59v10.93h-1.59zm-6-4.54c3.5 0 4.32-1.64 4.32-3.19 0-4-5.74-2.82-5.74-4.83 0-.5.38-1 1.61-1a8 8 0 0 1 1.48.15v1.43h2.19V7.3a13.62 13.62 0 0 0-3.69-.58c-2.85 0-4.2 1.33-4.2 3.23 0 3.91 5.72 2.88 5.72 4.73 0 .54-.48 1-1.71 1a9.1 9.1 0 0 1-1.94-.24v-1.29h-2.16v3a16.53 16.53 0 0 0 4.13.58m-10.79-9c1.59 0 2.08 1.23 2.17 2.46h-4.66c.2-1.3.87-2.46 2.44-2.46m.31 9a7.64 7.64 0 0 0 3.77-.94v-2.15a7 7 0 0 1-3.36 1 2.78 2.78 0 0 1-3.13-2.6h7a5.87 5.87 0 0 0 .1-1.16c0-2.87-1.5-5.19-4.78-5.19-3.28 0-5.08 2.35-5.08 5.51 0 3.16 1.81 5.48 5.48 5.48M62.91 9.86V4.93h2.36c2.32 0 3.12 1.19 3.12 2.46s-.78 2.47-3.12 2.47zm-4.78 7.55h6.76v-2.22h-2v-3.15h2.63l3 5.38h3.75v-2.23h-1.81l-2.22-3.91a4 4 0 0 0 3-3.93c0-2.25-1.64-4.64-6-4.64h-7.1v2.22h2v10.26h-2z" class="cls-1" fill="#fff"/></svg>