<svg xmlns="http://www.w3.org/2000/svg" viewBox="0 0 482.1 88.757" height="94.674" width="514.24"><path fill="#fff" d="M0-.006h84.012v84.012H0z"/><path d="M294.386 78.906c-3.3-1.667-4.886-4.585-4.886-8.987 0-6.028 3.632-9.919 9.258-9.919 2.675 0 4.512.662 6.3 2.269 2.21 1.988 2.87 3.733 2.882 7.631.011 3.636-.556 5.307-2.48 7.3-1.82 1.886-3.106 2.398-6.36 2.531-2.712.11-2.94.07-4.714-.825zm7.43-1.814c2.466-1.258 3.785-4.31 3.512-8.126-.289-4.033-2.383-6.465-5.838-6.778-4.526-.41-7.28 2.435-7.287 7.527-.002 1.301.154 2.888.345 3.528.431 1.437 1.996 3.307 3.312 3.956 1.44.709 4.463.655 5.956-.107zm15.612 2.061c-2.362-1.624-2.728-3.09-2.728-10.929V62.73l-1.725-.09-1.725-.09v-2.1l3.075-.086 3.075-.085v7.22c0 7.75.158 8.747 1.535 9.712 1.562 1.094 4.624.447 7.614-1.61l1.351-.93V62.7h-3.6v-2.4h6.3v17.1h3.6v2.1h-6.3v-2.731l-.975.731c-2.048 1.536-3.582 2.099-6.075 2.23-2.144.113-2.51.052-3.422-.577zm50.331-.189c-3.083-1.602-4.629-5.047-4.388-9.782.222-4.353 1.922-7.217 5.093-8.581 2.743-1.18 6.81-.59 8.861 1.286l.675.618V49.8h-4.2v-2.1h6.9v29.7h3.6v2.1h-6v-1.2c0-.66-.082-1.2-.182-1.2-.1 0-.606.358-1.125.796-1.607 1.358-3.147 1.89-5.484 1.897-1.765.005-2.423-.14-3.75-.829zm7.091-1.824c.66-.301 1.639-.918 2.175-1.37l.975-.823V64.53l-.991-.756c-3.163-2.413-7.162-2.177-9.413.553-1.205 1.462-1.599 2.895-1.583 5.757.02 3.58 1.179 6.045 3.34 7.11 1.334.658 3.993.63 5.497-.055zm15.028 1.98c-1.781-1.019-2.38-2.025-2.521-4.234-.28-4.382 2.069-6.05 9.006-6.4l3.537-.178V66.54c0-2.193-.614-3.45-1.96-4.013-1.374-.574-4.637-.51-7.13.14l-2.04.533.09-1.075c.088-1.053.129-1.084 2.04-1.578 2.256-.584 6.218-.69 7.936-.213 1.516.42 3.01 1.915 3.431 3.431.19.685.33 3.818.331 7.411l.003 6.225h3.6v2.1h-6v-2.44l-.873.621c-3.073 2.188-7.073 2.798-9.448 1.44zm6.422-1.781c.413-.153 1.391-.688 2.175-1.19l1.425-.911V70.5l-3.075.002c-1.691.001-3.555.135-4.142.298-1.315.365-2.554 1.638-2.818 2.894-.221 1.049.34 2.706 1.14 3.37 1.063.881 3.336 1 5.295.275zm17.777 1.968c-.535-.264-1.278-.97-1.65-1.569-.644-1.034-.682-1.432-.772-8.063l-.095-6.975h-3.26v-2.4h3.3v-4.8h2.7v4.8h6v2.4h-6v6.436c0 4.078.122 6.704.333 7.167.524 1.15 1.47 1.482 3.838 1.348l2.129-.12v.95c0 1.147-.436 1.312-3.45 1.308-1.314-.002-2.464-.182-3.073-.482zm28.131-.028c-.814-.287-1.935-1.074-2.85-2.001-2.029-2.055-2.705-3.946-2.69-7.528.008-2.3.132-2.967.838-4.5 1.56-3.39 3.884-4.955 7.694-5.182 2.707-.161 4.264.218 6.195 1.511 4.861 3.253 5.242 12.318.682 16.221-.686.587-1.863 1.277-2.615 1.534-1.749.595-5.491.567-7.254-.055zm7.415-2.542c1.875-1.241 2.888-3.56 2.908-6.658.02-3.005-.629-4.846-2.21-6.274-2.171-1.962-5.29-2.242-7.905-.71-4.417 2.59-4.171 11.514.384 13.933 1.91 1.015 5.052.88 6.823-.291zM265.5 78.3v-1.2h4.5V54.3h-4.5v-2.1h21.6V60h-2.4v-5.7h-12v10.8h11.4v2.1h-11.4v9.9h4.8v2.4h-12zm71.7.15V77.4h3.6V62.7h-3.6v-2.4h6v3.053l.943-.793c1.856-1.562 3.85-2.35 6.257-2.474 1.933-.099 2.415-.018 3.423.575 2.204 1.294 2.414 2.122 2.518 9.914l.09 6.825H360v2.1h-9.6v-2.1h3.3V64.209l-.876-.98c-.819-.915-1-.978-2.775-.963-2.054.018-3.628.65-5.724 2.3l-1.125.884V77.4h3.6v2.1h-9.6v-1.05zm86.4 0V77.4h3.3V62.7h-3.3v-2.4h6v17.1h3.6v2.1h-9.6zm35.7 0V77.4h3.6V62.7h-3.6v-2.4h6v3.028l1.38-1.054c3.082-2.354 7.457-2.985 9.687-1.398 1.907 1.358 2.119 2.342 2.126 9.849l.007 6.675h3.6v2.1h-9.6v-2.1h3.6l-.007-5.625c-.008-6.573-.202-7.703-1.523-8.887-.882-.79-1.106-.85-2.663-.709-1.81.164-3.27.793-5.331 2.295l-1.275.93V77.4h3.6v2.1h-9.6v-1.05zM426.6 54.9c-1.244-1.244-.352-3.6 1.364-3.6.923 0 2.236 1.233 2.236 2.1s-1.313 2.1-2.236 2.1c-.42 0-1.034-.27-1.364-.6z" fill="#aaafb3"/><path d="M13.133 37.254L.016 22.65.008 11.325 0 0H84.141l-1.195 1.17C80.597 3.467 26.63 51.9 26.443 51.879c-.106-.012-6.096-6.593-13.31-14.625z" fill="#931818"/><path d="M236.757 88.48c-1.818-.358-3.664-1.452-4.47-2.65-1.221-1.812-.754-4.563 1.03-6.064l.898-.756-.589-.726c-.883-1.091-.58-3.04.674-4.334l.969-1-.898-1.15c-1.125-1.442-1.571-2.773-1.571-4.685 0-2.267.592-3.819 1.991-5.22 2.004-2.007 3.167-2.222 10.797-1.992l6.412.193V63.9h-3.258l.279.973c1.004 3.503-.47 7.02-3.585 8.549-1.506.74-2.023.83-4.835.845-2.662.013-3.164.092-3.243.504-.149.772 1.01 1.183 4.575 1.621 5.965.734 8.203 1.841 8.891 4.398.992 3.681-1.35 6.694-5.964 7.673-1.815.385-6.187.394-8.103.017zm7.204-3.592c1.11-.308 2.339-1.505 2.339-2.278 0-1.297-2.034-2.01-6.75-2.366l-2.7-.203-.525.9c-.983 1.688-.403 3.133 1.575 3.922.996.397 4.667.412 6.061.025zm-.25-14.961c.858-.858.939-1.105.939-2.877 0-1.767-.082-2.02-.928-2.866-1.718-1.718-4.944-1.372-5.985.642-.572 1.105-.556 3.082.034 4.327 1.014 2.137 4.167 2.548 5.94.774zM0 65.12c0-10.817-.132-19.16.027-19.578.152-.401.752-.846 1.026-.952.883-.338 4.337 1.402 11.247 5.669 6.966 4.3 9.046 5.338 11.722 5.845 3.253.617 7.038.08 10.35-1.47 1.03-.482 11.945-7.855 24.255-16.383 12.31-8.529 22.784-15.658 23.276-15.844.749-.283.98-.252 1.42.188.494.494.698 1.197.698 1.197L84.01 84H0zM108 77.4v-2.1h3.516l.2-6.825c.11-3.754.282-8.074.383-9.6l.183-2.775H108.6V52.187l5.766.082 5.766.081 3.284 8.935c1.807 4.914 3.38 8.83 3.497 8.7.117-.13 1.597-4.015 3.288-8.635 1.692-4.62 3.14-8.569 3.22-8.775.107-.282 1.553-.375 5.811-.375h5.668v3.9H141.519l.199 7.275c.11 4.001.28 8.321.38 9.6l.18 2.325H145.5v4.2h-11.4v-4.2h3.371l-.223-8.475c-.123-4.661-.309-8.708-.414-8.992-.123-.332-1.574 3.02-4.065 9.387l-3.873 9.904-2.11-.087-2.11-.087-3.775-9.662c-2.076-5.314-3.854-9.74-3.95-9.838-.098-.097-.263 1.956-.368 4.562-.105 2.606-.273 6.662-.373 9.013l-.183 4.275h3.373v4.2H108v-2.1zm41.7.15V75.6h3V63.9h-3V60h8.1v15.6h2.7v3.9h-10.8zm14.4 0V75.6h3V63.9h-3V60h7.766l.092 1.2.092 1.199 1.35-.904c3.829-2.564 8.772-2.332 10.529.495.691 1.112.725 1.418.818 7.385l.096 6.225h2.957v3.9H177v-3.9h3.038l-.094-5.37c-.084-4.78-.157-5.438-.666-6-.901-.994-2.99-.856-5.327.354l-1.901.984-.082 5.016-.083 5.016H174.9v3.9h-10.8v-1.95zm27 0V75.6h3V63.9h-3V60h7.8v15.6h3v3.9h-10.8zm14.4 0V75.6h3V63.9h-3V60h7.766l.092 1.215.092 1.215 1.034-.766c1.55-1.147 4.017-1.964 5.933-1.964 2.312 0 3.963.833 4.903 2.475.696 1.217.734 1.554.827 7.35l.097 6.075h2.956v3.9h-10.8v-3.9h2.7v-5.503c0-4.951-.055-5.554-.549-6-.922-.835-3.026-.638-5.2.487l-1.901.984-.082 5.016-.083 5.016H216.3v3.9h-10.8zm-52.065-20.7c-3.25-1.657-2.053-6.454 1.61-6.449 1.153.001 2.59.975 3.038 2.059 1.167 2.817-1.953 5.763-4.648 4.39zm41.36.023c-1.143-.511-1.895-1.836-1.895-3.338 0-1.547 1.588-3.135 3.135-3.135 1.55 0 2.698.692 3.319 2 .477 1.007.49 1.252.115 2.31-.72 2.036-2.804 3-4.675 2.163zM178.2 39.75V37.8h3V17.1h-3v-3.6h7.5v.9c0 .996.322 1.146.918.428.957-1.153 2.77-1.767 5.232-1.773 2.13-.005 2.586.1 4.05.92 1.823 1.022 3.345 2.953 3.964 5.028.548 1.836.445 6.653-.177 8.297-1.054 2.783-2.812 4.537-5.4 5.389-1.781.586-5.029.453-6.67-.273-.766-.339-1.444-.616-1.505-.616-.062 0-.112 1.35-.112 3v3h3.6v3.9h-11.4zm14.399-10.985c2.284-1.284 3.294-4.971 2.299-8.395-1.035-3.559-4.366-4.745-7.761-2.763l-.987.576-.082 5.02-.083 5.02 1.283.582c1.723.782 3.897.765 5.33-.04zM145.5 32.98c-2.273-.337-3.714-.997-5.236-2.4-1.767-1.629-2.63-3.718-2.8-6.782-.265-4.748 1.626-8.465 5.1-10.03 2.243-1.01 6.33-1.006 8.42.008 1.765.858 3.348 2.658 3.95 4.49.574 1.752.901 4.552.649 5.559l-.194.774h-12.964l.191.975c.274 1.396 1.075 2.373 2.602 3.171 1.826.955 5.07.815 7.563-.326l1.719-.787v3.793l-1.456.626c-1.322.569-2.359.792-4.994 1.076-.495.053-1.642-.013-2.55-.148zm5.311-12.93c-.327-2.442-1.838-3.642-4.357-3.462-1.286.092-1.77.288-2.492 1.01-.876.877-1.844 3.025-1.566 3.475.077.124 2.04.226 4.361.226h4.222zm13.408 12.92c-1.338-.124-2.991-.375-3.675-.56l-1.244-.334V26.7h3.9v1.168c0 1.356.146 1.444 2.779 1.692 2.466.232 3.925-.438 4.064-1.867.12-1.233-.48-1.631-4.196-2.793-4.587-1.434-5.972-2.697-6.185-5.645-.376-5.203 4.86-7.55 12.763-5.717l1.575.365V19.2h-3.9v-2.7h-2.183c-2.579 0-3.517.479-3.517 1.795 0 1.198.978 1.873 4.118 2.842 1.447.448 3.193 1.138 3.878 1.534 2.32 1.341 3.205 4.78 1.892 7.353-1.274 2.496-4.55 3.455-10.07 2.947zm48.118.005c-2.112-.24-4.74-1.488-5.821-2.766-.447-.528-1.158-1.702-1.582-2.61-.645-1.382-.771-2.089-.777-4.35-.005-1.834.165-3.192.528-4.233 1.728-4.95 7.416-7.302 13.28-5.49 1.63.503 2.33.93 3.585 2.184 2.046 2.046 2.7 3.874 2.7 7.545 0 2.455-.092 2.894-.989 4.715-.568 1.155-1.46 2.397-2.1 2.924-2.105 1.737-5.27 2.483-8.824 2.08zm4.268-4.136c1.676-.899 2.549-2.928 2.53-5.883-.018-2.727-.7-4.465-2.163-5.506-1.978-1.409-4.836-1.07-6.337.752-2.45 2.971-1.73 9.239 1.227 10.696 1.33.656 3.459.629 4.743-.06zm43.614 4.13c-1.338-.123-2.991-.374-3.675-.558l-1.244-.335V26.7h3.866l.092 1.275.092 1.275 2.105.258c2.587.318 4.207-.203 4.521-1.455.302-1.204-.727-2.063-3.417-2.854-5.291-1.556-6.959-3.1-6.959-6.449 0-2.842 1.396-4.554 4.435-5.438 1.876-.545 5.537-.449 8.39.221l1.575.37V19.2h-3.865l-.093-1.275-.092-1.275-2.144-.087c-1.893-.078-2.24-.004-2.97.623-.661.569-.787.87-.627 1.507.244.972 1.226 1.507 4.834 2.635 4.903 1.533 6.62 3.96 5.545 7.835-.842 3.03-4.446 4.354-10.37 3.808zm33.79-.011c-1.563-.135-3.014-.312-3.225-.393-.304-.117-.384-3.018-.384-13.957V4.8h-3V.9h7.8v6.632c0 5.843.055 6.611.461 6.455 3.519-1.35 6.502-1.373 9.073-.07 3.045 1.542 4.428 4.603 4.203 9.301-.167 3.5-.953 5.391-3.012 7.243-2.458 2.209-6.195 2.993-11.916 2.498zm7.495-4.576c1.704-1.128 2.493-2.95 2.495-5.76.003-2.98-.875-4.77-2.743-5.595-1.536-.68-3.576-.595-5.14.214l-.916.473v11.76l2.527-.132c2.125-.112 2.726-.265 3.777-.96zm33.21 4.59c-3.428-.5-5.714-2.088-7.135-4.955-.643-1.297-.728-1.87-.729-4.918 0-2.967.097-3.66.69-4.95.877-1.905 2.206-3.292 4.11-4.29 1.287-.673 1.884-.786 4.2-.797 2.37-.011 2.91.09 4.427.835 2.98 1.464 4.423 4.172 4.423 8.305V24.6h-13.24l.208.675c1.328 4.304 5.465 5.325 11.307 2.789.468-.203.525-.027.525 1.62v1.85l-1.288.57c-1.168.516-2.239.742-4.862 1.024-.495.054-1.68-.017-2.635-.156zm5.48-12.348c-.013-1.218-1.107-3.164-2.056-3.655-2.454-1.27-5.166-.11-6.24 2.67-.657 1.697-.746 1.66 3.952 1.66 4.313 0 4.35-.006 4.343-.675zM108.3 30.75V28.8h3.6V9.3h-3.6V5.4l7.275.005c9.953.007 12.315.55 14.836 3.414 3.309 3.76 2.216 9.762-2.163 11.882-.742.36-1.3.742-1.238.851l2.126 3.723 2.014 3.525h3.25v3.9h-6.822l-2.814-5.025-2.815-5.025-2.475-.087-2.474-.087V28.8h3.6v3.9h-12.3v-1.95zm16.285-12.561c.53-.227 1.303-.777 1.715-1.225.648-.701.75-1.092.75-2.864 0-1.772-.102-2.163-.75-2.864-1.173-1.272-2.558-1.697-6.075-1.866L117 9.215V18.6h3.31c2.134 0 3.652-.146 4.275-.411zM228.3 30.75V28.8h3.013l-.082-5.775-.081-5.775-1.425-.091-1.425-.092V13.5h7.764l.093 1.056.093 1.057 1.161-.792c2.817-1.92 6.28-2.423 8.583-1.246 2.636 1.347 2.989 2.511 2.999 9.9L249 28.8h3v3.9h-11.1v-3.9h3v-5.4c0-5-.045-5.444-.6-6-.94-.94-2.868-.796-5.149.384l-1.901.984-.083 5.016-.082 5.016H239.1v3.9h-10.8v-1.95zm46.5 0V28.8h3.013l-.082-5.775-.081-5.775-1.425-.091-1.425-.092V13.5h7.8v15.3h3v3.9h-10.8v-1.95zm37.5 0V28.8h3v-24h-3V.9h8.1v27.9h3v3.9h-11.1zM278.194 9.932c-1.212-.76-1.594-1.482-1.594-3.007 0-.919.214-1.455.875-2.195.775-.867 1.054-.98 2.425-.98 1.37 0 1.65.113 2.425.98 2.594 2.904-.86 7.254-4.13 5.202z" fill="#341501"/></svg>
