<svg xmlns="http://www.w3.org/2000/svg" width="397.841" height="94.681" viewBox="0 0 372.97627 88.763002"><path fill="#fff" d="M.051 0h84.012v84.012H.051z"/><path d="M13.184 37.26L.067 22.656.06 11.33.051.006h84.142l-1.196 1.17c-2.348 2.297-56.315 50.73-56.503 50.709-.106-.012-6.095-6.593-13.31-14.625z" fill="#931818"/><path d="M236.808 88.486c-1.817-.358-3.664-1.452-4.47-2.65-1.22-1.812-.753-4.563 1.03-6.064l.898-.756-.588-.726c-.884-1.092-.58-3.04.674-4.335l.968-.999-.897-1.15c-1.125-1.442-1.572-2.773-1.572-4.685 0-2.267.592-3.819 1.991-5.22 2.005-2.008 3.167-2.222 10.797-1.992l6.412.192V63.906h-3.258l.28.973c1.004 3.503-.47 7.02-3.585 8.549-1.506.74-2.024.83-4.836.844-2.662.014-3.163.092-3.243.505-.148.772 1.01 1.182 4.575 1.621 5.965.734 8.203 1.841 8.891 4.398.992 3.681-1.35 6.694-5.963 7.673-1.815.385-6.188.394-8.104.017zm7.205-3.592c1.11-.309 2.338-1.505 2.338-2.279 0-1.297-2.033-2.01-6.75-2.365l-2.7-.203-.525.9c-.983 1.688-.403 3.133 1.575 3.922.996.397 4.668.412 6.062.025zm-.25-14.961c.857-.858.938-1.106.938-2.877 0-1.767-.082-2.02-.928-2.867-1.718-1.718-4.944-1.371-5.985.642-.572 1.106-.556 3.083.035 4.327 1.014 2.138 4.166 2.549 5.94.775zM.05 65.125c0-10.816-.131-19.16.027-19.577.153-.401.752-.846 1.026-.952.883-.339 4.337 1.402 11.247 5.669 6.967 4.3 9.046 5.338 11.722 5.845 3.254.617 7.038.08 10.35-1.47 1.03-.482 11.945-7.855 24.255-16.383 12.31-8.529 22.785-15.659 23.277-15.844.748-.283.98-.252 1.42.188.494.494.697 1.197.697 1.197l-.01 60.208H.053zm108 12.28v-2.1h3.516l.2-6.824c.11-3.754.282-8.074.383-9.6l.183-2.775H108.651V52.193l5.766.081 5.767.082 3.284 8.935c1.806 4.914 3.38 8.829 3.496 8.7.117-.13 1.597-4.015 3.289-8.635 1.691-4.62 3.14-8.569 3.219-8.775.108-.282 1.554-.375 5.811-.375h5.668v3.9H141.57l.199 7.275c.11 4.001.28 8.321.38 9.6l.18 2.325h3.222v4.2h-11.4v-4.2h3.371l-.223-8.475c-.122-4.661-.309-8.708-.414-8.992-.123-.333-1.574 3.02-4.064 9.387l-3.874 9.904-2.11-.087-2.11-.087-3.774-9.662c-2.076-5.314-3.854-9.74-3.951-9.838-.097-.097-.263 1.956-.368 4.562-.105 2.606-.272 6.662-.373 9.013l-.182 4.275h3.372v4.2h-11.4v-2.1zm41.7.15v-1.95h3v-11.7h-3v-3.9h8.1v15.6h2.7v3.9h-10.8zm14.4 0v-1.95h3v-11.7h-3v-3.9h7.766l.092 1.2.092 1.2 1.35-.905c3.83-2.563 8.772-2.331 10.529.495.691 1.113.725 1.419.818 7.386l.097 6.225h2.956v3.9h-10.8v-3.9H180.09l-.094-5.37c-.083-4.78-.156-5.438-.665-6-.902-.994-2.99-.856-5.328.354l-1.9.984-.083 5.016-.082 5.016h3.014v3.9h-10.8v-1.95zm27 0v-1.95h3v-11.7h-3v-3.9h7.8v15.6h3v3.9h-10.8zm14.4 0v-1.95h3v-11.7h-3v-3.9h7.766l.092 1.216.092 1.214 1.034-.765c1.55-1.147 4.017-1.964 5.933-1.964 2.312 0 3.963.833 4.903 2.475.697 1.216.735 1.554.827 7.35l.097 6.075h2.956v3.9h-10.8v-3.9h2.7v-5.504c0-4.95-.055-5.553-.548-6-.923-.834-3.027-.637-5.2.488l-1.902.984-.082 5.016-.082 5.016h3.014v3.9h-10.8zm-52.065-20.7c-3.25-1.656-2.052-6.453 1.61-6.448 1.153.001 2.59.975 3.039 2.058 1.167 2.818-1.953 5.764-4.65 4.39zm41.36.023c-1.143-.51-1.895-1.836-1.895-3.337 0-1.547 1.588-3.135 3.135-3.135 1.55 0 2.698.692 3.319 2 .478 1.007.49 1.251.115 2.31-.72 2.035-2.803 3-4.674 2.162zM178.25 39.756v-1.95h3v-20.7h-3v-3.6h7.5v.9c0 .996.323 1.146.918.428.957-1.153 2.771-1.768 5.232-1.773 2.13-.005 2.586.099 4.05.92 1.823 1.022 3.345 2.953 3.964 5.028.548 1.835.445 6.653-.177 8.297-1.054 2.783-2.811 4.537-5.4 5.389-1.78.586-5.028.453-6.67-.273-.766-.339-1.443-.616-1.505-.616-.061 0-.112 1.35-.112 3v3h3.6v3.9h-11.4zm14.4-10.986c2.284-1.284 3.293-4.97 2.298-8.394-1.034-3.559-4.366-4.745-7.76-2.763l-.988.576-.082 5.02-.082 5.02 1.282.582c1.723.782 3.897.765 5.331-.04zm-47.1 4.217c-2.273-.337-3.714-.998-5.236-2.4-1.767-1.63-2.63-3.719-2.8-6.783-.264-4.747 1.626-8.464 5.1-10.029 2.243-1.01 6.331-1.006 8.42.008 1.765.858 3.349 2.658 3.95 4.49.575 1.751.902 4.552.65 5.559l-.195.773h-12.964l.191.975c.274 1.397 1.075 2.374 2.602 3.172 1.827.955 5.07.815 7.563-.326l1.72-.787v3.793l-1.457.626c-1.322.569-2.358.792-4.994 1.076-.495.053-1.642-.013-2.55-.148zm5.312-12.93c-.328-2.442-1.839-3.643-4.357-3.462-1.286.091-1.77.288-2.493 1.01-.876.876-1.844 3.025-1.566 3.475.077.124 2.04.226 4.361.226h4.222zm13.407 12.92c-1.337-.124-2.991-.375-3.675-.56l-1.244-.334V26.706h3.9v1.168c0 1.356.146 1.444 2.78 1.692 2.465.232 3.925-.438 4.063-1.867.12-1.233-.479-1.631-4.196-2.793-4.587-1.434-5.971-2.697-6.185-5.645-.376-5.204 4.86-7.55 12.763-5.717l1.575.365V19.206h-3.9v-2.7h-2.183c-2.578 0-3.517.479-3.517 1.795 0 1.198.979 1.873 4.118 2.842 1.448.447 3.193 1.137 3.878 1.534 2.32 1.341 3.205 4.78 1.892 7.353-1.273 2.496-4.55 3.455-10.07 2.946zm48.118.004c-2.112-.239-4.74-1.487-5.82-2.766-.447-.527-1.16-1.702-1.583-2.61-.645-1.38-.77-2.088-.777-4.35-.005-1.833.165-3.191.528-4.232 1.728-4.95 7.417-7.302 13.28-5.491 1.631.504 2.331.93 3.585 2.185 2.046 2.046 2.7 3.873 2.7 7.545 0 2.455-.092 2.893-.988 4.715-.569 1.154-1.461 2.397-2.1 2.924-2.106 1.737-5.27 2.483-8.825 2.08zm4.268-4.136c1.676-.898 2.549-2.928 2.53-5.882-.018-2.727-.7-4.465-2.163-5.506-1.978-1.409-4.836-1.07-6.337.751-2.45 2.972-1.73 9.24 1.227 10.697 1.33.656 3.46.629 4.743-.06zm43.614 4.131c-1.337-.123-2.991-.374-3.675-.558l-1.244-.335V26.706h3.866l.092 1.275.092 1.275 2.105.258c2.587.318 4.207-.204 4.521-1.455.302-1.204-.726-2.063-3.416-2.854-5.292-1.556-6.96-3.101-6.96-6.45 0-2.842 1.396-4.553 4.435-5.437 1.877-.545 5.537-.449 8.39.221l1.575.37V19.206h-3.865l-.093-1.275-.092-1.275-2.143-.088c-1.894-.077-2.24-.004-2.97.624-.662.569-.788.87-.628 1.507.244.972 1.227 1.507 4.834 2.635 4.904 1.533 6.621 3.96 5.545 7.834-.842 3.03-4.446 4.354-10.37 3.808zm33.79-.011c-1.563-.135-3.014-.312-3.225-.393-.304-.117-.384-3.019-.384-13.957V4.805h-3v-3.9h7.8v6.633c0 5.843.055 6.611.461 6.455 3.519-1.35 6.502-1.373 9.073-.07 3.045 1.542 4.428 4.602 4.204 9.301-.167 3.5-.954 5.391-3.013 7.242-2.457 2.21-6.195 2.993-11.916 2.499zm7.495-4.576c1.704-1.128 2.493-2.95 2.495-5.76.003-2.98-.875-4.77-2.743-5.596-1.536-.68-3.576-.594-5.14.214l-.916.474v11.76l2.527-.133c2.126-.111 2.726-.264 3.777-.959zm33.211 4.589c-3.429-.5-5.714-2.087-7.136-4.954-.643-1.297-.728-1.87-.728-4.918 0-2.967.096-3.66.69-4.95.876-1.905 2.205-3.292 4.11-4.29 1.286-.673 1.883-.787 4.2-.798 2.37-.01 2.91.091 4.427.836 2.98 1.464 4.422 4.172 4.422 8.305v2.397h-13.24l.208.675c1.328 4.304 5.465 5.325 11.307 2.789.468-.204.525-.027.525 1.62v1.85l-1.287.57c-1.169.516-2.24.742-4.863 1.024-.495.053-1.68-.017-2.635-.156zm5.479-12.347c-.012-1.219-1.106-3.165-2.055-3.655-2.454-1.27-5.166-.11-6.24 2.67-.658 1.697-.746 1.66 3.951 1.66 4.313 0 4.35-.006 4.344-.675zM108.35 30.756v-1.95h3.6v-19.5h-3.6v-3.9l7.275.005c9.954.007 12.315.55 14.836 3.414 3.309 3.76 2.217 9.762-2.162 11.881-.743.36-1.3.743-1.239.852l2.126 3.723 2.014 3.525h3.25v3.9h-6.822l-2.814-5.025L122 22.656l-2.474-.087-2.475-.088V28.806h3.6v3.9h-12.3v-1.95zm16.285-12.562c.53-.226 1.303-.777 1.715-1.224.648-.702.75-1.093.75-2.864 0-1.772-.102-2.163-.75-2.865-1.173-1.271-2.558-1.697-6.075-1.865l-3.225-.155v9.385h3.31c2.134 0 3.652-.146 4.275-.412zM228.35 30.756v-1.95h3.013l-.081-5.775-.082-5.775-1.425-.092-1.425-.091v-3.567h7.764l.093 1.056.093 1.056 1.161-.791c2.817-1.92 6.28-2.423 8.583-1.246 2.637 1.347 2.99 2.51 3 9.9l.006 5.325h3v3.9h-11.1v-3.9h3v-5.4c0-5-.044-5.445-.6-6-.94-.94-2.868-.797-5.149.384l-1.9.984-.083 5.016-.083 5.016H239.151v3.9h-10.8v-1.95zm46.5 0v-1.95h3.013l-.081-5.775-.082-5.775-1.425-.092-1.425-.091v-3.567h7.8v15.3h3v3.9h-10.8v-1.95zm37.5 0v-1.95h3v-24h-3v-3.9h8.1v27.9h3v3.9h-11.1zM278.245 9.938c-1.211-.76-1.594-1.482-1.594-3.008 0-.918.214-1.454.876-2.194.774-.867 1.054-.98 2.424-.98 1.371 0 1.65.113 2.425.98 2.595 2.904-.86 7.254-4.13 5.202z" fill="#341501"/><g><path d="M313.478 79.683c-2.328-.631-3.81-1.872-4.985-4.173-.893-1.75-1.05-2.385-1.16-4.691-.226-4.705 1.424-8.326 4.55-9.993 1.017-.542 1.735-.662 3.943-.663 2.823-.001 3.977.364 5.475 1.734l.675.617V49.809h-4.2v-2.1h6.9v29.7h3.6v2.1h-6V76.691l-.975.944c-1.947 1.885-5.243 2.748-7.823 2.048zm5.533-2.602a12.45 12.45 0 0 0 2.025-1.334l.94-.79V64.54l-1.05-.8c-3.613-2.757-8.126-1.948-10.154 1.82-.55 1.021-.646 1.693-.646 4.523 0 3.171.042 3.39.9 4.771.495.796 1.263 1.717 1.706 2.046 1.537 1.14 4.207 1.218 6.28.181zm19.985 2.723c-4.983-.858-7.708-4.83-7.342-10.699.35-5.616 3.528-9.01 8.494-9.073 2.675-.033 4.372.655 5.954 2.413 1.532 1.705 2.276 3.643 2.363 6.16l.061 1.754-7.125.08-7.125.081v.785c0 2.152 1.54 4.737 3.402 5.714 2.206 1.157 5.501 1.028 8.47-.33l1.628-.746v1.026c0 .737-.19 1.148-.675 1.456-1.827 1.163-5.618 1.808-8.105 1.379zm6.867-12.52c-.25-1.828-1.547-3.907-2.882-4.618-1.49-.794-4.021-.736-5.544.127-1.414.8-2.761 2.858-3.039 4.641l-.198 1.275h11.858zM265.876 78.31v-1.2h4.2v-22.8h-4.2v-2.1h11.4v2.1h-4.5v22.8h4.5v2.4h-11.4zm15.3.15v-1.05h3.6v-14.7h-3.6v-2.4h6v3.051l1.222-.968c4.042-3.201 9.52-3.12 11.21.167.561 1.09.627 1.83.709 8.025l.09 6.825h3.569v2.1h-9.6v-2.1h3.3V64.22l-.825-.923c-1.601-1.792-4.683-1.428-7.996.945l-1.679 1.201V77.41h3.6v2.1h-9.6v-1.05zm70.8 0v-1.05l1.425-.017 1.425-.017 2.946-3.658c1.62-2.012 2.952-3.771 2.96-3.91.008-.14-1.247-1.86-2.79-3.825l-2.804-3.573h-2.862v-2.1h9v2.1h-1.5c-.825 0-1.5.072-1.5.159 0 .087.964 1.38 2.141 2.873 1.728 2.19 2.211 2.638 2.502 2.316.913-1.01 4.057-5.02 4.057-5.174 0-.096-.75-.174-1.669-.174h-1.669l.094-.975.094-.975 4.425-.083 4.425-.083v1.058c0 1.054-.006 1.058-1.347 1.058-1.337 0-1.363.02-3.776 2.925-1.337 1.61-2.685 3.28-2.997 3.713l-.567.787 3.069 3.786 3.068 3.785 1.425.002 1.425.002v2.1h-9.038l.094-.975c.09-.929.163-.982 1.55-1.125l1.457-.15-2.243-2.805c-1.234-1.543-2.347-2.808-2.475-2.81-.128-.002-1.22 1.26-2.429 2.806l-2.195 2.81 1.49.09c1.48.09 1.49.097 1.49 1.125v1.034h-8.7v-1.05z" fill="#acafb3"/></g></svg>