<svg xmlns="http://www.w3.org/2000/svg" width="82" height="20" viewBox="0 0 82 20" fill="#fff"><path d="M5.261 12.637L2.879 4.739H.051l3.694 11.414h2.879l3.758-11.414H7.554l-2.293 7.898M10.535 4.726h2.701V16.14h-2.701zM10.535.217h2.701v2.764h-2.701zM14.484 7.172h5.58l-6.204 6.904v2.064h9.783v-2.446h-5.961l5.961-6.84V4.726h-9.159v2.446M24.268 7.172h5.515l-6.14 6.904v2.064h9.847v-2.446h-6.089l6.089-6.84V4.726h-9.222v2.446M41.885 9.873c0 .879-.063 1.949-.496 2.764-.192.433-.88 1.248-2.192 1.248-1.949 0-2.19-1.44-2.19-2.573V4.726h-2.765v7.21c0 1.007.064 2.064.688 3.007.497.688 1.376 1.503 3.325 1.503 2.013 0 3.134-.88 3.643-1.44v1.198h2.764V4.79h-2.764v5.083h-.013m13.49-2.191c0-2.013-1.439-3.262-4.764-3.262-4.764 0-4.955 2.88-4.955 3.644l2.764.127c0-.624.191-1.694 2.255-1.694 1.694 0 1.95.815 1.95 1.694-.752.255-1.822.56-3.517.815-2.127.433-4.076 1.376-4.076 3.886 0 1.949 1.503 3.516 4.14 3.516 1.376 0 2.637-.56 3.389-1.198l.063 1.007h3.261c-.496-.752-.496-1.07-.496-2.013V7.682h-.013zm-2.89 4.33c0 1.44-1.44 2.064-2.765 2.064-1.376 0-1.886-.624-1.886-1.375 0-1.198 1.249-1.376 2.51-1.567 1.006-.128 1.694-.433 2.127-.624v1.503h.064-.05zM56.624.089h2.765v16.115h-2.765zM60.828.217h2.701v2.764h-2.701z"/><path d="M76.892 4.726l-2.128 8.471-2.573-8.47H67.86V.65h-2.764v4.076h-4.332v11.478h2.701V6.675h1.63v6.777c0 1.886.752 2.765 3.262 2.765.942 0 1.567-.128 1.949-.192v-2.318a6.272 6.272 0 0 1-1.198.127c-.127 0-.688 0-1.006-.318-.255-.255-.255-.752-.255-1.198V6.675h2.013l3.452 9.656c-.064.255-.318 1.198-1.885 1.198-.191 0-.497 0-.752-.064v2.318c.433.064.752.128 1.567.128.879 0 1.567-.128 2.319-.688.942-.752 1.503-2.828 1.949-4.204l3.133-10.28h-2.751M78.204 13.07h3.006v3.134h-3.006z"/></svg>
