<svg version="1" xmlns="http://www.w3.org/2000/svg" width="1724" height="1724" viewBox="0 0 1293.000000 1293.000000"><path d="M0 181.3v181.3l49.8 58c27.3 31.9 65.9 76.8 85.7 99.8 59.5 69.3 138 160.6 207.2 241.4 36 42 65.9 76.2 66.4 76 .4-.2 7-6.1 14.6-13.3C458.6 791.8 627.4 632.4 687 576c9.1-8.6 73.2-69.1 142.5-134.5s149.9-141.5 179-169c29.2-27.6 85.9-81.1 126-119C1289 7.7 1293 3.9 1293 1.9c0-1.9-8.1-1.9-646.5-1.9H0v181.3z"/><path d="M1258 359.3c-6.9 2.9-10.7 5.4-53 36.2-19 13.8-52.7 38.3-75 54.5-22.3 16.2-81.7 59.3-132 95.9-50.3 36.5-126.8 92.1-170 123.5-43.2 31.3-119.7 86.9-170 123.5-50.3 36.6-95.3 68.9-100 71.9-10.7 6.8-35.4 18.9-48.5 23.8-20.5 7.6-40.4 12.8-61.5 16.1-17.7 2.7-55.1 2.5-72.5-.5-29.1-5-56.3-14.7-80.9-28.9-4.5-2.5-51.3-32.4-104.1-66.3-91.2-58.6-108.1-69.1-122-75.5C37.1 719 31.6 717 23.6 717c-10.2 0-17.4 7.5-21.3 21.9-1.6 6.2-1.8 21.7-2 280.3L0 1293h1293V845.7c0-384.7-.2-448.5-1.5-456.8-2.3-15.4-6.7-25.1-13.4-29.6-4.6-3.1-12.6-3.1-20.1 0z"/></svg>